<?xml version="1.0" encoding="iso-8859-1"?>
<!-- Generator: Adobe Illustrator 23.0.5, SVG Export Plug-In . SVG Version: 6.00 Build 0)  -->
<svg version="1.1" xmlns="http://www.w3.org/2000/svg" xmlns:xlink="http://www.w3.org/1999/xlink" x="0px" y="0px"
	 viewBox="0 0 512 512" style="enable-background:new 0 0 512 512;" xml:space="preserve">
<g id="Santa_Hat">
	<g>
		<g>
			<path style="fill:#FFFFFF;" d="M99.398,394.665c-0.01-0.206-0.019-0.412-0.029-0.618c-0.806-17.443,12.897-32.118,30.357-32.368
				c107.55-1.541,227.457-1,334.995-2.543c17.328-0.249,31.418,13.802,31.277,31.132c-0.008,0.958-0.016,1.915-0.023,2.873
				c-0.14,16.937-13.91,30.595-30.848,30.61l-334.858,0.303C113.785,424.068,100.16,411.132,99.398,394.665z"/>
			<path style="fill:#E84C3D;" d="M128,361.5c13.8-33.85,27.55-67.75,41.3-101.65l-16.7,40.8c-17.55,7.4-35.1,14.8-52.6,22.2
				c-6.85,2.9-14.85,5.75-21.4,2.3c-5.7-3-8.3-10.1-7.85-16.55c0.5-6.4,3.45-12.4,6.4-18.1c18.4-35.3,40.15-68.8,64.9-99.95
				c5.3-6.7,7.2-10.6,11.05-18.25c11.9-23.15,24.55-47.2,45.9-62.05c17.05-11.85,38-16.5,58.55-19.35c24.1-3.35,48.7-4.5,72.55,0.15
				c23.85,4.65,47,15.45,63.45,33.3c12.75,13.85,21,31.2,27.75,48.75c11.8,30.6,19.7,62.75,23.45,95.3
				c3.65,31.75,1.7,65.4,21.4,90.6L128,361.5z"/>
			<path style="fill:#FFFFFF;" d="M65.286,317.026c4.659,2.237,8.936,5.607,11.335,10.185c1.864,3.556,2.496,7.62,2.851,11.619
				c0.524,5.911,0.483,11.977-1.291,17.64c-3.577,11.415-14.528,20.032-26.436,21.172c-11.908,1.14-24.133-5.07-30.541-15.171
				c-6.408-10.101-6.879-23.595-1.516-34.287c2.001-3.99,4.799-7.648,8.462-10.199C38.909,310.494,54.007,311.612,65.286,317.026z"
				/>
			<path style="fill:none;stroke:#000000;stroke-width:10;stroke-linecap:round;stroke-linejoin:round;stroke-miterlimit:10;" d="
				M99.398,394.665c-0.01-0.206-0.019-0.412-0.029-0.618c-0.806-17.443,12.897-32.118,30.357-32.368
				c107.55-1.541,227.457-1,334.995-2.543c17.328-0.249,31.418,13.802,31.277,31.132c-0.008,0.958-0.016,1.915-0.023,2.873
				c-0.14,16.937-13.91,30.595-30.848,30.61l-334.858,0.303C113.785,424.068,100.16,411.132,99.398,394.665z"/>
			<path style="fill:none;stroke:#000000;stroke-width:10;stroke-linecap:round;stroke-linejoin:round;stroke-miterlimit:10;" d="
				M128.001,361.509c20.428-50.269,40.856-100.538,61.284-150.807"/>
			<path style="fill:none;stroke:#000000;stroke-width:10;stroke-linecap:round;stroke-linejoin:round;stroke-miterlimit:10;" d="
				M152.59,300.674c-17.538,7.398-35.076,14.795-52.615,22.193c-6.839,2.885-14.812,5.745-21.381,2.292
				c-5.716-3.004-8.309-10.094-7.835-16.534c0.473-6.44,3.426-12.405,6.412-18.13c18.392-35.269,40.15-68.783,64.881-99.937
				c5.311-6.691,7.178-10.628,11.072-18.232c11.855-23.15,24.52-47.247,45.891-62.071c17.053-11.828,37.998-16.516,58.554-19.371
				c24.062-3.342,48.698-4.503,72.542,0.148c23.843,4.651,46.967,15.479,63.434,33.339c12.753,13.832,21.003,31.189,27.773,48.743
				c11.805,30.607,19.698,62.72,23.427,95.312c3.631,31.74,1.727,65.388,21.394,90.563"/>
			<path style="fill:none;stroke:#000000;stroke-width:10;stroke-linecap:round;stroke-linejoin:round;stroke-miterlimit:10;" d="
				M159.555,211.974c0.176,8.611,0.351,17.516,3.632,25.483c2.109,5.214,5.507,9.783,9.842,13.298"/>
			<path style="fill:none;stroke:#000000;stroke-width:10;stroke-linecap:round;stroke-linejoin:round;stroke-miterlimit:10;" d="
				M65.286,317.026c4.659,2.237,8.936,5.607,11.335,10.185c1.864,3.556,2.496,7.62,2.851,11.619
				c0.524,5.911,0.483,11.977-1.291,17.64c-3.577,11.415-14.528,20.032-26.436,21.172c-11.908,1.14-24.133-5.07-30.541-15.171
				c-6.408-10.101-6.879-23.595-1.516-34.287c2.001-3.99,4.799-7.648,8.462-10.199C38.909,310.494,54.007,311.612,65.286,317.026z"
				/>
			<g>
				
					<line style="fill:none;stroke:#000000;stroke-width:5;stroke-linecap:round;stroke-linejoin:round;stroke-miterlimit:10;" x1="139.15" y1="361.6" x2="100.25" y2="400.5"/>
				
					<line style="fill:none;stroke:#000000;stroke-width:5;stroke-linecap:round;stroke-linejoin:round;stroke-miterlimit:10;" x1="173.85" y1="361.15" x2="115" y2="420"/>
				
					<line style="fill:none;stroke:#000000;stroke-width:5;stroke-linecap:round;stroke-linejoin:round;stroke-miterlimit:10;" x1="208.4" y1="360.9" x2="145.25" y2="424.05"/>
				
					<line style="fill:none;stroke:#000000;stroke-width:5;stroke-linecap:round;stroke-linejoin:round;stroke-miterlimit:10;" x1="242.9" y1="360.7" x2="179.55" y2="424"/>
				
					<line style="fill:none;stroke:#000000;stroke-width:5;stroke-linecap:round;stroke-linejoin:round;stroke-miterlimit:10;" x1="277.35" y1="360.5" x2="213.85" y2="424"/>
				
					<line style="fill:none;stroke:#000000;stroke-width:5;stroke-linecap:round;stroke-linejoin:round;stroke-miterlimit:10;" x1="311.8" y1="360.35" x2="248.2" y2="423.95"/>
				
					<line style="fill:none;stroke:#000000;stroke-width:5;stroke-linecap:round;stroke-linejoin:round;stroke-miterlimit:10;" x1="346.2" y1="360.2" x2="282.5" y2="423.9"/>
				
					<line style="fill:none;stroke:#000000;stroke-width:5;stroke-linecap:round;stroke-linejoin:round;stroke-miterlimit:10;" x1="380.65" y1="360" x2="316.8" y2="423.9"/>
				
					<line style="fill:none;stroke:#000000;stroke-width:5;stroke-linecap:round;stroke-linejoin:round;stroke-miterlimit:10;" x1="415.25" y1="359.7" x2="351.1" y2="423.85"/>
				
					<line style="fill:none;stroke:#000000;stroke-width:5;stroke-linecap:round;stroke-linejoin:round;stroke-miterlimit:10;" x1="449.9" y1="359.35" x2="385.4" y2="423.8"/>
				
					<line style="fill:none;stroke:#000000;stroke-width:5;stroke-linecap:round;stroke-linejoin:round;stroke-miterlimit:10;" x1="480.35" y1="363.15" x2="419.7" y2="423.8"/>
				
					<line style="fill:none;stroke:#000000;stroke-width:5;stroke-linecap:round;stroke-linejoin:round;stroke-miterlimit:10;" x1="495.1" y1="382.7" x2="454.05" y2="423.75"/>
			</g>
			<g>
				
					<line style="fill:none;stroke:#000000;stroke-width:5;stroke-linecap:round;stroke-linejoin:round;stroke-miterlimit:10;" x1="60.8" y1="315.2" x2="18.65" y2="357.35"/>
				
					<line style="fill:none;stroke:#000000;stroke-width:5;stroke-linecap:round;stroke-linejoin:round;stroke-miterlimit:10;" x1="78.35" y1="331.85" x2="35.45" y2="374.75"/>
			</g>
		</g>
		<path style="fill:none;stroke:#000000;stroke-width:5;stroke-linecap:round;stroke-linejoin:round;stroke-miterlimit:10;" d="
			M336.974,123.18c4.08,2.048,8.16,4.096,12.241,6.144"/>
		<path style="fill:none;stroke:#000000;stroke-width:5;stroke-linecap:round;stroke-linejoin:round;stroke-miterlimit:10;" d="
			M365.304,142.657c17.545,16.47,28.299,39.13,34.242,62.45s7.42,47.51,8.872,71.53"/>
		<path style="fill:none;stroke:#000000;stroke-width:5;stroke-linecap:round;stroke-linejoin:round;stroke-miterlimit:10;" d="
			M293.687,124.134c22.07,2.417,43.119,13.209,57.965,29.717c14.846,16.508,23.351,38.581,23.421,60.782"/>
		<path style="fill:none;stroke:#000000;stroke-width:5;stroke-linecap:round;stroke-linejoin:round;stroke-miterlimit:10;" d="
			M173.896,338.834c3.085-0.064,6.17-0.129,9.254-0.193"/>
		<path style="fill:none;stroke:#000000;stroke-width:5;stroke-linecap:round;stroke-linejoin:round;stroke-miterlimit:10;" d="
			M199.297,337.486c42.065-1.926,84.243-1.374,126.242,1.652"/>
		<path style="fill:none;stroke:#000000;stroke-width:5;stroke-linecap:round;stroke-linejoin:round;stroke-miterlimit:10;" d="
			M172.927,324.897c32.682-1.177,65.411-1.046,98.082,0.395"/>
		<path style="fill:none;stroke:#000000;stroke-width:5;stroke-linecap:round;stroke-linejoin:round;stroke-miterlimit:10;" d="
			M97.625,284.876c8.806-18.96,21.14-36.274,36.184-50.79"/>
		<path style="fill:none;stroke:#000000;stroke-width:5;stroke-linecap:round;stroke-linejoin:round;stroke-miterlimit:10;" d="
			M139.195,224.969c1.07-1.812,2.14-3.625,3.21-5.437"/>
		<path style="fill:none;stroke:#000000;stroke-width:5;stroke-linecap:round;stroke-linejoin:round;stroke-miterlimit:10;" d="
			M198.625,150.257c2.89-8.419,10.147-14.764,18.201-18.552c8.054-3.788,16.943-5.356,25.711-6.886"/>
	</g>
</g>
<g id="Layer_1">
</g>
</svg>
