<svg xmlns="http://www.w3.org/2000/svg" enable-background="new 0 0 28 28" viewBox="0 0 28 28"><path fill="#FFE577" d="M14.312,3.438c4.375-0.188,9.25,4.25,10.062,6.375s2.25,8.812-0.562,11.375s-5.875,4.938-9.5,4.688s-9.092-3.097-9.484-5.861c-0.391-2.764-2.59-9.309,0.528-11.223S14.312,3.438,14.312,3.438z"/><path d="M14,25.998c-0.403,0-0.806-0.093-1.12-0.278l-8.269-4.879c-0.303-0.178-0.585-0.478-0.793-0.845C3.613,19.63,3.5,19.233,3.5,18.878V9.122c0-0.733,0.488-1.596,1.11-1.964l8.271-4.878c0.629-0.37,1.611-0.37,2.24,0l8.269,4.878c0.001,0,0.001,0,0.002,0.001c0.304,0.181,0.585,0.481,0.791,0.845c0.207,0.368,0.319,0.766,0.316,1.122v9.752c0,0.355-0.113,0.752-0.318,1.117c-0.208,0.368-0.49,0.668-0.794,0.846L15.12,25.72C14.806,25.905,14.403,25.998,14,25.998z M14.002,3c-0.226,0-0.452,0.047-0.612,0.142L5.119,8.019C4.795,8.21,4.5,8.736,4.5,9.122v9.756c0,0.184,0.069,0.413,0.189,0.627c0.12,0.211,0.276,0.385,0.429,0.474l8.27,4.88c0.319,0.188,0.903,0.189,1.225,0l8.269-4.879c0.153-0.09,0.31-0.263,0.43-0.476c0.12-0.213,0.189-0.442,0.189-0.626V9.122c0.001-0.185-0.067-0.413-0.188-0.627c-0.119-0.21-0.276-0.385-0.431-0.477l-8.268-4.877C14.454,3.047,14.229,3,14.002,3z"/><path d="M13.5,21.5L13.5,21.5c-4.118,0-7.468-3.364-7.468-7.5s3.35-7.5,7.466-7.5c2.638,0.005,5.106,1.427,6.446,3.712c0.067,0.115,0.095,0.268,0.062,0.396c-0.034,0.128-0.108,0.254-0.224,0.321l-3.015,1.754c-0.238,0.137-0.544,0.058-0.683-0.18c-0.55-0.94-1.517-1.503-2.588-1.504c-1.644,0-2.981,1.346-2.981,3s1.338,3,2.982,3c1.055-0.002,2.043-0.572,2.578-1.486c0.139-0.239,0.453-0.336,0.691-0.197l3.016,1.753c0.115,0.066,0.199,0.176,0.232,0.305c0.034,0.128,0.016,0.265-0.052,0.38C18.593,20.095,16.177,21.495,13.5,21.5z M13.497,7.5c-3.564,0-6.465,2.916-6.465,6.5s2.9,6.5,6.466,6.5V21v-0.5c2.152-0.004,4.111-1.052,5.333-2.827l-2.163-1.258c-0.765,0.996-1.932,1.582-3.169,1.585c-2.197,0-3.983-1.794-3.983-4s1.786-4,3.982-4c1.264,0.002,2.417,0.585,3.173,1.583l2.159-1.256C17.614,8.567,15.618,7.504,13.497,7.5z"/><path d="M18.5,15.5c-0.276,0-0.5-0.224-0.5-0.5v-2c0-0.276,0.224-0.5,0.5-0.5S19,12.724,19,13v2C19,15.276,18.776,15.5,18.5,15.5z"/><path d="M19.5 14.5h-2c-.276 0-.5-.224-.5-.5s.224-.5.5-.5h2c.276 0 .5.224.5.5S19.776 14.5 19.5 14.5zM22 15.5c-.276 0-.5-.224-.5-.5v-2c0-.276.224-.5.5-.5s.5.224.5.5v2C22.5 15.276 22.276 15.5 22 15.5z"/><path d="M23,14.5h-2c-0.276,0-0.5-0.224-0.5-0.5s0.224-0.5,0.5-0.5h2c0.276,0,0.5,0.224,0.5,0.5S23.276,14.5,23,14.5z"/></svg>