<svg xmlns="http://www.w3.org/2000/svg" enable-background="new 0 0 28 28" viewBox="0 0 28 28"><path fill="#FFA0C6" d="M6.125,4.749C6.318,3.442,7.409,2.457,8.73,2.405C13.809,2.206,25.626,1.815,25.5,2.5c-0.133,0.725-2.542,14.296-3.353,18.862c-0.165,0.927-0.792,1.701-1.663,2.057l-7.17,2.937c-0.928,0.38-1.988,0.225-2.768-0.405l-5.525-4.465c-0.756-0.611-1.133-1.576-0.991-2.538L6.125,4.749z"/><path d="M12.393,26c-0.064,0-0.13-0.013-0.191-0.038l-9.893-4.089c-0.221-0.091-0.347-0.327-0.299-0.562l0.989-4.861c0.048-0.233,0.253-0.4,0.49-0.4h4.946c0.155,0,0.301,0.072,0.396,0.195c0.095,0.123,0.128,0.282,0.088,0.432l-0.63,2.402l4.121,1.794l5.237-1.883l1.053-4.946H3.983c-0.153,0-0.298-0.07-0.393-0.191c-0.095-0.12-0.13-0.278-0.094-0.427l0.989-4.089c0.055-0.224,0.256-0.382,0.486-0.382H19.67l0.491-1.985L5.47,7.032c-0.001,0-0.001,0-0.002,0c-0.153,0-0.298-0.07-0.393-0.19c-0.096-0.121-0.13-0.279-0.093-0.429l0.989-4.032C6.026,2.157,6.227,2,6.457,2H25.5c0.148,0,0.289,0.066,0.384,0.18c0.096,0.114,0.135,0.265,0.108,0.411l-3.465,18.911c-0.03,0.165-0.143,0.304-0.297,0.37l-9.643,4.089C12.525,25.987,12.459,26,12.393,26z M3.072,21.106l9.317,3.852l9.202-3.902L24.9,3H6.85L6.105,6.029l14.693-0.062c0.001,0,0.001,0,0.002,0c0.153,0,0.298,0.07,0.394,0.191c0.095,0.121,0.129,0.28,0.092,0.429l-0.739,2.988c-0.056,0.223-0.256,0.38-0.485,0.38H5.366l-0.747,3.089h14.698c0.15,0,0.294,0.068,0.389,0.186s0.132,0.271,0.101,0.418l-1.239,5.822c-0.036,0.169-0.157,0.308-0.32,0.367l-5.686,2.044c-0.12,0.042-0.252,0.039-0.368-0.012l-4.696-2.044c-0.227-0.099-0.347-0.347-0.284-0.585l0.574-2.19h-3.89L3.072,21.106z"/></svg>