<svg xmlns="http://www.w3.org/2000/svg" enable-background="new 0 0 28 28" viewBox="0 0 28 28"><circle cx="15.594" cy="14.301" r="11.677" fill="#FFAB66"/><path d="M14,23.296c-5.126,0-9.296-4.171-9.296-9.298S8.874,4.7,14,4.7s9.296,4.171,9.296,9.298S19.125,23.296,14,23.296z M14,5.7c-4.575,0-8.296,3.723-8.296,8.298S9.425,22.296,14,22.296s8.296-3.723,8.296-8.298S18.574,5.7,14,5.7z"/><path d="M17.643 12.854c-1.379 0-2.5-1.121-2.5-2.5s1.122-2.5 2.5-2.5c1.378 0 2.5 1.121 2.5 2.5S19.021 12.854 17.643 12.854zM17.643 8.854c-.827 0-1.5.673-1.5 1.5s.673 1.5 1.5 1.5c.827 0 1.5-.673 1.5-1.5S18.469 8.854 17.643 8.854zM22.796 8.277c-1.696 0-3.077-1.381-3.077-3.077s1.38-3.077 3.077-3.077 3.077 1.381 3.077 3.077S24.492 8.277 22.796 8.277zM22.796 3.123c-1.145 0-2.077.932-2.077 2.077s.932 2.077 2.077 2.077 2.077-.932 2.077-2.077S23.941 3.123 22.796 3.123z"/><path d="M24.098 9.005c-.177 0-.348-.094-.439-.26-.153-.28-.318-.554-.494-.817-.153-.23-.091-.54.139-.693.23-.153.54-.092.693.139.192.289.373.586.54.892.133.243.043.547-.199.679C24.261 8.985 24.179 9.005 24.098 9.005zM14 26c-.276 0-.531-.224-.531-.5s.193-.5.469-.5c.676 0 1.293-.051 1.896-.152.269-.05.53.139.576.41.045.272-.138.53-.411.576C15.343 25.944 14.669 26 14 26zM11.962 25.819c-.029 0-.059-.003-.088-.008-.679-.121-1.352-.304-2-.541-.259-.096-.392-.383-.297-.642.096-.26.382-.39.642-.298.593.218 1.21.385 1.832.496.272.049.453.309.404.58C12.41 25.649 12.2 25.819 11.962 25.819zM17.839 25.343c-.206 0-.399-.128-.472-.334-.092-.26.045-.546.306-.638.593-.209 1.173-.474 1.726-.786.24-.136.545-.052.681.189.136.24.051.545-.189.682-.604.341-1.238.63-1.886.858C17.951 25.334 17.895 25.343 17.839 25.343zM8.246 24.458c-.085 0-.171-.021-.25-.067-.596-.345-1.167-.745-1.697-1.189-.211-.177-.239-.492-.062-.704.178-.212.493-.239.705-.062.486.407 1.009.773 1.556 1.09.239.138.321.444.182.683C8.587 24.368 8.419 24.458 8.246 24.458zM21.284 23.399c-.145 0-.289-.062-.387-.184-.175-.213-.144-.528.07-.703.49-.401.947-.847 1.36-1.325.179-.211.495-.233.705-.053.209.181.232.496.052.705-.45.522-.95 1.009-1.483 1.446C21.508 23.362 21.396 23.399 21.284 23.399zM5.214 21.918c-.142 0-.284-.061-.382-.177-.444-.526-.847-1.095-1.196-1.69-.14-.238-.06-.544.178-.685.238-.138.544-.061.684.179.321.547.69 1.068 1.098 1.55.178.211.152.526-.059.705C5.442 21.879 5.328 21.918 5.214 21.918zM23.869 20.404c-.087 0-.176-.022-.257-.071-.237-.143-.313-.449-.171-.686.326-.544.606-1.118.833-1.708.099-.257.388-.387.646-.287.258.099.387.389.288.646-.247.643-.553 1.27-.909 1.862C24.205 20.317 24.039 20.404 23.869 20.404zM3.217 18.504c-.203 0-.394-.124-.469-.326-.24-.646-.425-1.318-.55-1.997-.05-.272.13-.532.401-.583.275-.042.532.131.582.401.114.623.284 1.238.504 1.831.096.259-.036.547-.294.643C3.333 18.494 3.275 18.504 3.217 18.504zM25.289 16.709c-.031 0-.063-.003-.096-.009-.271-.053-.448-.315-.396-.586.12-.621.188-1.257.2-1.889.006-.273.229-.49.5-.49.003 0 .007 0 .01 0 .276.006.495.234.49.51-.014.689-.087 1.382-.219 2.059C25.733 16.543 25.523 16.709 25.289 16.709zM2.5 14.614c-.273 0-.497-.22-.5-.493L2 14c0-.651.053-1.306.157-1.945.044-.274.3-.465.574-.413.272.044.458.301.413.573C3.048 12.803 3 13.402 3 14l0 .107c.003.276-.217.503-.494.507C2.505 14.614 2.502 14.614 2.5 14.614zM25.367 12.754c-.243 0-.456-.177-.494-.424-.096-.626-.248-1.246-.451-1.845-.088-.262.052-.545.313-.634C25 9.766 25.282 9.903 25.37 10.165c.221.652.387 1.33.492 2.013.042.273-.145.528-.418.57C25.418 12.752 25.393 12.754 25.367 12.754zM3.139 10.71c-.055 0-.11-.009-.165-.028-.261-.091-.398-.376-.308-.637.228-.651.514-1.287.851-1.89.135-.241.439-.328.681-.192.241.135.327.439.192.681C4.082 9.195 3.82 9.777 3.611 10.375 3.539 10.581 3.346 10.71 3.139 10.71zM5.068 7.256c-.11 0-.222-.036-.315-.112C4.539 6.97 4.507 6.655 4.681 6.44 5.114 5.907 5.598 5.406 6.12 4.951 6.327 4.771 6.643 4.789 6.825 5c.181.208.16.523-.048.705-.479.417-.922.877-1.32 1.366C5.358 7.192 5.214 7.256 5.068 7.256zM8.052 4.656c-.169 0-.334-.086-.428-.24C7.481 4.18 7.556 3.872 7.792 3.729 8.38 3.372 9.005 3.063 9.65 2.812c.255-.103.547.027.647.284.1.257-.027.547-.284.647-.591.23-1.164.513-1.702.84C8.23 4.633 8.141 4.656 8.052 4.656zM17.625 3.583c-.052 0-.105-.008-.158-.025-.601-.2-1.222-.348-1.847-.439-.273-.041-.462-.295-.422-.567.04-.273.287-.457.567-.423.683.101 1.361.263 2.017.48.262.087.404.37.317.633C18.03 3.45 17.834 3.583 17.625 3.583zM11.737 3.223c-.233 0-.442-.164-.49-.402-.054-.271.122-.534.392-.588.67-.134 1.363-.211 2.058-.229.262.016.506.211.513.487C14.217 2.766 14 2.995 13.724 3.003c-.639.017-1.274.087-1.888.21C11.802 3.22 11.769 3.223 11.737 3.223zM20.339 4.92c-.096 0-.193-.027-.278-.085-.264-.178-.536-.344-.816-.499-.242-.134-.329-.438-.195-.68.134-.242.439-.328.68-.195.305.169.602.351.889.544.229.154.29.465.136.694C20.658 4.843 20.5 4.92 20.339 4.92zM11 18.5H8c-.276 0-.5-.224-.5-.5v-6c0-.276.224-.5.5-.5s.5.224.5.5v5.5H11c.276 0 .5.224.5.5S11.276 18.5 11 18.5zM13.75 18.5c-1.103 0-2-.897-2-2v-2.502c0-.276.224-.5.5-.5s.5.224.5.5V16.5c0 .552.449 1 1 1s1-.448 1-1V14c0-.276.224-.5.5-.5s.5.224.5.5v2.5C15.75 17.603 14.853 18.5 13.75 18.5zM20 18.5c-.276 0-.5-.224-.5-.5v-2.583c0-.506-.411-.917-.917-.917h-.167c-.505 0-.917.411-.917.917 0 .276-.224.5-.5.5s-.5-.224-.5-.5c0-1.057.86-1.917 1.917-1.917h.167c1.057 0 1.917.86 1.917 1.917V18C20.5 18.276 20.276 18.5 20 18.5z"/><path d="M20,18.5h-2.25c-0.689,0-1.25-0.561-1.25-1.25S17.061,16,17.75,16H20c0.276,0,0.5,0.224,0.5,0.5V18C20.5,18.276,20.276,18.5,20,18.5z M17.75,17c-0.138,0-0.25,0.112-0.25,0.25s0.112,0.25,0.25,0.25h1.75V17H17.75z"/></svg>