<svg xmlns="http://www.w3.org/2000/svg" enable-background="new 0 0 28 28" viewBox="0 0 28 28"><path fill="#FFE577" d="M24.043,7.784c2.751,1.867,5.011,13.139-1.081,13.777c-5.93,0.621-20.252,2.146-20.382-3.151S0.595,8.106,8.316,7.148C13.726,6.476,21.236,5.879,24.043,7.784z"/><path d="M23.842,21.5H4.158C2.968,21.5,2,20.54,2,19.359V8.641C2,7.46,2.968,6.5,4.158,6.5h19.684C25.032,6.5,26,7.46,26,8.641v10.719C26,20.54,25.032,21.5,23.842,21.5z M4.158,7.5C3.52,7.5,3,8.012,3,8.641v10.719C3,19.988,3.52,20.5,4.158,20.5h19.684C24.48,20.5,25,19.988,25,19.359V8.641C25,8.012,24.48,7.5,23.842,7.5H4.158z M19.527,18.328c-0.145,0-0.283-0.062-0.378-0.173l-3.317-3.828c-0.128-0.147-0.158-0.356-0.077-0.535c0.082-0.178,0.26-0.292,0.455-0.292h1.712v-3.22c0-0.276,0.224-0.5,0.5-0.5h2.212c0.276,0,0.5,0.224,0.5,0.5v3.22h1.711c0.195,0,0.373,0.114,0.455,0.292c0.081,0.179,0.051,0.388-0.077,0.535l-3.317,3.828C19.811,18.266,19.672,18.328,19.527,18.328z M17.305,14.5l2.223,2.564L21.75,14.5h-1.116c-0.276,0-0.5-0.224-0.5-0.5v-3.22h-1.212V14c0,0.276-0.224,0.5-0.5,0.5H17.305z M14.664,18.219h-2.212c-0.276,0-0.5-0.224-0.5-0.5v-2.853l-1.323,1.636c-0.189,0.234-0.588,0.234-0.777,0l-1.323-1.636v2.853c0,0.276-0.224,0.5-0.5,0.5H5.816c-0.276,0-0.5-0.224-0.5-0.5V10.28c0-0.276,0.224-0.5,0.5-0.5h2.212c0.151,0,0.294,0.068,0.389,0.186l1.823,2.255l1.823-2.255c0.095-0.117,0.237-0.186,0.389-0.186h2.212c0.276,0,0.5,0.224,0.5,0.5v7.438C15.164,17.995,14.94,18.219,14.664,18.219z M12.952,17.219h1.212V10.78H12.69l-2.062,2.55c-0.189,0.234-0.588,0.234-0.777,0L7.79,10.78H6.316v6.438h1.212v-3.766c0-0.212,0.134-0.4,0.333-0.472c0.199-0.068,0.423-0.008,0.556,0.157l1.823,2.254l1.823-2.254c0.133-0.165,0.356-0.224,0.556-0.157c0.199,0.071,0.333,0.26,0.333,0.472V17.219z"/></svg>