<svg xmlns="http://www.w3.org/2000/svg" enable-background="new 0 0 28 28" viewBox="0 0 28 28"><path fill="#DEFF8F" d="M4.525,13.15c3.785-0.946,16.951-1.095,19.115,1.935s-0.18,5.147-2.344,5.658C19.131,21.254,6.328,21.4,4.525,19.648C2.721,17.895,1.459,13.916,4.525,13.15z"/><path d="M8 21c-.24 0-.452-.173-.493-.418l-.64-3.84L5.73 20.64c-.124.428-.836.428-.96 0l-1.137-3.897-.64 3.84c-.045.273-.303.458-.575.411-.272-.045-.457-.303-.411-.575l1-6c.038-.23.23-.403.463-.417.242-.027.445.135.51.359l1.27 4.354 1.27-4.354c.065-.224.266-.385.51-.359.233.014.425.187.463.417l1 6c.045.272-.139.53-.411.575C8.054 20.998 8.027 21 8 21zM10.197 21c-.208 0-.402-.131-.473-.338l-1.197-3.5c-.089-.262.05-.546.312-.635.259-.09.545.05.635.311l1.197 3.5c.089.262-.05.546-.312.635C10.305 20.991 10.25 21 10.197 21z"/><path d="M8 22.5c-.276 0-.5-.224-.5-.5s.224-.5.5-.5c2.468 0 2.998-4.51 3.003-4.556.031-.273.288-.467.552-.441.274.03.472.278.442.553C11.972 17.277 11.353 22.5 8 22.5zM14.504 21H13c-.276 0-.5-.224-.5-.5S12.724 20 13 20h1.504c.549 0 .996-.447.996-.996s-.447-.996-.996-.996c-1.108 0-2.004-.896-2.004-1.996 0-1.116.896-2.012 1.996-2.012H16c.276 0 .5.224.5.5S16.276 15 16 15h-1.504c-.549 0-.996.447-.996.996 0 .564.447 1.012.996 1.012 1.108 0 2.004.896 2.004 1.996S15.604 21 14.504 21zM19.5 21c-1.402 0-2.5-1.537-2.5-3.5s1.098-3.5 2.5-3.5 2.5 1.537 2.5 3.5S20.902 21 19.5 21zM19.5 15c-.813 0-1.5 1.145-1.5 2.5s.687 2.5 1.5 2.5 1.5-1.145 1.5-2.5S20.313 15 19.5 15z"/><path d="M21.5 21c-.128 0-.256-.049-.354-.146l-1.391-1.391c-.195-.195-.195-.512 0-.707s.512-.195.707 0l1.391 1.391c.195.195.195.512 0 .707C21.756 20.951 21.628 21 21.5 21zM25.5 21H23c-.276 0-.5-.224-.5-.5v-6c0-.276.224-.5.5-.5s.5.224.5.5V20h2c.276 0 .5.224.5.5S25.776 21 25.5 21zM18.197 6.418c-.15 0-.303-.065-.407-.184-.013-.016-.034-.045-.054-.077-.287.048-.605-.185-.605-.492 0-.233.161-.448.388-.5.095-.021.204-.042.353-.045.138-.013.276.036.382.138.064.04.179.116.261.253.009.015.052.092.06.108.182.208.145.503-.063.684C18.422 6.381 18.31 6.418 18.197 6.418zM17.631 5.652h.01H17.631z"/><path d="M25.512,13.955c-0.153,0-0.305-0.067-0.405-0.195c-0.068-0.087-0.103-0.173-0.125-0.229l-0.138-0.124c-0.201-0.255-0.398-0.442-0.632-0.608c-0.035-0.023-0.095-0.057-0.16-0.094c-0.285-0.161-0.636-0.36-0.776-0.69c-0.058-0.123-0.067-0.268-0.018-0.396c0.069-0.179,0.227-0.309,0.417-0.325c0.104-0.009,0.225-0.047,0.328-0.075c0.073-0.02,0.138-0.034,0.198-0.045c-0.244-0.191-0.49-0.362-0.731-0.51c-0.11-0.069-0.232-0.118-0.352-0.169c-0.107-0.045-0.213-0.091-0.311-0.141c-0.134-0.042-0.319-0.104-0.445-0.286c-0.104-0.12-0.185-0.294-0.256-0.447l-0.056-0.118c-0.191-0.36-0.385-0.771-0.557-1.165c-0.042-0.09-0.083-0.191-0.124-0.292c-0.054-0.135-0.104-0.268-0.183-0.393c-0.619-1.002-1.295-1.643-2.411-2.285c-0.154-0.086-0.373-0.136-0.626-0.193l-0.503-0.037c-0.058-0.002-0.116-0.016-0.169-0.038c-0.14-0.058-0.248-0.151-0.326-0.22c-0.543-0.35-0.893-0.406-0.966-0.371c-0.03,0.075,0.054,0.22,0.243,0.451c0.045,0.056,0.085,0.106,0.117,0.149c0.163,0.208,0.294,0.376,0.385,0.567c0.043,0.104,0.066,0.184,0.087,0.266c0.01,0.037,0.019,0.076,0.034,0.115l0.076,0.212c0.075,0.212,0.151,0.431,0.25,0.621c0.059,0.111,0.124,0.23,0.201,0.333c0.062,0.052,0.217,0.188,0.261,0.438c0.023,0.131-0.006,0.267-0.083,0.376c-0.004,0.011-0.019,0.081-0.029,0.128c-0.017,0.079-0.035,0.158-0.06,0.232c-0.188,0.583-0.126,1.353,0.144,1.787c0.019,0.029,0.036,0.053,0.051,0.074c0.001-0.008,0.002-0.016,0.003-0.022c0.015-0.114,0.031-0.233,0.061-0.348c0.008-0.076,0.025-0.22,0.137-0.363c0.13-0.169,0.354-0.237,0.557-0.166c0.152,0.052,0.267,0.173,0.314,0.319l0.038,0.074c0.073,0.143,0.146,0.282,0.213,0.428c0.113,0.167,0.405,0.46,0.712,0.688c0.069,0.051,0.137,0.114,0.204,0.182c0.048,0.018,0.095,0.045,0.139,0.082c0.05,0.037,0.105,0.077,0.159,0.13c0.113,0.092,0.187,0.229,0.187,0.383c0,0.163-0.08,0.326-0.214,0.42c-0.134,0.093-0.305,0.125-0.458,0.069c-0.23-0.085-0.387-0.243-0.501-0.358c-0.036-0.036-0.071-0.074-0.109-0.103c-0.111-0.083-0.41-0.314-0.686-0.618c-0.082,0.099-0.193,0.186-0.346,0.245c-0.268,0.109-0.803,0.184-1.302-0.577c-0.43-0.691-0.531-1.771-0.252-2.637c0.015-0.045,0.023-0.088,0.032-0.131c0.009-0.041,0.018-0.085,0.03-0.131c0,0,0-0.001,0-0.001c-0.107-0.141-0.203-0.309-0.288-0.47c-0.121-0.233-0.216-0.496-0.306-0.751l-0.068-0.191c-0.027-0.067-0.048-0.144-0.067-0.221c-0.01-0.037-0.018-0.074-0.033-0.111c-0.032-0.065-0.127-0.188-0.211-0.294c-0.001-0.002-0.062-0.08-0.063-0.081L15.65,5.591c-0.215-0.266-0.664-0.816-0.397-1.448c0.12-0.291,0.337-0.495,0.626-0.588c0.574-0.186,1.263,0.132,1.742,0.428c0.061,0.038,0.122,0.088,0.183,0.141l-0.005,0.021l0.393,0.021c0.029,0.001,0.15,0.025,0.179,0.032c0.301,0.068,0.612,0.14,0.897,0.299c1.28,0.737,2.054,1.473,2.768,2.628c0.109,0.174,0.186,0.358,0.261,0.547c0.034,0.084,0.067,0.169,0.107,0.253c0.167,0.382,0.349,0.77,0.535,1.12L23.013,9.2c0.035,0.076,0.068,0.149,0.102,0.204c0.062,0.022,0.102,0.038,0.136,0.055c0.085,0.043,0.17,0.078,0.255,0.114c0.17,0.072,0.34,0.146,0.489,0.239c0.379,0.232,0.772,0.52,1.162,0.851c0.097,0.086,0.175,0.183,0.251,0.28c0.035,0.045,0.069,0.092,0.108,0.131c0.097,0.094,0.151,0.223,0.151,0.357c0,0.219-0.143,0.472-0.352,0.537c-0.116,0.036-0.232,0.071-0.348,0.1c-0.016,0.004-0.032,0.008-0.047,0.011c0.264,0.204,0.488,0.428,0.672,0.67l0.152,0.135c0.024,0.023,0.046,0.05,0.064,0.077c0.051,0.075,0.08,0.147,0.1,0.195c0.17,0.218,0.125,0.525-0.093,0.695C25.726,13.922,25.619,13.955,25.512,13.955z M23.14,9.441c0.005,0.008,0.01,0.014,0.015,0.02C23.15,9.454,23.145,9.448,23.14,9.441z"/></svg>