<?xml version="1.0" encoding="iso-8859-1"?>
<!-- Generator: Adobe Illustrator 23.0.5, SVG Export Plug-In . SVG Version: 6.00 Build 0)  -->
<svg version="1.1" xmlns="http://www.w3.org/2000/svg" xmlns:xlink="http://www.w3.org/1999/xlink" x="0px" y="0px"
	 viewBox="0 0 100 100" style="enable-background:new 0 0 100 100;" xml:space="preserve">
<g id="Bauble">
	<g>
		<path style="fill:#FFFFFF;" d="M23.036,58.975c-4.355,11.373-0.166,25.386,9.627,32.624s24.31,7.175,34.13-0.027
			s14.249-20.915,10.643-32.546c-2.766-8.921-10.051-16.145-18.75-19.374c-4.574-1.698-8.616-2.259-13.228-0.623
			c-4.576,1.623-8.94,3.944-12.722,7.002C28.492,49.461,24.998,53.852,23.036,58.975z"/>
		<path style="fill:#E84C3D;" d="M75.309,81.397c-16.793-1.176-33.703-0.791-50.41,1.144c-3.869-7.162-4.778-15.959-1.86-23.57
			c0.631-1.646,1.422-3.228,2.352-4.714c16.461,1.112,33.04,0.727,49.416-1.154c1.101,1.86,1.988,3.848,2.63,5.922
			C79.713,66.378,78.783,74.556,75.309,81.397z"/>
		<path style="fill:#E84C3D;" d="M75.508,80.991c-0.066,0.141-0.132,0.273-0.197,0.404c-0.066,0-0.132-0.009-0.197-0.009
			L75.508,80.991z"/>
		<path style="fill:none;stroke:#000000;stroke-width:2;stroke-linecap:round;stroke-linejoin:round;stroke-miterlimit:10;" d="
			M23.036,58.975c-4.355,11.373-0.166,25.386,9.627,32.624s24.31,7.175,34.13-0.027s14.249-20.915,10.643-32.546
			c-2.766-8.921-10.051-16.145-18.75-19.374c-4.574-1.698-8.616-2.259-13.228-0.623c-4.576,1.623-8.94,3.944-12.722,7.002
			C28.492,49.461,24.998,53.852,23.036,58.975z"/>
		<path style="fill:none;stroke:#000000;stroke-width:2;stroke-linecap:round;stroke-linejoin:round;stroke-miterlimit:10;" d="
			M75.309,81.397c-16.793-1.176-33.703-0.791-50.41,1.144c-3.869-7.162-4.778-15.959-1.86-23.57
			c0.631-1.646,1.422-3.228,2.352-4.714c16.461,1.112,33.04,0.727,49.416-1.154c1.101,1.86,1.988,3.848,2.63,5.922
			C79.713,66.378,78.783,74.556,75.309,81.397z"/>
		<path style="fill:none;stroke:#000000;stroke-width:2;stroke-linecap:round;stroke-linejoin:round;stroke-miterlimit:10;" d="
			M49.576,32.474C48.56,22.685,48.075,12.841,48.125,3"/>
		<path style="fill:none;stroke:#000000;stroke-width:2;stroke-linecap:round;stroke-linejoin:round;stroke-miterlimit:10;" d="
			M39.32,17.884c-1.578-0.263-3.264-0.22-4.691,0.504c-1.427,0.724-2.523,2.239-2.407,3.834c0.16,2.214,2.477,3.694,4.677,3.994
			c2.2,0.3,4.433-0.202,6.651-0.086c3.075,0.161,4.702,1.371,5.716,1.735C49.063,27.569,49.007,19.496,39.32,17.884z"/>
		<path style="fill:none;stroke:#000000;stroke-width:2;stroke-linecap:round;stroke-linejoin:round;stroke-miterlimit:10;" d="
			M59.21,17.884c1.578-0.263,3.264-0.22,4.691,0.504c1.427,0.724,2.523,2.239,2.407,3.834c-0.16,2.214-2.477,3.694-4.677,3.994
			c-2.2,0.3-4.433-0.202-6.651-0.086c-3.075,0.161-4.702,1.371-5.716,1.735C49.467,27.569,49.523,19.496,59.21,17.884z"/>
		<path style="fill:none;stroke:#000000;stroke-width:2;stroke-linecap:round;stroke-linejoin:round;stroke-miterlimit:10;" d="
			M35.351,69.914c0.968,2.002,1.935,4.004,2.903,6.006"/>
		<path style="fill:none;stroke:#000000;stroke-width:2;stroke-linecap:round;stroke-linejoin:round;stroke-miterlimit:10;" d="
			M33.299,72.478c2.404,0.589,4.881,0.809,7.344,0.651"/>
		<path style="fill:none;stroke:#000000;stroke-width:2;stroke-linecap:round;stroke-linejoin:round;stroke-miterlimit:10;" d="
			M34.33,75.734c1.569-1.807,3.139-3.614,4.708-5.421"/>
		<path style="fill:none;stroke:#000000;stroke-width:2;stroke-linecap:round;stroke-linejoin:round;stroke-miterlimit:10;" d="
			M29.51,59.913c0.968,2.002,1.935,4.004,2.903,6.006"/>
		<path style="fill:none;stroke:#000000;stroke-width:2;stroke-linecap:round;stroke-linejoin:round;stroke-miterlimit:10;" d="
			M27.458,62.477c2.404,0.589,4.881,0.809,7.344,0.651"/>
		<path style="fill:none;stroke:#000000;stroke-width:2;stroke-linecap:round;stroke-linejoin:round;stroke-miterlimit:10;" d="
			M28.49,65.734c1.569-1.807,3.139-3.614,4.708-5.421"/>
		<path style="fill:none;stroke:#000000;stroke-width:2;stroke-linecap:round;stroke-linejoin:round;stroke-miterlimit:10;" d="
			M50.439,60.982c0.968,2.002,1.935,4.004,2.903,6.006"/>
		<path style="fill:none;stroke:#000000;stroke-width:2;stroke-linecap:round;stroke-linejoin:round;stroke-miterlimit:10;" d="
			M48.387,63.546c2.404,0.589,4.881,0.809,7.344,0.651"/>
		<path style="fill:none;stroke:#000000;stroke-width:2;stroke-linecap:round;stroke-linejoin:round;stroke-miterlimit:10;" d="
			M49.418,66.802c1.569-1.807,3.139-3.614,4.708-5.421"/>
		<path style="fill:none;stroke:#000000;stroke-width:2;stroke-linecap:round;stroke-linejoin:round;stroke-miterlimit:10;" d="
			M60.966,70.176c0.968,2.002,1.935,4.004,2.903,6.006"/>
		<path style="fill:none;stroke:#000000;stroke-width:2;stroke-linecap:round;stroke-linejoin:round;stroke-miterlimit:10;" d="
			M58.914,72.74c2.404,0.589,4.881,0.809,7.344,0.651"/>
		<path style="fill:none;stroke:#000000;stroke-width:2;stroke-linecap:round;stroke-linejoin:round;stroke-miterlimit:10;" d="
			M59.946,75.996c1.569-1.807,3.139-3.614,4.708-5.421"/>
		<path style="fill:none;stroke:#000000;stroke-width:2;stroke-linecap:round;stroke-linejoin:round;stroke-miterlimit:10;" d="
			M67.598,59.114c0.968,2.002,1.935,4.004,2.903,6.006"/>
		<path style="fill:none;stroke:#000000;stroke-width:2;stroke-linecap:round;stroke-linejoin:round;stroke-miterlimit:10;" d="
			M65.546,61.678c2.404,0.589,4.881,0.809,7.344,0.651"/>
		<path style="fill:none;stroke:#000000;stroke-width:2;stroke-linecap:round;stroke-linejoin:round;stroke-miterlimit:10;" d="
			M66.578,64.935c1.569-1.807,3.139-3.614,4.708-5.421"/>
		
			<line style="fill:none;stroke:#000000;stroke-linecap:round;stroke-linejoin:round;stroke-miterlimit:10;" x1="31.253" y1="47.302" x2="28.772" y2="49.783"/>
		<polyline style="fill:none;stroke:#000000;stroke-linecap:round;stroke-linejoin:round;stroke-miterlimit:10;" points="
			29.261,54.493 44.263,39.481 44.272,39.471 		"/>
		
			<line style="fill:none;stroke:#000000;stroke-linecap:round;stroke-linejoin:round;stroke-miterlimit:10;" x1="50.899" y1="38.052" x2="34.233" y2="54.718"/>
		
			<line style="fill:none;stroke:#000000;stroke-linecap:round;stroke-linejoin:round;stroke-miterlimit:10;" x1="55.487" y1="38.654" x2="39.3" y2="54.84"/>
		<polyline style="fill:none;stroke:#000000;stroke-linecap:round;stroke-linejoin:round;stroke-miterlimit:10;" points="
			44.47,54.869 44.479,54.869 59.416,39.932 		"/>
		
			<line style="fill:none;stroke:#000000;stroke-linecap:round;stroke-linejoin:round;stroke-miterlimit:10;" x1="62.931" y1="41.605" x2="49.734" y2="54.803"/>
		
			<line style="fill:none;stroke:#000000;stroke-linecap:round;stroke-linejoin:round;stroke-miterlimit:10;" x1="23.94" y1="80.596" x2="23.931" y2="80.606"/>
		
			<line style="fill:none;stroke:#000000;stroke-linecap:round;stroke-linejoin:round;stroke-miterlimit:10;" x1="66.109" y1="43.617" x2="55.092" y2="54.634"/>
		
			<line style="fill:none;stroke:#000000;stroke-linecap:round;stroke-linejoin:round;stroke-miterlimit:10;" x1="27.456" y1="82.27" x2="25.736" y2="83.99"/>
		
			<line style="fill:none;stroke:#000000;stroke-linecap:round;stroke-linejoin:round;stroke-miterlimit:10;" x1="33.218" y1="81.715" x2="27.898" y2="87.035"/>
		
			<line style="fill:none;stroke:#000000;stroke-linecap:round;stroke-linejoin:round;stroke-miterlimit:10;" x1="68.985" y1="45.948" x2="60.581" y2="54.352"/>
		
			<line style="fill:none;stroke:#000000;stroke-linecap:round;stroke-linejoin:round;stroke-miterlimit:10;" x1="38.83" y1="81.292" x2="30.407" y2="89.714"/>
		
			<line style="fill:none;stroke:#000000;stroke-linecap:round;stroke-linejoin:round;stroke-miterlimit:10;" x1="71.551" y1="48.571" x2="66.174" y2="53.947"/>
		
			<line style="fill:none;stroke:#000000;stroke-linecap:round;stroke-linejoin:round;stroke-miterlimit:10;" x1="44.329" y1="80.991" x2="33.284" y2="92.036"/>
		
			<line style="fill:none;stroke:#000000;stroke-linecap:round;stroke-linejoin:round;stroke-miterlimit:10;" x1="73.807" y1="51.513" x2="71.908" y2="53.412"/>
		
			<line style="fill:none;stroke:#000000;stroke-linecap:round;stroke-linejoin:round;stroke-miterlimit:10;" x1="49.706" y1="80.813" x2="36.546" y2="93.973"/>
		
			<line style="fill:none;stroke:#000000;stroke-linecap:round;stroke-linejoin:round;stroke-miterlimit:10;" x1="54.97" y1="80.737" x2="40.221" y2="95.486"/>
		<polyline style="fill:none;stroke:#000000;stroke-linecap:round;stroke-linejoin:round;stroke-miterlimit:10;" points="
			44.376,96.529 60.149,80.756 60.158,80.756 		"/>
		
			<line style="fill:none;stroke:#000000;stroke-linecap:round;stroke-linejoin:round;stroke-miterlimit:10;" x1="65.225" y1="80.878" x2="49.113" y2="96.99"/>
		
			<line style="fill:none;stroke:#000000;stroke-linecap:round;stroke-linejoin:round;stroke-miterlimit:10;" x1="70.207" y1="81.085" x2="54.716" y2="96.576"/>
		<polyline style="fill:none;stroke:#000000;stroke-linecap:round;stroke-linejoin:round;stroke-miterlimit:10;" points="
			62.245,94.255 75.114,81.386 75.509,80.991 75.518,80.982 		"/>
		<path style="fill:#FFFFFF;" d="M55.148,43.599c-0.579-2.568-1.158-5.136-1.737-7.704c-0.185-0.821-0.396-1.69-0.996-2.28
			c-0.885-0.87-2.286-0.845-3.525-0.763c-1.077,0.071-2.27,0.197-2.988,1.004c-0.631,0.709-0.703,1.739-0.744,2.687
			c-0.105,2.43-0.209,4.861-0.314,7.291c0.995-0.818,2.067-1.408,3.061-2.225c0.845,0.823,1.403,1.871,1.949,2.916
			c0.645-0.941,1.285-1.868,1.93-2.81C52.821,42.49,54.111,42.824,55.148,43.599z"/>
		<path style="fill:none;stroke:#000000;stroke-width:2;stroke-linecap:round;stroke-linejoin:round;stroke-miterlimit:10;" d="
			M55.148,43.599c-0.579-2.568-1.158-5.136-1.737-7.704c-0.185-0.821-0.396-1.69-0.996-2.28c-0.885-0.87-2.286-0.845-3.525-0.763
			c-1.077,0.071-2.27,0.197-2.988,1.004c-0.631,0.709-0.703,1.739-0.744,2.687c-0.105,2.43-0.209,4.861-0.314,7.291
			c0.995-0.818,2.067-1.408,3.061-2.225c0.845,0.823,1.403,1.871,1.949,2.916c0.645-0.941,1.285-1.868,1.93-2.81
			C52.821,42.49,54.111,42.824,55.148,43.599z"/>
		<path style="fill:none;stroke:#000000;stroke-linecap:round;stroke-linejoin:round;stroke-miterlimit:10;" d="M36.786,58.055
			c0.212-0.031,0.424-0.062,0.636-0.093"/>
		<path style="fill:none;stroke:#000000;stroke-linecap:round;stroke-linejoin:round;stroke-miterlimit:10;" d="M39.11,57.964
			c4.486-0.269,8.972-0.537,13.458-0.806"/>
		<path style="fill:none;stroke:#000000;stroke-linecap:round;stroke-linejoin:round;stroke-miterlimit:10;" d="M37.283,59.497
			c2.714-0.09,5.427-0.18,8.141-0.27"/>
		<path style="fill:none;stroke:#000000;stroke-linecap:round;stroke-linejoin:round;stroke-miterlimit:10;" d="M46.653,78.544
			c0.303,0.015,0.606,0.03,0.909,0.046"/>
		<path style="fill:none;stroke:#000000;stroke-linecap:round;stroke-linejoin:round;stroke-miterlimit:10;" d="M49.013,78.624
			c3.153-0.202,6.307-0.405,9.46-0.607"/>
		<path style="fill:none;stroke:#000000;stroke-linecap:round;stroke-linejoin:round;stroke-miterlimit:10;" d="M42.786,77.444
			c4.077-0.249,8.154-0.497,12.231-0.746"/>
		<path style="fill:none;stroke:#000000;stroke-linecap:round;stroke-linejoin:round;stroke-miterlimit:10;" d="M74.007,77.68
			c0.109-0.256,0.218-0.513,0.327-0.769"/>
		<path style="fill:none;stroke:#000000;stroke-linecap:round;stroke-linejoin:round;stroke-miterlimit:10;" d="M74.943,75.43
			c1.07-3.602,1.416-7.418,1.012-11.153"/>
		<path style="fill:none;stroke:#000000;stroke-linecap:round;stroke-linejoin:round;stroke-miterlimit:10;" d="M74.031,67.652
			c0.497,3.109,0.148,6.35-1,9.282"/>
		<path style="fill:none;stroke:#000000;stroke-linecap:round;stroke-linejoin:round;stroke-miterlimit:10;" d="M25.458,64.731
			c-1.443,4.805-0.507,10.264,2.455,14.313"/>
	</g>
</g>
<g id="Layer_1">
</g>
</svg>
