<?xml version="1.0" encoding="iso-8859-1"?>
<!-- Generator: Adobe Illustrator 23.0.5, SVG Export Plug-In . SVG Version: 6.00 Build 0)  -->
<svg version="1.1" xmlns="http://www.w3.org/2000/svg" xmlns:xlink="http://www.w3.org/1999/xlink" x="0px" y="0px"
	 viewBox="0 0 100 100" style="enable-background:new 0 0 100 100;" xml:space="preserve">
<g id="Calendar">
	<g>
		<path style="fill:#E84C3D;" d="M8.154,89.109c-2.512-0.019-4.616-1.949-4.811-4.454C2.651,75.754,3.14,66.776,3.631,57.848
			L5.48,24.223c0.132-2.407,2.007-4.363,4.409-4.579c24.711-2.218,49.905-3.245,74.7-2.303c2.744,0.104,4.856,2.488,4.633,5.225
			c-1.688,20.702-1.185,41.474-1.19,62.264c-0.001,2.695-2.205,4.871-4.9,4.851L8.154,89.109z"/>
		<path style="fill:#FFFFFF;" d="M11.265,80.999c-0.349-7.465,0.075-15.197,0.487-22.705l1.694-30.797
			c18.348-1.574,35.949-2.372,52.356-2.372c5.077,0,10.124,0.076,15.052,0.226c-1.128,16.026-1.056,32.157-0.988,47.79
			c0.011,2.793,0.024,5.587,0.03,8.381L11.265,80.999z"/>
		<path style="fill:#FFFFFF;" d="M92.36,17.346c2.742,0.105,4.845,2.486,4.624,5.217c-1.685,20.706-1.185,41.481-1.185,62.268
			c0,2.696-2.208,4.868-4.903,4.845l-7.006-0.058c2.335-0.337,4.148-2.347,4.148-4.787c0-20.787-0.5-41.562,1.185-62.268
			c0.221-2.731-1.894-5.112-4.636-5.217H92.36z"/>
		<path style="fill:#E84C3D;" d="M34.29,36.609c-0.703,1.529-0.349,3.469,0.819,4.68c1.168,1.211,3.065,1.64,4.654,1.087
			c1.589-0.553,2.801-2.041,3.063-3.703c0.201-1.277-0.154-2.655-1.036-3.601C39.758,32.891,35.473,34.035,34.29,36.609z"/>
		<path style="fill:#E84C3D;" d="M64.647,36.609c-0.703,1.529-0.349,3.469,0.819,4.68c1.168,1.211,3.065,1.64,4.654,1.087
			c1.589-0.553,2.801-2.041,3.063-3.703c0.201-1.277-0.154-2.655-1.036-3.601C70.115,32.891,65.83,34.035,64.647,36.609z"/>
		<path style="fill:#E84C3D;" d="M19.111,51.665c-0.703,1.529-0.349,3.469,0.819,4.68c1.168,1.211,3.065,1.64,4.654,1.087
			c1.589-0.553,2.801-2.041,3.063-3.703c0.201-1.277-0.154-2.655-1.036-3.601C24.579,47.948,20.294,49.092,19.111,51.665z"/>
		<path style="fill:#E84C3D;" d="M49.468,51.665c-0.703,1.529-0.349,3.469,0.819,4.68c1.168,1.211,3.065,1.64,4.654,1.087
			c1.589-0.553,2.801-2.041,3.063-3.703c0.201-1.277-0.154-2.655-1.036-3.601C54.937,47.948,50.651,49.092,49.468,51.665z"/>
		<path style="fill:#E84C3D;" d="M34.29,66.722c-0.703,1.529-0.349,3.469,0.819,4.68c1.168,1.211,3.065,1.64,4.654,1.087
			c1.589-0.553,2.801-2.041,3.063-3.703c0.201-1.277-0.154-2.655-1.036-3.601C39.758,63.004,35.473,64.148,34.29,66.722z"/>
		<path style="fill:#E84C3D;" d="M49.468,36.609c-0.703,1.529-0.349,3.469,0.819,4.68c1.168,1.211,3.065,1.64,4.654,1.087
			c1.589-0.553,2.801-2.041,3.063-3.703c0.201-1.277-0.154-2.655-1.036-3.601C54.937,32.891,50.651,34.035,49.468,36.609z"/>
		<path style="fill:#E84C3D;" d="M49.468,66.722c-0.703,1.529-0.349,3.469,0.819,4.68c1.168,1.211,3.065,1.64,4.654,1.087
			c1.589-0.553,2.801-2.041,3.063-3.703c0.201-1.277-0.154-2.655-1.036-3.601C54.937,63.004,50.651,64.148,49.468,66.722z"/>
		<path style="fill:#E84C3D;" d="M19.111,66.722c-0.703,1.529-0.349,3.469,0.819,4.68c1.168,1.211,3.065,1.64,4.654,1.087
			c1.589-0.553,2.801-2.041,3.063-3.703c0.201-1.277-0.154-2.655-1.036-3.601C24.579,63.004,20.294,64.148,19.111,66.722z"/>
		<path style="fill:#E84C3D;" d="M34.29,51.741c-0.703,1.529-0.349,3.469,0.819,4.68c1.168,1.211,3.065,1.64,4.654,1.087
			c1.589-0.553,2.801-2.041,3.063-3.703c0.201-1.277-0.154-2.655-1.036-3.601C39.758,48.023,35.473,49.168,34.29,51.741z"/>
		<path style="fill:#E84C3D;" d="M64.647,51.741c-0.703,1.529-0.349,3.469,0.819,4.68c1.168,1.211,3.065,1.64,4.654,1.087
			c1.589-0.553,2.801-2.041,3.063-3.703c0.201-1.277-0.154-2.655-1.036-3.601C70.115,48.023,65.83,49.168,64.647,51.741z"/>
		<path style="fill:none;stroke:#000000;stroke-width:2;stroke-linecap:round;stroke-linejoin:round;stroke-miterlimit:10;" d="
			M8.154,89.109c-2.512-0.019-4.616-1.949-4.811-4.454C2.651,75.754,3.14,66.776,3.631,57.848L5.48,24.223
			c0.132-2.407,2.007-4.363,4.409-4.579c24.711-2.218,49.905-3.245,74.7-2.303c2.744,0.104,4.856,2.488,4.633,5.225
			c-1.688,20.702-1.185,41.474-1.19,62.264c-0.001,2.695-2.205,4.871-4.9,4.851L8.154,89.109z"/>
		<path style="fill:none;stroke:#000000;stroke-width:2;stroke-linecap:round;stroke-linejoin:round;stroke-miterlimit:10;" d="
			M11.265,80.999c-0.349-7.465,0.075-15.197,0.487-22.705l1.694-30.797c18.348-1.574,35.949-2.372,52.356-2.372
			c5.077,0,10.124,0.076,15.052,0.226c-1.128,16.026-1.056,32.157-0.988,47.79c0.011,2.793,0.024,5.587,0.03,8.381L11.265,80.999z"
			/>
		<path style="fill:none;stroke:#000000;stroke-width:2;stroke-linecap:round;stroke-linejoin:round;stroke-miterlimit:10;" d="
			M92.36,17.346c2.742,0.105,4.845,2.486,4.624,5.217c-1.685,20.706-1.185,41.481-1.185,62.268c0,2.696-2.208,4.868-4.903,4.845
			l-7.006-0.058c2.335-0.337,4.148-2.347,4.148-4.787c0-20.787-0.5-41.562,1.185-62.268c0.221-2.731-1.894-5.112-4.636-5.217H92.36z
			"/>
		<path style="fill:none;stroke:#000000;stroke-width:2;stroke-linecap:round;stroke-linejoin:round;stroke-miterlimit:10;" d="
			M17.865,23.235c-1.187,0.676-2.775-0.128-3.43-1.327s-0.63-2.638-0.589-4.004c0.042-1.396,0.093-2.834,0.665-4.108
			s1.801-2.358,3.198-2.321c1.45,0.039,2.645,1.277,3.106,2.652c0.461,1.375,0.345,2.868,0.224,4.313"/>
		<path style="fill:none;stroke:#000000;stroke-width:2;stroke-linecap:round;stroke-linejoin:round;stroke-miterlimit:10;" d="
			M75.127,22.079c-1.187,0.676-2.775-0.128-3.43-1.327c-0.654-1.199-0.63-2.638-0.589-4.004c0.042-1.396,0.093-2.834,0.665-4.108
			c0.572-1.274,1.801-2.358,3.198-2.321c1.45,0.039,2.645,1.277,3.106,2.652c0.461,1.375,0.345,2.868,0.224,4.313"/>
		<path style="fill:#E84C3D;" d="M34.29,36.609c-0.703,1.529-0.349,3.469,0.819,4.68c1.168,1.211,3.065,1.64,4.654,1.087
			c1.589-0.553,2.801-2.041,3.063-3.703c0.201-1.277-0.154-2.655-1.036-3.601C39.758,32.891,35.473,34.035,34.29,36.609z"/>
		<path style="fill:#E84C3D;" d="M64.647,36.609c-0.703,1.529-0.349,3.469,0.819,4.68c1.168,1.211,3.065,1.64,4.654,1.087
			c1.589-0.553,2.801-2.041,3.063-3.703c0.201-1.277-0.154-2.655-1.036-3.601C70.115,32.891,65.83,34.035,64.647,36.609z"/>
		<path style="fill:#E84C3D;" d="M19.111,51.665c-0.703,1.529-0.349,3.469,0.819,4.68c1.168,1.211,3.065,1.64,4.654,1.087
			c1.589-0.553,2.801-2.041,3.063-3.703c0.201-1.277-0.154-2.655-1.036-3.601C24.579,47.948,20.294,49.092,19.111,51.665z"/>
		<path style="fill:#E84C3D;" d="M49.468,51.665c-0.703,1.529-0.349,3.469,0.819,4.68c1.168,1.211,3.065,1.64,4.654,1.087
			c1.589-0.553,2.801-2.041,3.063-3.703c0.201-1.277-0.154-2.655-1.036-3.601C54.937,47.948,50.651,49.092,49.468,51.665z"/>
		<path style="fill:#E84C3D;" d="M34.29,66.722c-0.703,1.529-0.349,3.469,0.819,4.68c1.168,1.211,3.065,1.64,4.654,1.087
			c1.589-0.553,2.801-2.041,3.063-3.703c0.201-1.277-0.154-2.655-1.036-3.601C39.758,63.004,35.473,64.148,34.29,66.722z"/>
		<path style="fill:#FFFFFF;" d="M49.468,36.609c-0.703,1.529-0.349,3.469,0.819,4.68c1.168,1.211,3.065,1.64,4.654,1.087
			c1.589-0.553,2.801-2.041,3.063-3.703c0.201-1.277-0.154-2.655-1.036-3.601C54.937,32.891,50.651,34.035,49.468,36.609z"/>
		<path style="fill:#FFFFFF;" d="M49.468,66.722c-0.703,1.529-0.349,3.469,0.819,4.68c1.168,1.211,3.065,1.64,4.654,1.087
			c1.589-0.553,2.801-2.041,3.063-3.703c0.201-1.277-0.154-2.655-1.036-3.601C54.937,63.004,50.651,64.148,49.468,66.722z"/>
		<path style="fill:#FFFFFF;" d="M19.111,66.722c-0.703,1.529-0.349,3.469,0.819,4.68c1.168,1.211,3.065,1.64,4.654,1.087
			c1.589-0.553,2.801-2.041,3.063-3.703c0.201-1.277-0.154-2.655-1.036-3.601C24.579,63.004,20.294,64.148,19.111,66.722z"/>
		<path style="fill:#FFFFFF;" d="M34.29,51.741c-0.703,1.529-0.349,3.469,0.819,4.68c1.168,1.211,3.065,1.64,4.654,1.087
			c1.589-0.553,2.801-2.041,3.063-3.703c0.201-1.277-0.154-2.655-1.036-3.601C39.758,48.023,35.473,49.168,34.29,51.741z"/>
		<path style="fill:#FFFFFF;" d="M64.647,51.741c-0.703,1.529-0.349,3.469,0.819,4.68c1.168,1.211,3.065,1.64,4.654,1.087
			c1.589-0.553,2.801-2.041,3.063-3.703c0.201-1.277-0.154-2.655-1.036-3.601C70.115,48.023,65.83,49.168,64.647,51.741z"/>
		<path style="fill:none;stroke:#000000;stroke-width:2;stroke-linecap:round;stroke-linejoin:round;stroke-miterlimit:10;" d="
			M34.29,36.609c-0.703,1.529-0.349,3.469,0.819,4.68c1.168,1.211,3.065,1.64,4.654,1.087c1.589-0.553,2.801-2.041,3.063-3.703
			c0.201-1.277-0.154-2.655-1.036-3.601C39.758,32.891,35.473,34.035,34.29,36.609z"/>
		<path style="fill:none;stroke:#000000;stroke-width:2;stroke-linecap:round;stroke-linejoin:round;stroke-miterlimit:10;" d="
			M64.647,36.609c-0.703,1.529-0.349,3.469,0.819,4.68c1.168,1.211,3.065,1.64,4.654,1.087c1.589-0.553,2.801-2.041,3.063-3.703
			c0.201-1.277-0.154-2.655-1.036-3.601C70.115,32.891,65.83,34.035,64.647,36.609z"/>
		<path style="fill:none;stroke:#000000;stroke-width:2;stroke-linecap:round;stroke-linejoin:round;stroke-miterlimit:10;" d="
			M19.111,51.665c-0.703,1.529-0.349,3.469,0.819,4.68c1.168,1.211,3.065,1.64,4.654,1.087c1.589-0.553,2.801-2.041,3.063-3.703
			c0.201-1.277-0.154-2.655-1.036-3.601C24.579,47.948,20.294,49.092,19.111,51.665z"/>
		<path style="fill:none;stroke:#000000;stroke-width:2;stroke-linecap:round;stroke-linejoin:round;stroke-miterlimit:10;" d="
			M49.468,51.665c-0.703,1.529-0.349,3.469,0.819,4.68c1.168,1.211,3.065,1.64,4.654,1.087c1.589-0.553,2.801-2.041,3.063-3.703
			c0.201-1.277-0.154-2.655-1.036-3.601C54.937,47.948,50.651,49.092,49.468,51.665z"/>
		<path style="fill:none;stroke:#000000;stroke-width:2;stroke-linecap:round;stroke-linejoin:round;stroke-miterlimit:10;" d="
			M34.29,66.722c-0.703,1.529-0.349,3.469,0.819,4.68c1.168,1.211,3.065,1.64,4.654,1.087c1.589-0.553,2.801-2.041,3.063-3.703
			c0.201-1.277-0.154-2.655-1.036-3.601C39.758,63.004,35.473,64.148,34.29,66.722z"/>
		
			<line style="fill:none;stroke:#000000;stroke-linecap:round;stroke-linejoin:round;stroke-miterlimit:10;" x1="87.644" y1="17.35" x2="86.93" y2="18.065"/>
		
			<line style="fill:none;stroke:#000000;stroke-linecap:round;stroke-linejoin:round;stroke-miterlimit:10;" x1="92.795" y1="17.388" x2="89.11" y2="21.073"/>
		
			<line style="fill:none;stroke:#000000;stroke-linecap:round;stroke-linejoin:round;stroke-miterlimit:10;" x1="96.057" y1="19.315" x2="88.932" y2="26.44"/>
		
			<line style="fill:none;stroke:#000000;stroke-linecap:round;stroke-linejoin:round;stroke-miterlimit:10;" x1="96.903" y1="23.676" x2="88.603" y2="31.977"/>
		
			<line style="fill:none;stroke:#000000;stroke-linecap:round;stroke-linejoin:round;stroke-miterlimit:10;" x1="96.518" y1="29.251" x2="88.358" y2="37.41"/>
		
			<line style="fill:none;stroke:#000000;stroke-linecap:round;stroke-linejoin:round;stroke-miterlimit:10;" x1="96.226" y1="34.74" x2="88.189" y2="42.777"/>
		
			<line style="fill:none;stroke:#000000;stroke-linecap:round;stroke-linejoin:round;stroke-miterlimit:10;" x1="96.019" y1="40.145" x2="88.076" y2="48.088"/>
		
			<line style="fill:none;stroke:#000000;stroke-linecap:round;stroke-linejoin:round;stroke-miterlimit:10;" x1="95.878" y1="45.475" x2="88.011" y2="53.343"/>
		
			<line style="fill:none;stroke:#000000;stroke-linecap:round;stroke-linejoin:round;stroke-miterlimit:10;" x1="95.794" y1="50.767" x2="87.982" y2="58.579"/>
		
			<line style="fill:none;stroke:#000000;stroke-linecap:round;stroke-linejoin:round;stroke-miterlimit:10;" x1="95.737" y1="56.012" x2="87.973" y2="63.777"/>
		
			<line style="fill:none;stroke:#000000;stroke-linecap:round;stroke-linejoin:round;stroke-miterlimit:10;" x1="95.728" y1="61.211" x2="87.992" y2="68.947"/>
		
			<line style="fill:none;stroke:#000000;stroke-linecap:round;stroke-linejoin:round;stroke-miterlimit:10;" x1="95.737" y1="66.409" x2="88.001" y2="74.145"/>
		
			<line style="fill:none;stroke:#000000;stroke-linecap:round;stroke-linejoin:round;stroke-miterlimit:10;" x1="95.756" y1="71.579" x2="88.029" y2="79.306"/>
		
			<line style="fill:none;stroke:#000000;stroke-linecap:round;stroke-linejoin:round;stroke-miterlimit:10;" x1="95.784" y1="76.749" x2="88.039" y2="84.494"/>
		
			<line style="fill:none;stroke:#000000;stroke-linecap:round;stroke-linejoin:round;stroke-miterlimit:10;" x1="95.803" y1="81.928" x2="88.076" y2="89.655"/>
		<path style="fill:none;stroke:#000000;stroke-width:2;stroke-linecap:round;stroke-linejoin:round;stroke-miterlimit:10;" d="
			M49.468,36.609c-0.703,1.529-0.349,3.469,0.819,4.68c1.168,1.211,3.065,1.64,4.654,1.087c1.589-0.553,2.801-2.041,3.063-3.703
			c0.201-1.277-0.154-2.655-1.036-3.601C54.937,32.891,50.651,34.035,49.468,36.609z"/>
		<polyline style="fill:none;stroke:#000000;stroke-linecap:round;stroke-linejoin:round;stroke-miterlimit:10;" points="
			53.325,33.979 49.123,38.19 49.113,38.199 		"/>
		
			<line style="fill:none;stroke:#000000;stroke-linecap:round;stroke-linejoin:round;stroke-miterlimit:10;" x1="55.994" y1="34.345" x2="49.753" y2="40.587"/>
		
			<line style="fill:none;stroke:#000000;stroke-linecap:round;stroke-linejoin:round;stroke-miterlimit:10;" x1="57.517" y1="35.849" x2="51.304" y2="42.063"/>
		
			<line style="fill:none;stroke:#000000;stroke-linecap:round;stroke-linejoin:round;stroke-miterlimit:10;" x1="58.053" y1="38.35" x2="53.795" y2="42.599"/>
		<path style="fill:none;stroke:#000000;stroke-width:2;stroke-linecap:round;stroke-linejoin:round;stroke-miterlimit:10;" d="
			M49.468,66.722c-0.703,1.529-0.349,3.469,0.819,4.68c1.168,1.211,3.065,1.64,4.654,1.087c1.589-0.553,2.801-2.041,3.063-3.703
			c0.201-1.277-0.154-2.655-1.036-3.601C54.937,63.004,50.651,64.148,49.468,66.722z"/>
		<polyline style="fill:none;stroke:#000000;stroke-linecap:round;stroke-linejoin:round;stroke-miterlimit:10;" points="
			53.325,64.092 49.123,68.303 49.113,68.313 		"/>
		
			<line style="fill:none;stroke:#000000;stroke-linecap:round;stroke-linejoin:round;stroke-miterlimit:10;" x1="55.994" y1="64.459" x2="49.753" y2="70.7"/>
		
			<line style="fill:none;stroke:#000000;stroke-linecap:round;stroke-linejoin:round;stroke-miterlimit:10;" x1="57.517" y1="65.963" x2="51.304" y2="72.176"/>
		
			<line style="fill:none;stroke:#000000;stroke-linecap:round;stroke-linejoin:round;stroke-miterlimit:10;" x1="58.053" y1="68.463" x2="53.795" y2="72.712"/>
		<path style="fill:none;stroke:#000000;stroke-width:2;stroke-linecap:round;stroke-linejoin:round;stroke-miterlimit:10;" d="
			M19.111,66.722c-0.703,1.529-0.349,3.469,0.819,4.68c1.168,1.211,3.065,1.64,4.654,1.087c1.589-0.553,2.801-2.041,3.063-3.703
			c0.201-1.277-0.154-2.655-1.036-3.601C24.579,63.004,20.294,64.148,19.111,66.722z"/>
		<polyline style="fill:none;stroke:#000000;stroke-linecap:round;stroke-linejoin:round;stroke-miterlimit:10;" points="
			22.967,64.092 18.766,68.303 18.756,68.313 		"/>
		
			<line style="fill:none;stroke:#000000;stroke-linecap:round;stroke-linejoin:round;stroke-miterlimit:10;" x1="25.637" y1="64.459" x2="19.395" y2="70.7"/>
		
			<line style="fill:none;stroke:#000000;stroke-linecap:round;stroke-linejoin:round;stroke-miterlimit:10;" x1="27.16" y1="65.963" x2="20.946" y2="72.176"/>
		
			<line style="fill:none;stroke:#000000;stroke-linecap:round;stroke-linejoin:round;stroke-miterlimit:10;" x1="27.696" y1="68.463" x2="23.437" y2="72.712"/>
		<path style="fill:none;stroke:#000000;stroke-width:2;stroke-linecap:round;stroke-linejoin:round;stroke-miterlimit:10;" d="
			M34.29,51.741c-0.703,1.529-0.349,3.469,0.819,4.68c1.168,1.211,3.065,1.64,4.654,1.087c1.589-0.553,2.801-2.041,3.063-3.703
			c0.201-1.277-0.154-2.655-1.036-3.601C39.758,48.023,35.473,49.168,34.29,51.741z"/>
		<polyline style="fill:none;stroke:#000000;stroke-linecap:round;stroke-linejoin:round;stroke-miterlimit:10;" points="
			38.146,49.111 33.944,53.323 33.935,53.332 		"/>
		
			<line style="fill:none;stroke:#000000;stroke-linecap:round;stroke-linejoin:round;stroke-miterlimit:10;" x1="40.816" y1="49.478" x2="34.574" y2="55.72"/>
		
			<line style="fill:none;stroke:#000000;stroke-linecap:round;stroke-linejoin:round;stroke-miterlimit:10;" x1="42.338" y1="50.982" x2="36.125" y2="57.195"/>
		
			<line style="fill:none;stroke:#000000;stroke-linecap:round;stroke-linejoin:round;stroke-miterlimit:10;" x1="42.874" y1="53.482" x2="38.616" y2="57.731"/>
		<path style="fill:none;stroke:#000000;stroke-width:2;stroke-linecap:round;stroke-linejoin:round;stroke-miterlimit:10;" d="
			M64.647,51.741c-0.703,1.529-0.349,3.469,0.819,4.68c1.168,1.211,3.065,1.64,4.654,1.087c1.589-0.553,2.801-2.041,3.063-3.703
			c0.201-1.277-0.154-2.655-1.036-3.601C70.115,48.023,65.83,49.168,64.647,51.741z"/>
		<polyline style="fill:none;stroke:#000000;stroke-linecap:round;stroke-linejoin:round;stroke-miterlimit:10;" points="
			68.503,49.111 64.301,53.323 64.292,53.332 		"/>
		
			<line style="fill:none;stroke:#000000;stroke-linecap:round;stroke-linejoin:round;stroke-miterlimit:10;" x1="71.173" y1="49.478" x2="64.931" y2="55.72"/>
		
			<line style="fill:none;stroke:#000000;stroke-linecap:round;stroke-linejoin:round;stroke-miterlimit:10;" x1="72.695" y1="50.982" x2="66.482" y2="57.195"/>
		
			<line style="fill:none;stroke:#000000;stroke-linecap:round;stroke-linejoin:round;stroke-miterlimit:10;" x1="73.231" y1="53.482" x2="68.973" y2="57.731"/>
		<path style="fill:none;stroke:#000000;stroke-linecap:round;stroke-linejoin:round;stroke-miterlimit:10;" d="M85.632,30.514
			c0,0.391,0,0.781,0,1.172"/>
		<path style="fill:none;stroke:#000000;stroke-linecap:round;stroke-linejoin:round;stroke-miterlimit:10;" d="M85.682,34.449
			c-0.324,9.063-0.647,18.126-0.971,27.19"/>
		<path style="fill:none;stroke:#000000;stroke-linecap:round;stroke-linejoin:round;stroke-miterlimit:10;" d="M83.473,25.91
			c-0.116,5.775-0.231,11.549-0.347,17.324"/>
		<path style="fill:none;stroke:#000000;stroke-linecap:round;stroke-linejoin:round;stroke-miterlimit:10;" d="M19.044,86.402
			c0.205,0,0.409,0,0.614,0"/>
		<path style="fill:none;stroke:#000000;stroke-linecap:round;stroke-linejoin:round;stroke-miterlimit:10;" d="M22.274,86.412
			c6.522,0.215,13.043,0.429,19.565,0.644"/>
		<path style="fill:none;stroke:#000000;stroke-linecap:round;stroke-linejoin:round;stroke-miterlimit:10;" d="M33.701,84.6
			c8.459-0.034,16.92,0.343,25.343,1.13"/>
		<path style="fill:none;stroke:#000000;stroke-linecap:round;stroke-linejoin:round;stroke-miterlimit:10;" d="M15.245,51.113
			c0.537-6.903,1.073-13.806,1.61-20.709c4.436-0.276,8.873-0.551,13.309-0.827"/>
		<path style="fill:none;stroke:#000000;stroke-linecap:round;stroke-linejoin:round;stroke-miterlimit:10;" d="M15.072,53.151
			c-0.014,0.374-0.028,0.747-0.042,1.121"/>
		<path style="fill:none;stroke:#000000;stroke-linecap:round;stroke-linejoin:round;stroke-miterlimit:10;" d="M18.368,43.601
			c0.606-3.486,0.82-7.039,0.636-10.572c2.707-0.089,5.413-0.178,8.12-0.267"/>
		<path style="fill:none;stroke:#000000;stroke-linecap:round;stroke-linejoin:round;stroke-miterlimit:10;" d="M74.241,78.209
			c-0.35,0.064-0.7,0.127-1.05,0.191"/>
		<path style="fill:none;stroke:#000000;stroke-linecap:round;stroke-linejoin:round;stroke-miterlimit:10;" d="M71.101,78.783
			c-3.522-0.02-7.043-0.04-10.565-0.059c-1.918-0.011-3.835-0.022-5.753-0.032"/>
		<path style="fill:none;stroke:#000000;stroke-linecap:round;stroke-linejoin:round;stroke-miterlimit:10;" d="M63.324,76.404
			c4.501-0.15,9.003-0.299,13.504-0.449"/>
		<path style="fill:none;stroke:#000000;stroke-linecap:round;stroke-linejoin:round;stroke-miterlimit:10;" d="M8.295,31.549
			c-0.03,0.552-0.06,1.105-0.09,1.657"/>
		<path style="fill:none;stroke:#000000;stroke-linecap:round;stroke-linejoin:round;stroke-miterlimit:10;" d="M7.853,36.231
			C7.351,43.215,6.849,50.2,6.346,57.184"/>
		<path style="fill:none;stroke:#000000;stroke-linecap:round;stroke-linejoin:round;stroke-miterlimit:10;" d="M10.057,42.192
			c-0.838,8.764-1.676,17.527-2.514,26.291"/>
		<path style="fill:none;stroke:#000000;stroke-linecap:round;stroke-linejoin:round;stroke-miterlimit:10;" d="M30.242,22.295
			c8.091-0.725,16.181-1.449,24.272-2.174"/>
	</g>
</g>
<g id="Layer_1">
</g>
</svg>
