<?xml version="1.0" encoding="iso-8859-1"?>
<!-- Generator: Adobe Illustrator 23.0.5, SVG Export Plug-In . SVG Version: 6.00 Build 0)  -->
<svg version="1.1" xmlns="http://www.w3.org/2000/svg" xmlns:xlink="http://www.w3.org/1999/xlink" x="0px" y="0px"
	 viewBox="0 0 100 100" style="enable-background:new 0 0 100 100;" xml:space="preserve">
<g id="_x30_2_Candy_Stick">
	<g>
		<g>
			<path style="fill:#FFFFFF;" d="M96.998,44.446c0,0.25,0,0.49-0.01,0.74c-0.01,0.69-0.04,1.36-0.1,2.04
				c0,0.12-0.01,0.25-0.02,0.37c-0.08,0.81-0.19,1.61-0.34,2.4v0.01c-0.14,0.81-0.32,1.6-0.55,2.4c-0.03,0.12-0.06,0.25-0.1,0.37
				c-0.18,0.68-0.41,1.36-0.66,2.03c-0.09,0.25-0.19,0.5-0.29,0.75c-0.04,0.11-0.08,0.22-0.13,0.33c-0.19,0.45-0.39,0.89-0.61,1.33
				c-0.18,0.37-0.38,0.75-0.59,1.11c-0.26,0.45-0.53,0.88-0.82,1.3c-0.35,0.52-0.74,1.02-1.15,1.48c-0.29,0.33-0.59,0.63-0.91,0.92
				c-0.82,0.76-1.74,1.4-2.78,1.86c-0.49,0.23-1.01,0.41-1.55,0.55c-0.11,0.04-0.23,0.06-0.35,0.09c-1.17,0.25-2.4,0.23-3.55-0.09
				c-0.47-0.13-0.93-0.31-1.37-0.55c-0.93-0.5-1.63-1.14-2.15-1.86c-0.21-0.29-0.4-0.6-0.54-0.92c-0.23-0.47-0.39-0.97-0.5-1.48
				c-0.1-0.42-0.15-0.86-0.17-1.3c-0.03-0.37-0.03-0.74-0.01-1.11c0.03-0.56,0.1-1.11,0.2-1.66c0.05-0.25,0.11-0.5,0.17-0.75
				c0.05-0.22,0.11-0.43,0.17-0.64c0.13-0.47,0.29-0.93,0.45-1.39c0.04-0.13,0.09-0.25,0.13-0.37c0.29-0.8,0.6-1.59,0.9-2.4v-0.01
				c0.29-0.79,0.57-1.59,0.79-2.4c0.03-0.12,0.06-0.25,0.09-0.37c0.07-0.25,0.12-0.51,0.17-0.76c0.08-0.42,0.14-0.85,0.17-1.28
				c0.02-0.24,0.04-0.49,0.04-0.74c0.03-0.55,0.02-1.11-0.03-1.66c-0.03-0.37-0.08-0.74-0.14-1.11c-0.07-0.44-0.17-0.87-0.28-1.3
				c-0.13-0.5-0.29-1-0.48-1.48c-0.12-0.31-0.25-0.62-0.39-0.92c-0.3-0.64-0.64-1.27-1.03-1.86c-0.13-0.18-0.25-0.37-0.39-0.55
				c-0.45-0.62-0.96-1.19-1.51-1.72c-0.18-0.18-0.37-0.34-0.56-0.5l-0.21-0.18c-1.32-1.07-2.84-1.88-4.46-2.41
				c-0.21-0.07-0.41-0.13-0.62-0.19c-2.26-0.63-4.67-0.71-6.95-0.17c-0.21,0.05-0.42,0.11-0.63,0.17c-0.2,0.06-0.41,0.12-0.61,0.19
				c-1.65,0.55-3.17,1.39-4.58,2.41c-0.08,0.06-0.16,0.11-0.23,0.18c-0.91,0.67-1.76,1.42-2.59,2.22c-0.19,0.18-0.38,0.36-0.56,0.55
				c-0.6,0.6-1.17,1.23-1.73,1.86c-0.27,0.31-0.54,0.61-0.8,0.92c-0.42,0.49-0.83,0.98-1.23,1.48c-0.35,0.43-0.7,0.87-1.04,1.3
				c-0.3,0.38-0.6,0.75-0.89,1.11c-0.45,0.56-0.89,1.12-1.32,1.66c-0.2,0.25-0.4,0.5-0.59,0.74c-0.55,0.69-1.1,1.38-1.62,2.04
				c-0.11,0.13-0.2,0.25-0.3,0.37c-0.65,0.82-1.29,1.62-1.91,2.4c-0.66,0.82-1.3,1.63-1.93,2.41c-0.1,0.12-0.2,0.25-0.29,0.37
				c-0.55,0.69-1.09,1.37-1.62,2.03c-0.2,0.25-0.4,0.5-0.6,0.75c-0.45,0.57-0.89,1.12-1.33,1.66c-0.3,0.38-0.59,0.75-0.88,1.11
				c-0.35,0.44-0.69,0.87-1.03,1.29c-0.41,0.51-0.8,1.01-1.19,1.49c-0.25,0.31-0.49,0.62-0.73,0.92c-0.51,0.64-1.01,1.26-1.49,1.86
				c-0.15,0.19-0.29,0.37-0.44,0.55c-0.62,0.78-1.2,1.52-1.77,2.22c-0.05,0.06-0.09,0.12-0.14,0.18c-0.68,0.85-1.32,1.65-1.92,2.41
				c-0.05,0.06-0.1,0.13-0.15,0.19c-0.63,0.79-1.22,1.53-1.77,2.21c-0.15,0.19-0.3,0.38-0.45,0.57c-0.52,0.65-1.01,1.26-1.47,1.84
				c-0.25,0.32-0.5,0.63-0.74,0.93c-0.41,0.52-0.8,1.01-1.17,1.47c-0.36,0.46-0.71,0.9-1.03,1.31c-0.32,0.39-0.61,0.75-0.88,1.1
				c-0.49,0.63-0.93,1.18-1.33,1.68c-0.2,0.26-0.38,0.49-0.56,0.72c-0.27,0.35-0.52,0.67-0.75,0.97c-0.31,0.4-0.65,0.76-1.01,1.08
				c-0.13,0.13-0.28,0.25-0.42,0.36c-2.89,2.26-7.03,2.31-9.98,0c-0.15-0.11-0.29-0.23-0.43-0.36c-0.12-0.09-0.23-0.2-0.34-0.31
				c-0.04-0.05-0.09-0.09-0.13-0.13c-0.49-0.49-0.91-1.03-1.24-1.61c-0.14-0.23-0.27-0.47-0.38-0.72c-0.26-0.54-0.44-1.1-0.56-1.68
				c-0.08-0.37-0.14-0.73-0.17-1.1c-0.04-0.43-0.04-0.87,0-1.31c0.04-0.5,0.13-0.99,0.27-1.47c0.08-0.31,0.18-0.63,0.31-0.93
				c0.26-0.65,0.61-1.27,1.06-1.84c0.06-0.1,0.13-0.19,0.21-0.28l0.24-0.29l1.83-2.21l0.16-0.19l2-2.41l0.15-0.18l1.85-2.22
				l0.46-0.55l1.54-1.86l0.76-0.92l1.23-1.49h0.01l1.07-1.29l0.92-1.11l1.38-1.66l0.62-0.75l1.68-2.03l0.31-0.37l2-2.41l1.99-2.4
				l0.31-0.37l1.69-2.04l0.62-0.74l1.38-1.66l0.92-1.11l1.08-1.3l1.23-1.48l0.76-0.92l1.54-1.86l0.46-0.55l1.84-2.22l0.15-0.18
				l0.99-1.19c0.34-0.41,0.67-0.81,1.01-1.22c0.05-0.06,0.11-0.13,0.16-0.19c0.62-0.74,1.24-1.48,1.88-2.21
				c0.17-0.19,0.33-0.38,0.5-0.57c0.55-0.62,1.11-1.23,1.68-1.84c0.29-0.31,0.58-0.62,0.88-0.93c0.47-0.5,0.96-0.99,1.47-1.47
				c0.47-0.44,0.94-0.88,1.43-1.31c0.43-0.37,0.87-0.74,1.32-1.1c0.75-0.59,1.51-1.16,2.31-1.68c0.16-0.12,0.32-0.22,0.49-0.33
				c0.21-0.13,0.42-0.27,0.64-0.39h0.01c1.33-0.81,2.72-1.5,4.17-2.05c0.31-0.13,0.63-0.25,0.95-0.36c6.54-2.3,13.9-2.27,20.46,0
				c0.33,0.11,0.65,0.23,0.97,0.36c1.48,0.56,2.91,1.25,4.27,2.05c0.4,0.23,0.79,0.47,1.17,0.72c0.8,0.51,1.57,1.07,2.31,1.68
				c0.13,0.1,0.26,0.2,0.39,0.31c0.3,0.25,0.59,0.51,0.88,0.79c0.46,0.41,0.91,0.85,1.34,1.31c0.45,0.47,0.88,0.96,1.29,1.47
				c0.26,0.3,0.51,0.61,0.75,0.93c0.45,0.59,0.87,1.21,1.27,1.84c0.13,0.19,0.24,0.38,0.36,0.57c0.44,0.72,0.85,1.45,1.23,2.21
				c0.04,0.06,0.07,0.13,0.1,0.19c0.39,0.79,0.74,1.59,1.06,2.41c0.02,0.06,0.05,0.12,0.07,0.18c0.29,0.73,0.54,1.47,0.77,2.22
				c0.05,0.18,0.11,0.36,0.16,0.55c0.17,0.61,0.33,1.24,0.47,1.86c0.07,0.31,0.13,0.61,0.18,0.92c0.1,0.49,0.18,0.98,0.25,1.48
				c0.06,0.43,0.11,0.87,0.15,1.3c0.04,0.37,0.07,0.74,0.09,1.11C96.978,43.336,96.998,43.896,96.998,44.446z"/>
			<g>
				
					<line style="fill:none;stroke:#000000;stroke-linecap:round;stroke-linejoin:round;stroke-miterlimit:10;" x1="78.378" y1="16.686" x2="55.998" y2="16.686"/>
				
					<line style="fill:none;stroke:#000000;stroke-linecap:round;stroke-linejoin:round;stroke-miterlimit:10;" x1="83.818" y1="19.456" x2="50.688" y2="19.456"/>
				
					<line style="fill:none;stroke:#000000;stroke-linecap:round;stroke-linejoin:round;stroke-miterlimit:10;" x1="87.398" y1="22.236" x2="47.058" y2="22.236"/>
				
					<line style="fill:none;stroke:#000000;stroke-linecap:round;stroke-linejoin:round;stroke-miterlimit:10;" x1="90.028" y1="25.016" x2="44.158" y2="25.016"/>
				
					<line style="fill:none;stroke:#000000;stroke-linecap:round;stroke-linejoin:round;stroke-miterlimit:10;" x1="92.048" y1="27.786" x2="41.598" y2="27.786"/>
				<polyline style="fill:none;stroke:#000000;stroke-linecap:round;stroke-linejoin:round;stroke-miterlimit:10;" points="
					39.218,30.566 63.348,30.566 70.928,30.566 93.638,30.566 				"/>
				
					<line style="fill:none;stroke:#000000;stroke-linecap:round;stroke-linejoin:round;stroke-miterlimit:10;" x1="94.868" y1="33.346" x2="76.218" y2="33.346"/>
				
					<line style="fill:none;stroke:#000000;stroke-linecap:round;stroke-linejoin:round;stroke-miterlimit:10;" x1="57.928" y1="33.346" x2="36.908" y2="33.346"/>
				
					<line style="fill:none;stroke:#000000;stroke-linecap:round;stroke-linejoin:round;stroke-miterlimit:10;" x1="95.798" y1="36.116" x2="78.678" y2="36.116"/>
				
					<line style="fill:none;stroke:#000000;stroke-linecap:round;stroke-linejoin:round;stroke-miterlimit:10;" x1="54.778" y1="36.116" x2="34.608" y2="36.116"/>
				
					<line style="fill:none;stroke:#000000;stroke-linecap:round;stroke-linejoin:round;stroke-miterlimit:10;" x1="96.448" y1="38.896" x2="80.098" y2="38.896"/>
				
					<line style="fill:none;stroke:#000000;stroke-linecap:round;stroke-linejoin:round;stroke-miterlimit:10;" x1="52.248" y1="38.896" x2="32.308" y2="38.896"/>
				
					<line style="fill:none;stroke:#000000;stroke-linecap:round;stroke-linejoin:round;stroke-miterlimit:10;" x1="96.848" y1="41.676" x2="80.858" y2="41.676"/>
				
					<line style="fill:none;stroke:#000000;stroke-linecap:round;stroke-linejoin:round;stroke-miterlimit:10;" x1="49.978" y1="41.676" x2="29.998" y2="41.676"/>
				
					<line style="fill:none;stroke:#000000;stroke-linecap:round;stroke-linejoin:round;stroke-miterlimit:10;" x1="96.998" y1="44.446" x2="81.028" y2="44.446"/>
				
					<line style="fill:none;stroke:#000000;stroke-linecap:round;stroke-linejoin:round;stroke-miterlimit:10;" x1="47.768" y1="44.446" x2="27.698" y2="44.446"/>
				
					<line style="fill:none;stroke:#000000;stroke-linecap:round;stroke-linejoin:round;stroke-miterlimit:10;" x1="96.888" y1="47.226" x2="80.648" y2="47.226"/>
				
					<line style="fill:none;stroke:#000000;stroke-linecap:round;stroke-linejoin:round;stroke-miterlimit:10;" x1="45.558" y1="47.226" x2="25.388" y2="47.226"/>
				
					<line style="fill:none;stroke:#000000;stroke-linecap:round;stroke-linejoin:round;stroke-miterlimit:10;" x1="96.528" y1="50.006" x2="79.768" y2="50.006"/>
				
					<line style="fill:none;stroke:#000000;stroke-linecap:round;stroke-linejoin:round;stroke-miterlimit:10;" x1="43.348" y1="49.996" x2="23.088" y2="49.996"/>
				
					<line style="fill:none;stroke:#000000;stroke-linecap:round;stroke-linejoin:round;stroke-miterlimit:10;" x1="95.878" y1="52.776" x2="78.738" y2="52.776"/>
				
					<line style="fill:none;stroke:#000000;stroke-linecap:round;stroke-linejoin:round;stroke-miterlimit:10;" x1="41.128" y1="52.776" x2="20.778" y2="52.776"/>
				
					<line style="fill:none;stroke:#000000;stroke-linecap:round;stroke-linejoin:round;stroke-miterlimit:10;" x1="94.928" y1="55.556" x2="77.948" y2="55.556"/>
				
					<line style="fill:none;stroke:#000000;stroke-linecap:round;stroke-linejoin:round;stroke-miterlimit:10;" x1="38.908" y1="55.556" x2="18.478" y2="55.556"/>
				
					<line style="fill:none;stroke:#000000;stroke-linecap:round;stroke-linejoin:round;stroke-miterlimit:10;" x1="93.598" y1="58.326" x2="77.758" y2="58.326"/>
				
					<line style="fill:none;stroke:#000000;stroke-linecap:round;stroke-linejoin:round;stroke-miterlimit:10;" x1="36.698" y1="58.326" x2="16.178" y2="58.326"/>
				
					<line style="fill:none;stroke:#000000;stroke-linecap:round;stroke-linejoin:round;stroke-miterlimit:10;" x1="91.628" y1="61.106" x2="78.428" y2="61.106"/>
				
					<line style="fill:none;stroke:#000000;stroke-linecap:round;stroke-linejoin:round;stroke-miterlimit:10;" x1="34.478" y1="61.106" x2="13.868" y2="61.106"/>
				
					<line style="fill:none;stroke:#000000;stroke-linecap:round;stroke-linejoin:round;stroke-miterlimit:10;" x1="87.938" y1="63.886" x2="81.118" y2="63.886"/>
				
					<line style="fill:none;stroke:#000000;stroke-linecap:round;stroke-linejoin:round;stroke-miterlimit:10;" x1="32.258" y1="63.886" x2="11.568" y2="63.886"/>
				
					<line style="fill:none;stroke:#000000;stroke-linecap:round;stroke-linejoin:round;stroke-miterlimit:10;" x1="30.048" y1="66.656" x2="9.258" y2="66.656"/>
				
					<line style="fill:none;stroke:#000000;stroke-linecap:round;stroke-linejoin:round;stroke-miterlimit:10;" x1="27.838" y1="69.436" x2="6.948" y2="69.436"/>
				
					<line style="fill:none;stroke:#000000;stroke-linecap:round;stroke-linejoin:round;stroke-miterlimit:10;" x1="25.618" y1="72.216" x2="4.668" y2="72.216"/>
				
					<line style="fill:none;stroke:#000000;stroke-linecap:round;stroke-linejoin:round;stroke-miterlimit:10;" x1="23.408" y1="74.986" x2="3.298" y2="74.986"/>
				
					<line style="fill:none;stroke:#000000;stroke-linecap:round;stroke-linejoin:round;stroke-miterlimit:10;" x1="21.208" y1="77.766" x2="3.028" y2="77.766"/>
				
					<line style="fill:none;stroke:#000000;stroke-linecap:round;stroke-linejoin:round;stroke-miterlimit:10;" x1="18.998" y1="80.546" x2="3.758" y2="80.546"/>
				
					<line style="fill:none;stroke:#000000;stroke-linecap:round;stroke-linejoin:round;stroke-miterlimit:10;" x1="16.678" y1="83.316" x2="5.848" y2="83.316"/>
			</g>
			<path style="fill:none;stroke:#000000;stroke-width:2;stroke-linecap:round;stroke-linejoin:round;stroke-miterlimit:10;" d="
				M5.507,83.002c3.464,3.467,9.188,3.113,12.182-0.767c3.232-4.187,10.046-12.653,32.287-40.558
				c3.809-4.779,8.061-9.85,14.003-11.278c4.478-1.076,9.463,0.266,12.796,3.446c3.332,3.18,4.906,8.097,4.041,12.62
				c-0.509,2.658-1.781,5.104-2.531,7.704c-1.001,3.467-0.945,7.658,2.834,9.717c1.488,0.811,3.263,1.004,4.918,0.641
				c4.403-0.966,7.113-4.726,8.763-8.643c4.906-11.645,1.386-26.291-8.277-34.435s-24.693-9.133-35.339-2.326
				c-5.183,3.314-9.2,8.125-13.13,12.858L4.878,71.935c-2.682,3.23-2.466,7.972,0.503,10.941C5.423,82.918,5.465,82.96,5.507,83.002
				z"/>
			<path style="fill:#E74C3C;" d="M44.513,48.522c-4.341-3.011-7.951-7.105-10.402-11.803l3.945-4.746
				c0.712-0.853,1.424-1.705,2.143-2.546c1.892,5.05,4.94,9.671,8.871,13.383C47.476,44.807,45.96,46.725,44.513,48.522z"/>
			<path style="fill:#E74C3C;" d="M29.329,67.555c-4.523-2.948-8.431-6.832-11.414-11.319l6.394-7.696
				c2.301,4.945,5.759,9.335,10.029,12.75C32.474,63.621,30.808,65.707,29.329,67.555z"/>
			<path style="fill:#E74C3C;" d="M15.312,84.3c-4.451-3.038-8.194-7.116-10.861-11.809c0.136-0.192,0.279-0.372,0.422-0.552
				l4.883-5.876c2.22,5.229,5.592,9.97,9.774,13.814c-0.73,0.926-1.334,1.698-1.843,2.366C17.012,83.105,16.202,83.796,15.312,84.3z
				"/>
			<path style="fill:#E74C3C;" d="M88.687,31.518c-3.687,0.633-7.182,2.186-10.163,4.436c-0.518-0.756-1.094-1.478-1.752-2.103
				c-0.79-0.765-1.68-1.408-2.634-1.949c3.327-4.468,8.123-7.826,13.445-9.474c2.664,2.496,4.801,5.498,6.363,8.799
				C92.188,31.123,90.42,31.213,88.687,31.518z"/>
			<path style="fill:#E74C3C;" d="M91.135,61.631c-2.56-3.548-5.753-6.637-9.412-9.037c-0.769-0.495-1.573-0.97-2.418-1.356
				c0.596-1.568,1.198-3.124,1.51-4.772c0.028-0.111,0.025-0.219,0.046-0.342c5.425-0.564,11.015,0.738,15.717,3.515
				c-0.346,2.14-0.936,4.239-1.776,6.236C93.916,57.978,92.718,60.034,91.135,61.631z"/>
			<path style="fill:#E74C3C;" d="M57.558,33.635c-1.547-2.414-2.705-5.095-3.334-7.889c-0.611-2.633-0.757-5.356-0.479-8.052
				c3.58-1.777,7.523-2.768,11.524-3.009c-0.421,0.866-0.778,1.787-1.07,2.686c-1.379,4.285-1.823,8.872-1.328,13.349
				C60.929,31.354,59.174,32.379,57.558,33.635z"/>
			<path style="fill:none;stroke:#000000;stroke-width:2;stroke-linecap:round;stroke-linejoin:round;stroke-miterlimit:10;" d="
				M44.513,48.522c-4.341-3.011-7.951-7.105-10.402-11.803l3.945-4.746c0.712-0.853,1.424-1.705,2.143-2.546
				c1.892,5.05,4.94,9.671,8.871,13.383C47.476,44.807,45.96,46.725,44.513,48.522z"/>
			<path style="fill:none;stroke:#000000;stroke-width:2;stroke-linecap:round;stroke-linejoin:round;stroke-miterlimit:10;" d="
				M29.329,67.555c-4.523-2.948-8.431-6.832-11.414-11.319l6.394-7.696c2.301,4.945,5.759,9.335,10.029,12.75
				C32.474,63.621,30.808,65.707,29.329,67.555z"/>
			<path style="fill:none;stroke:#000000;stroke-width:2;stroke-linecap:round;stroke-linejoin:round;stroke-miterlimit:10;" d="
				M15.312,84.3c-4.451-3.038-8.194-7.116-10.861-11.809c0.136-0.192,0.279-0.372,0.422-0.552l4.883-5.876
				c2.22,5.229,5.592,9.97,9.774,13.814c-0.73,0.926-1.334,1.698-1.843,2.366C17.012,83.105,16.202,83.796,15.312,84.3z"/>
			<path style="fill:none;stroke:#000000;stroke-width:2;stroke-linecap:round;stroke-linejoin:round;stroke-miterlimit:10;" d="
				M88.687,31.518c-3.687,0.633-7.182,2.186-10.163,4.436c-0.518-0.756-1.094-1.478-1.752-2.103c-0.79-0.765-1.68-1.408-2.634-1.949
				c3.327-4.468,8.123-7.826,13.445-9.474c2.664,2.496,4.801,5.498,6.363,8.799C92.188,31.123,90.42,31.213,88.687,31.518z"/>
			<path style="fill:none;stroke:#000000;stroke-width:2;stroke-linecap:round;stroke-linejoin:round;stroke-miterlimit:10;" d="
				M91.135,61.631c-2.56-3.548-5.753-6.637-9.412-9.037c-0.769-0.495-1.573-0.97-2.418-1.356c0.596-1.568,1.198-3.124,1.51-4.772
				c0.028-0.111,0.025-0.219,0.046-0.342c5.425-0.564,11.015,0.738,15.717,3.515c-0.346,2.14-0.936,4.239-1.776,6.236
				C93.916,57.978,92.718,60.034,91.135,61.631z"/>
			<path style="fill:none;stroke:#000000;stroke-width:2;stroke-linecap:round;stroke-linejoin:round;stroke-miterlimit:10;" d="
				M57.558,33.635c-1.547-2.414-2.705-5.095-3.334-7.889c-0.611-2.633-0.757-5.356-0.479-8.052c3.58-1.777,7.523-2.768,11.524-3.009
				c-0.421,0.866-0.778,1.787-1.07,2.686c-1.379,4.285-1.823,8.872-1.328,13.349C60.929,31.354,59.174,32.379,57.558,33.635z"/>
		</g>
		<path style="fill:none;stroke:#000000;stroke-linecap:round;stroke-linejoin:round;stroke-miterlimit:10;" d="M9.128,71.266
			c0.968,2.325,2.258,4.517,3.821,6.493"/>
		<path style="fill:none;stroke:#000000;stroke-linecap:round;stroke-linejoin:round;stroke-miterlimit:10;" d="M14.095,79.284
			c0.219,0.141,0.438,0.283,0.658,0.424"/>
		<path style="fill:none;stroke:#000000;stroke-linecap:round;stroke-linejoin:round;stroke-miterlimit:10;" d="M21.979,56.26
			c1.061,1.835,2.814,3.258,4.828,3.919"/>
		<path style="fill:none;stroke:#000000;stroke-linecap:round;stroke-linejoin:round;stroke-miterlimit:10;" d="M28.329,60.969
			c0.232,0.039,0.463,0.078,0.695,0.117"/>
		<path style="fill:none;stroke:#000000;stroke-linecap:round;stroke-linejoin:round;stroke-miterlimit:10;" d="M37.931,37.137
			c1.037,1.841,2.455,3.466,4.138,4.743"/>
		<path style="fill:none;stroke:#000000;stroke-linecap:round;stroke-linejoin:round;stroke-miterlimit:10;" d="M43.245,42.9
			c0.259,0.178,0.518,0.356,0.778,0.534"/>
		<path style="fill:none;stroke:#000000;stroke-linecap:round;stroke-linejoin:round;stroke-miterlimit:10;" d="M58.24,28.391
			c-1.335-2.304-1.625-5.188-0.774-7.711"/>
		<path style="fill:none;stroke:#000000;stroke-linecap:round;stroke-linejoin:round;stroke-miterlimit:10;" d="M58.183,19.1
			c0.142-0.27,0.283-0.541,0.425-0.811"/>
		<path style="fill:none;stroke:#000000;stroke-linecap:round;stroke-linejoin:round;stroke-miterlimit:10;" d="M78.589,31.428
			c1.317-1.814,3.19-3.218,5.3-3.973"/>
		<path style="fill:none;stroke:#000000;stroke-linecap:round;stroke-linejoin:round;stroke-miterlimit:10;" d="M86.091,26.988
			c0.451-0.064,0.902-0.129,1.352-0.193"/>
		<path style="fill:none;stroke:#000000;stroke-linecap:round;stroke-linejoin:round;stroke-miterlimit:10;" d="M85.32,48.863
			c2.079,0.149,4.033,1.481,4.931,3.362"/>
		<path style="fill:none;stroke:#000000;stroke-linecap:round;stroke-linejoin:round;stroke-miterlimit:10;" d="M91.286,54.078
			c0.048,0.269,0.096,0.538,0.144,0.806"/>
	</g>
</g>
<g id="Layer_1">
</g>
</svg>
