<?xml version="1.0" encoding="iso-8859-1"?>
<!-- Generator: Adobe Illustrator 23.0.5, SVG Export Plug-In . SVG Version: 6.00 Build 0)  -->
<svg version="1.1" xmlns="http://www.w3.org/2000/svg" xmlns:xlink="http://www.w3.org/1999/xlink" x="0px" y="0px"
	 viewBox="0 0 100 100" style="enable-background:new 0 0 100 100;" xml:space="preserve">
<g id="Different_Sock">
	<g>
		<path style="fill:#E84C3D;" d="M43.242,55.417c2.215,9.078-1.624,19.327-9.258,24.715c-3.214,2.269-7.043,3.768-9.667,6.7
			c-1.128,1.26-2.008,2.802-2.199,4.482c-0.191,1.68,0.398,3.499,1.74,4.528c1.171,0.898,2.725,1.1,4.201,1.145
			c5.664,0.176,11.37-1.533,16.005-4.793s8.172-8.053,9.922-13.442c2.413-7.434,1.423-15.489,0.408-23.239
			C50.642,54.561,46.924,54.512,43.242,55.417z"/>
		<path style="fill:#FFFFFF;" d="M53.714,79.537c-1.571,4.365-4.326,8.292-7.854,11.266c-0.502-1.519-0.644-3.155-0.322-4.725
			c0.515-2.549,2.24-4.854,4.609-5.923C51.255,79.653,52.491,79.447,53.714,79.537z"/>
		<path style="fill:#FFFFFF;" d="M48.281,61.498c-1.468-0.064-2.961-0.167-4.429-0.412c0.051-1.906-0.154-3.811-0.605-5.665
			c3.682-0.914,7.39-0.863,11.15,0.09c0.257,1.983,0.528,3.991,0.721,6.013C52.839,61.601,50.56,61.588,48.281,61.498z"/>
		<path style="fill:#E84C3D;" d="M65.41,18.198c-1.921,0.018-3.474,1.667-3.433,3.587c0.111,5.121-1.064,10.27-3.415,14.822
			c-1.537,2.975-3.635,6.096-2.94,9.372c0.61,2.873,3.18,4.83,4.921,7.195c3.856,5.237,3.74,12.749,8.016,17.649
			c1.11,1.272,2.631,2.363,4.319,2.313c2.151-0.064,3.815-1.929,4.789-3.847c3.07-6.043,1.586-14.061-3.445-18.605
			c-1.675-1.512-3.797-2.834-4.382-5.013c-0.472-1.758,0.208-3.597,0.876-5.29c1.881-4.762,3.762-9.524,5.644-14.286
			c0.542-1.372,0.215-2.967-0.885-3.95C72.474,19.459,69.114,18.163,65.41,18.198z"/>
		<path style="fill:#FFFFFF;" d="M76.365,26.094c-0.167,0.438-0.348,0.876-0.515,1.313c-1.056-0.154-2.124-0.322-3.167-0.515
			c-3.67-0.708-7.3-1.777-10.725-3.296c0.039-0.605,0.039-1.21,0.026-1.815c-0.052-1.918,1.506-3.567,3.425-3.579
			c3.708-0.039,7.069,1.262,10.069,3.94C76.571,23.132,76.906,24.729,76.365,26.094z"/>
		
			<line style="fill:none;stroke:#000000;stroke-linecap:round;stroke-linejoin:round;stroke-miterlimit:10;" x1="66.579" y1="18.237" x2="61.982" y2="22.833"/>
		
			<line style="fill:none;stroke:#000000;stroke-linecap:round;stroke-linejoin:round;stroke-miterlimit:10;" x1="70.564" y1="19.102" x2="64.896" y2="24.77"/>
		
			<line style="fill:none;stroke:#000000;stroke-linecap:round;stroke-linejoin:round;stroke-miterlimit:10;" x1="73.741" y1="20.775" x2="68.581" y2="25.935"/>
		
			<line style="fill:none;stroke:#000000;stroke-linecap:round;stroke-linejoin:round;stroke-miterlimit:10;" x1="76.232" y1="23.144" x2="72.51" y2="26.857"/>
		<path style="fill:#FFFFFF;" d="M63.258,42.047c0.373,1.03-0.129,2.176-0.837,3.013c-0.695,0.837-1.597,1.494-2.215,2.395
			c-0.76,1.12-1.03,2.498-1.223,3.837c-1.442-1.622-2.923-3.232-3.36-5.318c-0.361-1.674,0.026-3.322,0.682-4.918
			c0.657-0.129,1.326-0.257,1.983-0.386c0.914-0.167,1.867-0.348,2.794-0.193C62.009,40.617,62.923,41.171,63.258,42.047z"/>
		<path style="fill:#FFFFFF;" d="M79.249,63.046c-0.077,2.163-0.592,4.3-1.584,6.245c-0.966,1.918-2.639,3.785-4.79,3.85
			c-1.687,0.039-3.206-1.043-4.313-2.318c-0.206-0.232-0.399-0.476-0.567-0.721c2.24-2.936,5.33-5.24,8.833-6.425
			C77.627,63.407,78.438,63.201,79.249,63.046z"/>
		<path style="fill:#E84C3D;" d="M41.539,12.419c-0.737,5.709,0.009,11.602,2.145,16.947c0.535,1.338,1.157,2.651,1.478,4.055
			c0.32,1.404,0.312,2.944-0.376,4.21c-0.706,1.3-2.012,2.135-3.176,3.048c-3.231,2.534-5.677,6.057-6.92,9.971
			c-0.627,1.973-0.953,4.029-1.528,6.017c-0.575,1.988-1.436,3.96-2.93,5.393c-1.493,1.433-3.722,2.232-5.693,1.6
			c-2.123-0.681-3.498-2.88-3.748-5.095c-0.25-2.215,0.44-4.433,1.355-6.466s2.063-3.964,2.818-6.061
			c4.258-11.837-0.811-15.371,6.519-34.46"/>
		<path style="fill:#FFFFFF;" d="M32.697,58.058c-0.56,1.492-1.32,2.913-2.468,4.003c-1.492,1.435-3.716,2.224-5.696,1.593
			c-2.109-0.674-3.487-2.87-3.745-5.094c-0.215-1.951,0.301-3.917,1.047-5.739c2.009-0.115,4.075,0.316,5.883,1.205
			C29.655,55.001,31.305,56.407,32.697,58.058z"/>
		<path style="fill:#FFFFFF;" d="M44.793,37.625c-0.717,1.306-2.023,2.138-3.185,3.056c-0.387,0.301-0.76,0.617-1.119,0.947
			c-0.488-0.689-0.961-1.392-1.392-2.124c-1.019-1.736-1.707-3.817-1.177-5.754c0.674-2.368,3.085-3.917,5.51-4.276
			c0.1-0.014,0.201-0.029,0.287-0.029c0.531,1.32,1.119,2.597,1.449,3.974C45.481,34.827,45.467,36.363,44.793,37.625z"/>
		<path style="fill:#FFFFFF;" d="M28.364,6.411c-0.365,1.907,0.963,3.814,2.665,4.75c2.43,1.337,8.557,1.767,10.873,1.051
			c1.68-0.519,3.229-1.866,3.44-3.612c0.084-0.699-0.053-1.423-0.387-2.043c-0.586-1.086-1.717-1.76-2.885-2.056
			c-1.973-0.502,0.521,0.585-6.785-1.24c-1.407-0.351-2.954-0.4-4.307,0.182C29.728,3.98,28.627,5.035,28.364,6.411z"/>
		
			<line style="fill:none;stroke:#000000;stroke-linecap:round;stroke-linejoin:round;stroke-miterlimit:10;" x1="34.271" y1="3.065" x2="28.668" y2="8.668"/>
		
			<line style="fill:none;stroke:#000000;stroke-linecap:round;stroke-linejoin:round;stroke-miterlimit:10;" x1="38.228" y1="3.958" x2="31.028" y2="11.159"/>
		
			<line style="fill:none;stroke:#000000;stroke-linecap:round;stroke-linejoin:round;stroke-miterlimit:10;" x1="42.43" y1="4.607" x2="34.797" y2="12.24"/>
		
			<line style="fill:none;stroke:#000000;stroke-linecap:round;stroke-linejoin:round;stroke-miterlimit:10;" x1="45.081" y1="6.806" x2="39.347" y2="12.54"/>
		<path style="fill:none;stroke:#000000;stroke-width:2;stroke-linecap:round;stroke-linejoin:round;stroke-miterlimit:10;" d="
			M43.242,55.417c2.215,9.078-1.624,19.327-9.258,24.715c-3.214,2.269-7.043,3.768-9.667,6.7c-1.128,1.26-2.008,2.802-2.199,4.482
			c-0.191,1.68,0.398,3.499,1.74,4.528c1.171,0.898,2.725,1.1,4.201,1.145c5.664,0.176,11.37-1.533,16.005-4.793
			s8.172-8.053,9.922-13.442c2.413-7.434,1.423-15.489,0.408-23.239C50.642,54.561,46.924,54.512,43.242,55.417z"/>
		<path style="fill:none;stroke:#000000;stroke-width:2;stroke-linecap:round;stroke-linejoin:round;stroke-miterlimit:10;" d="
			M53.714,79.537c-1.571,4.365-4.326,8.292-7.854,11.266c-0.502-1.519-0.644-3.155-0.322-4.725c0.515-2.549,2.24-4.854,4.609-5.923
			C51.255,79.653,52.491,79.447,53.714,79.537z"/>
		<path style="fill:none;stroke:#000000;stroke-width:2;stroke-linecap:round;stroke-linejoin:round;stroke-miterlimit:10;" d="
			M48.281,61.498c-1.468-0.064-2.961-0.167-4.429-0.412c0.051-1.906-0.154-3.811-0.605-5.665c3.682-0.914,7.39-0.863,11.15,0.09
			c0.257,1.983,0.528,3.991,0.721,6.013C52.839,61.601,50.56,61.588,48.281,61.498z"/>
		<path style="fill:none;stroke:#000000;stroke-width:2;stroke-linecap:round;stroke-linejoin:round;stroke-miterlimit:10;" d="
			M65.41,18.198c-1.921,0.018-3.474,1.667-3.433,3.587c0.111,5.121-1.064,10.27-3.415,14.822c-1.537,2.975-3.635,6.096-2.94,9.372
			c0.61,2.873,3.18,4.83,4.921,7.195c3.856,5.237,3.74,12.749,8.016,17.649c1.11,1.272,2.631,2.363,4.319,2.313
			c2.151-0.064,3.815-1.929,4.789-3.847c3.07-6.043,1.586-14.061-3.445-18.605c-1.675-1.512-3.797-2.834-4.382-5.013
			c-0.472-1.758,0.208-3.597,0.876-5.29c1.881-4.762,3.762-9.524,5.644-14.286c0.542-1.372,0.215-2.967-0.885-3.95
			C72.474,19.459,69.114,18.163,65.41,18.198z"/>
		<path style="fill:none;stroke:#000000;stroke-width:2;stroke-linecap:round;stroke-linejoin:round;stroke-miterlimit:10;" d="
			M76.365,26.094c-0.167,0.438-0.348,0.876-0.515,1.313c-1.056-0.154-2.124-0.322-3.167-0.515c-3.67-0.708-7.3-1.777-10.725-3.296
			c0.039-0.605,0.039-1.21,0.026-1.815c-0.052-1.918,1.506-3.567,3.425-3.579c3.708-0.039,7.069,1.262,10.069,3.94
			C76.571,23.132,76.906,24.729,76.365,26.094z"/>
		<path style="fill:none;stroke:#000000;stroke-width:2;stroke-linecap:round;stroke-linejoin:round;stroke-miterlimit:10;" d="
			M63.258,42.047c0.373,1.03-0.129,2.176-0.837,3.013c-0.695,0.837-1.597,1.494-2.215,2.395c-0.76,1.12-1.03,2.498-1.223,3.837
			c-1.442-1.622-2.923-3.232-3.36-5.318c-0.361-1.674,0.026-3.322,0.682-4.918c0.657-0.129,1.326-0.257,1.983-0.386
			c0.914-0.167,1.867-0.348,2.794-0.193C62.009,40.617,62.923,41.171,63.258,42.047z"/>
		<path style="fill:none;stroke:#000000;stroke-width:2;stroke-linecap:round;stroke-linejoin:round;stroke-miterlimit:10;" d="
			M79.249,63.046c-0.077,2.163-0.592,4.3-1.584,6.245c-0.966,1.918-2.639,3.785-4.79,3.85c-1.687,0.039-3.206-1.043-4.313-2.318
			c-0.206-0.232-0.399-0.476-0.567-0.721c2.24-2.936,5.33-5.24,8.833-6.425C77.627,63.407,78.438,63.201,79.249,63.046z"/>
		<path style="fill:none;stroke:#000000;stroke-width:2;stroke-linecap:round;stroke-linejoin:round;stroke-miterlimit:10;" d="
			M41.539,12.419c-0.737,5.709,0.009,11.602,2.145,16.947c0.535,1.338,1.157,2.651,1.478,4.055c0.32,1.404,0.312,2.944-0.376,4.21
			c-0.706,1.3-2.012,2.135-3.176,3.048c-3.231,2.534-5.677,6.057-6.92,9.971c-0.627,1.973-0.953,4.029-1.528,6.017
			c-0.575,1.988-1.436,3.96-2.93,5.393c-1.493,1.433-3.722,2.232-5.693,1.6c-2.123-0.681-3.498-2.88-3.748-5.095
			c-0.25-2.215,0.44-4.433,1.355-6.466s2.063-3.964,2.818-6.061c4.258-11.837-0.811-15.371,6.519-34.46"/>
		<path style="fill:none;stroke:#000000;stroke-width:2;stroke-linecap:round;stroke-linejoin:round;stroke-miterlimit:10;" d="
			M32.697,58.058c-0.56,1.492-1.32,2.913-2.468,4.003c-1.492,1.435-3.716,2.224-5.696,1.593c-2.109-0.674-3.487-2.87-3.745-5.094
			c-0.215-1.951,0.301-3.917,1.047-5.739c2.009-0.115,4.075,0.316,5.883,1.205C29.655,55.001,31.305,56.407,32.697,58.058z"/>
		<path style="fill:none;stroke:#000000;stroke-width:2;stroke-linecap:round;stroke-linejoin:round;stroke-miterlimit:10;" d="
			M44.793,37.625c-0.717,1.306-2.023,2.138-3.185,3.056c-0.387,0.301-0.76,0.617-1.119,0.947c-0.488-0.689-0.961-1.392-1.392-2.124
			c-1.019-1.736-1.707-3.817-1.177-5.754c0.674-2.368,3.085-3.917,5.51-4.276c0.1-0.014,0.201-0.029,0.287-0.029
			c0.531,1.32,1.119,2.597,1.449,3.974C45.481,34.827,45.467,36.363,44.793,37.625z"/>
		<path style="fill:none;stroke:#000000;stroke-width:2;stroke-linecap:round;stroke-linejoin:round;stroke-miterlimit:10;" d="
			M28.364,6.411c-0.365,1.907,0.963,3.814,2.665,4.75c2.43,1.337,8.557,1.767,10.873,1.051c1.68-0.519,3.229-1.866,3.44-3.612
			c0.084-0.699-0.053-1.423-0.387-2.043c-0.586-1.086-1.717-1.76-2.885-2.056c-1.973-0.502,0.521,0.585-6.785-1.24
			c-1.407-0.351-2.954-0.4-4.307,0.182C29.728,3.98,28.627,5.035,28.364,6.411z"/>
		
			<line style="fill:none;stroke:#000000;stroke-linecap:round;stroke-linejoin:round;stroke-miterlimit:10;" x1="24.749" y1="53.026" x2="20.763" y2="57.012"/>
		
			<line style="fill:none;stroke:#000000;stroke-linecap:round;stroke-linejoin:round;stroke-miterlimit:10;" x1="28.292" y1="54.333" x2="21.581" y2="61.054"/>
		
			<line style="fill:none;stroke:#000000;stroke-linecap:round;stroke-linejoin:round;stroke-miterlimit:10;" x1="31.103" y1="56.382" x2="24.025" y2="63.46"/>
		
			<line style="fill:none;stroke:#000000;stroke-linecap:round;stroke-linejoin:round;stroke-miterlimit:10;" x1="45.024" y1="55.057" x2="43.492" y2="56.589"/>
		
			<line style="fill:none;stroke:#000000;stroke-linecap:round;stroke-linejoin:round;stroke-miterlimit:10;" x1="50.11" y1="54.822" x2="43.849" y2="61.082"/>
		
			<line style="fill:none;stroke:#000000;stroke-linecap:round;stroke-linejoin:round;stroke-miterlimit:10;" x1="54.293" y1="55.489" x2="48.286" y2="61.496"/>
		
			<line style="fill:none;stroke:#000000;stroke-linecap:round;stroke-linejoin:round;stroke-miterlimit:10;" x1="54.923" y1="59.71" x2="53.071" y2="61.561"/>
		<path style="fill:none;stroke:#000000;stroke-linecap:round;stroke-linejoin:round;stroke-miterlimit:10;" d="M27.471,45.955
			c0.22-0.533,0.441-1.067,0.661-1.6"/>
		<path style="fill:none;stroke:#000000;stroke-linecap:round;stroke-linejoin:round;stroke-miterlimit:10;" d="M28.9,42.125
			c1.278-3.515,0.979-7.373,0.923-11.113s0.228-7.723,2.422-10.752"/>
		<path style="fill:none;stroke:#000000;stroke-linecap:round;stroke-linejoin:round;stroke-miterlimit:10;" d="M33.115,23.088
			c-1.022,3.533-1.384,7.255-1.064,10.919"/>
		<path style="fill:none;stroke:#000000;stroke-linecap:round;stroke-linejoin:round;stroke-miterlimit:10;" d="M38.44,16.445
			c0.077,3.179,0.477,6.35,1.192,9.449"/>
		<path style="fill:none;stroke:#000000;stroke-linecap:round;stroke-linejoin:round;stroke-miterlimit:10;" d="M42.371,32.928
			c0.554,0.654,0.826,1.539,0.734,2.39s-0.545,1.659-1.225,2.18"/>
		<path style="fill:none;stroke:#000000;stroke-linecap:round;stroke-linejoin:round;stroke-miterlimit:10;" d="M31.713,53.094
			c0.084-2.348,0.905-4.665,2.319-6.542"/>
		<path style="fill:none;stroke:#000000;stroke-linecap:round;stroke-linejoin:round;stroke-miterlimit:10;" d="M28.347,86.899
			c0.236-0.148,0.473-0.297,0.709-0.445"/>
		<path style="fill:none;stroke:#000000;stroke-linecap:round;stroke-linejoin:round;stroke-miterlimit:10;" d="M31.332,85.2
			c6.073-3.059,10.99-8.351,13.594-14.632"/>
		<path style="fill:none;stroke:#000000;stroke-linecap:round;stroke-linejoin:round;stroke-miterlimit:10;" d="M29.651,88.303
			c3.233-1.526,6.255-3.498,8.955-5.842"/>
		<path style="fill:none;stroke:#000000;stroke-linecap:round;stroke-linejoin:round;stroke-miterlimit:10;" d="M52.565,67.003
			c0.898,2.379,0.667,5.157-0.612,7.354"/>
		<path style="fill:none;stroke:#000000;stroke-linecap:round;stroke-linejoin:round;stroke-miterlimit:10;" d="M68.727,37.819
			c-0.895,1.622-1.809,3.299-2.015,5.14c-0.349,3.125,1.658,6.36,4.614,7.434"/>
		<path style="fill:none;stroke:#000000;stroke-linecap:round;stroke-linejoin:round;stroke-miterlimit:10;" d="M72.297,51.951
			c0.128,0.107,0.256,0.214,0.384,0.321"/>
		<path style="fill:none;stroke:#000000;stroke-linecap:round;stroke-linejoin:round;stroke-miterlimit:10;" d="M68.543,65.02
			c-0.068-0.169-0.136-0.339-0.204-0.508"/>
		<path style="fill:none;stroke:#000000;stroke-linecap:round;stroke-linejoin:round;stroke-miterlimit:10;" d="M67.815,63.048
			c-1.432-3.13-2.864-6.26-4.296-9.39"/>
		<path style="fill:none;stroke:#000000;stroke-linecap:round;stroke-linejoin:round;stroke-miterlimit:10;" d="M69.973,63.789
			c-1.56-3.161-3.12-6.322-4.68-9.484"/>
		<path style="fill:none;stroke:#000000;stroke-linecap:round;stroke-linejoin:round;stroke-miterlimit:10;" d="M58.341,45.858
			c-0.228-0.57-0.46-1.165-0.413-1.777c0.047-0.612,0.463-1.243,1.072-1.319"/>
	</g>
</g>
<g id="Layer_1">
</g>
</svg>
