<?xml version="1.0" encoding="iso-8859-1"?>
<!-- Generator: Adobe Illustrator 23.0.5, SVG Export Plug-In . SVG Version: 6.00 Build 0)  -->
<svg version="1.1" xmlns="http://www.w3.org/2000/svg" xmlns:xlink="http://www.w3.org/1999/xlink" x="0px" y="0px"
	 viewBox="0 0 100 100" style="enable-background:new 0 0 100 100;" xml:space="preserve">
<g id="_x30_3_Gift">
	<g>
		<g>
			<path style="fill:#E74C3C;" d="M67.543,8.374c-2.033,1.175-3.67,2.948-4.576,5.106c-0.896,2.158-1.079,4.605-0.491,6.869
				c-4.302,4.719-14.19,27.494-15.336,7.119c0.125-4.075-0.019-8.227-1.272-12.109c-1.243-3.882-3.709-7.514-7.293-9.46
				c2.148-0.703,4.075-2.312,5.568-4.007c4.056,5.713,6.647,12.36,7.254,19.296c0.732-3.16,2.505-6.233,4.171-8.95
				c2.168-3.535,5.318-6.454,9.007-8.352C64.441,5.782,65.866,7.468,67.543,8.374z"/>
			<path style="fill:none;stroke:#000000;stroke-width:2;stroke-linecap:round;stroke-linejoin:round;stroke-miterlimit:10;" d="
				M47.136,27.469c0.13-4.078-0.02-8.228-1.268-12.112c-1.248-3.884-3.709-7.512-7.297-9.455c2.148-0.703,4.082-2.314,5.575-4.011
				c4.615,6.497,7.32,14.188,7.385,22.157"/>
			<path style="fill:none;stroke:#000000;stroke-width:2;stroke-linecap:round;stroke-linejoin:round;stroke-miterlimit:10;" d="
				M51.531,24.047c0.02-4.146,1.865-8.28,4.035-11.814c2.169-3.534,5.323-6.456,9.012-8.35c-0.138,1.896,1.291,3.585,2.96,4.494
				c-2.023,1.169-3.665,2.946-4.568,5.101s-1.08,4.607-0.494,6.869"/>
			<path style="fill:#E74C3C;" d="M49.48,38.17l-2.495-0.048c-4.99,1.098-10.317,0.53-14.97-1.58
				c-3.218-1.464-6.262-3.863-7.35-7.235c-0.696-2.132-0.658-4.79,0.597-7.813c0.405,1.927,1.021,3.767,2.177,5.356
				c1.079,1.464,2.553,2.591,4.065,3.564c4.152,2.649,8.921,4.277,13.814,4.769l0.588,0.279c-1.686-3.092-3.584-6.088-6.031-8.622
				c-2.457-2.514-5.491-4.547-8.901-5.404c-2.901-0.725-4.965-0.26-5.597-0.222c3.278-7.391,8.223-8.782,13.015-6.368
				c2.562,1.281,4.537,3.526,6.098,5.934C47.823,25.907,49.586,32.043,49.48,38.17z"/>
			<path style="fill:none;stroke:#000000;stroke-width:2;stroke-linecap:round;stroke-linejoin:round;stroke-miterlimit:10;" d="
				M49.48,38.17c0.106-6.127-1.657-12.263-4.99-17.388c-1.561-2.408-3.535-4.653-6.098-5.934c-2.563-1.291-5.809-1.484-8.227,0.058
				c-2.003,1.268-4.089,4.544-4.903,6.58v0.01c-0.125,0.289-0.241,0.578-0.328,0.877c-0.082,0.109-1.358,3.603-0.27,6.936
				c1.089,3.372,4.133,5.77,7.35,7.235c4.653,2.11,9.98,2.678,14.97,1.58"/>
			<path style="fill:none;stroke:#000000;stroke-width:2;stroke-linecap:round;stroke-linejoin:round;stroke-miterlimit:10;" d="
				M25.377,21.215c0.369-0.023,2.606-0.526,5.597,0.222c3.41,0.857,6.445,2.89,8.901,5.404c2.447,2.534,4.345,5.53,6.031,8.622
				l-0.588-0.279c-4.894-0.491-9.662-2.119-13.814-4.769c-1.512-0.973-2.986-2.1-4.065-3.564c-1.473-2.025-1.796-3.957-2.177-5.366"
				/>
			<path style="fill:#E74C3C;" d="M76.55,31.147c-0.424,1.888-1.185,3.767-2.668,4.99c-1.946,1.59-4.643,1.705-7.138,1.763
				c-4.682,0.106-9.344,0.212-14.026,0.308c0.164-0.058,0.308-0.116,0.462-0.173l-2.225-1.647c0.761-1.705,1.541-3.41,2.322-5.135
				c1.551-3.401,3.112-6.84,5.289-9.874c2.187-3.025,5.077-5.693,8.593-6.975c1.368-0.501,2.89-0.78,4.248-0.25
				c1.32,0.52,2.235,1.715,2.957,2.919C75.5,19,76.27,21.119,76.685,23.306c-3.516,0.27-6.955,1.175-10.134,2.697
				c-3.545,1.686-6.724,4.113-9.287,7.09c0.645,0.289,1.329,0.501,2.033,0.636c1.223,0.25,2.495,0.299,3.738,0.154
				c2.437-0.26,4.769-1.204,6.917-2.408c2.63-1.484,5-3.381,7.042-5.616C77.099,27.631,76.954,29.413,76.55,31.147z"/>
			<path style="fill:#E74C3C;" d="M59.296,33.729l-4.518,2.707c0.751-1.166,1.58-2.283,2.485-3.343
				C57.909,33.382,58.593,33.594,59.296,33.729z"/>
			<path style="fill:none;stroke:#000000;stroke-width:2;stroke-linecap:round;stroke-linejoin:round;stroke-miterlimit:10;" d="
				M53.176,38.036c-0.147,0.059-0.294,0.118-0.456,0.177c4.679-0.103,9.343-0.206,14.021-0.309c2.501-0.059,5.194-0.177,7.136-1.766
				c1.486-1.221,2.251-3.104,2.678-4.988c0.397-1.736,0.544-3.516,0.441-5.297c-0.044-0.853-0.147-1.707-0.309-2.545
				c-0.412-2.192-1.192-4.311-2.325-6.238c-0.721-1.206-1.633-2.398-2.957-2.913c-1.354-0.53-2.884-0.25-4.252,0.25
				c-3.516,1.28-6.4,3.943-8.592,6.974c-2.178,3.031-3.737,6.474-5.282,9.872c-0.78,1.721-1.56,3.428-2.325,5.135"/>
			<path style="fill:none;stroke:#000000;stroke-width:2;stroke-linecap:round;stroke-linejoin:round;stroke-miterlimit:10;" d="
				M76.687,23.309c-3.516,0.265-6.959,1.177-10.137,2.692c-3.546,1.692-6.724,4.12-9.284,7.092c-0.912,1.059-1.736,2.178-2.486,3.34
				"/>
			<path style="fill:none;stroke:#000000;stroke-width:2;stroke-linecap:round;stroke-linejoin:round;stroke-miterlimit:10;" d="
				M57.266,33.093c1.78,0.78,3.811,1.015,5.767,0.794c2.442-0.265,4.767-1.206,6.915-2.413c2.634-1.486,5.002-3.384,7.048-5.62"/>
			<path style="fill:#FFFFFF;" d="M87.304,90.806c0.559-0.503,1.054-1.116,1.471-1.864c1.921-3.444,1.375-7.251,1.522-10.997
				c0.169-4.3,0.245-8.603,0.236-12.906c-0.01-4.718-0.122-9.436-0.321-14.15c-0.154-3.639,0.504-7.914-1.486-11.1
				c-0.724-1.16-1.745-2.176-3.018-2.674c-1.248-0.488-2.631-0.449-3.971-0.403c-15.76,0.545-31.585,0.5-47.378,0.611
				c-4.949,0.035-9.9,0.16-14.837,0.505c-3.507,0.245-7.715-0.169-9.631,3.499c-0.973,1.863-0.829,3.886-0.682,5.908
				c0.137,1.875-0.097,3.774-0.042,5.681c0.138,4.767,0.275,9.535,0.413,14.302c0.133,4.605,0.266,9.21,0.399,13.816
				c0.061,2.12-0.114,3.979-0.3,6.044c-0.168,1.868,0.362,3.806,1.497,5.303c1.939,2.558,4.523,3.085,7.428,2.525
				c3.842-0.74,8.116-0.554,12.022-0.757c7.946-0.412,15.898-0.683,23.85-0.931c6.179-0.193,12.361-0.351,18.543-0.438
				C77.644,92.714,83.751,94.003,87.304,90.806z"/>
			<path style="fill:#E74C3C;" d="M9.904,79.775h80.381c0.004-0.168,0.007-0.336,0.013-0.504c0.169-4.776,0.245-9.555,0.236-14.335
				c-0.008-4.264-0.1-8.527-0.235-12.789H9.185c0.132,5.07,0.264,10.139,0.396,15.209C9.689,71.496,9.796,75.636,9.904,79.775z"/>
			<path style="fill:none;stroke:#000000;stroke-width:2;stroke-linecap:round;stroke-linejoin:round;stroke-miterlimit:10;" d="
				M87.304,90.806c0.559-0.503,1.054-1.116,1.471-1.864c1.921-3.444,1.375-7.251,1.522-10.997c0.169-4.3,0.245-8.603,0.236-12.906
				c-0.01-4.718-0.122-9.436-0.321-14.15c-0.154-3.639,0.504-7.914-1.486-11.1c-0.724-1.16-1.745-2.176-3.018-2.674
				c-1.248-0.488-2.631-0.449-3.971-0.403c-15.76,0.545-31.585,0.5-47.378,0.611c-4.949,0.035-9.9,0.16-14.837,0.505
				c-3.507,0.245-7.715-0.169-9.631,3.499c-0.973,1.863-0.829,3.886-0.682,5.908c0.137,1.875-0.097,3.774-0.042,5.681
				c0.138,4.767,0.275,9.535,0.413,14.302c0.133,4.605,0.266,9.21,0.399,13.816c0.061,2.12-0.114,3.979-0.3,6.044
				c-0.168,1.868,0.362,3.806,1.497,5.303c1.939,2.558,4.523,3.085,7.428,2.525c3.842-0.74,8.116-0.554,12.022-0.757
				c7.946-0.412,15.898-0.683,23.85-0.931c6.179-0.193,12.361-0.351,18.543-0.438C77.644,92.714,83.751,94.003,87.304,90.806z"/>
			<path style="fill:#FFFFFF;" d="M46.377,96.78c-0.301-0.214-0.509-0.481-0.547-0.827c-0.087-0.803,0.198-1.804,0.184-2.649
				c-0.034-2.092-0.069-4.184-0.103-6.276c-0.068-4.127-0.135-8.255-0.203-12.382c-0.093-5.689-0.186-11.377-0.329-17.065
				c-0.11-4.395-0.249-8.792-0.59-13.181c-0.17-2.193-0.391-4.384-0.683-6.57c-0.22-1.649-0.677-3.267,1.759-4.224
				c1.482-0.582,3.292-0.557,4.939-0.289c0.837,0.136,1.686,0.343,2.308,0.768c0.958,0.653,0.623,1.376,0.631,2.188
				c0.01,1.001,0.288,2.035,0.407,3.034c0.241,2.024,0.425,4.052,0.569,6.082c0.288,4.062,0.415,8.128,0.516,12.194
				c0.142,5.688,0.235,11.377,0.329,17.065c0.067,4.069,0.133,8.138,0.2,12.207c0.033,2.035,0.067,4.069,0.1,6.104
				c0.025,1.545,0.88,3.354-1.069,4.481c-0.929,0.536-2.18,0.722-3.369,0.663c-1.189-0.059-2.334-0.342-3.442-0.658
				C47.41,97.277,46.801,97.081,46.377,96.78z"/>
			<path style="fill:none;stroke:#000000;stroke-width:2;stroke-linecap:round;stroke-linejoin:round;stroke-miterlimit:10;" d="
				M46.377,96.78c-0.301-0.214-0.509-0.481-0.547-0.827c-0.087-0.803,0.198-1.804,0.184-2.649c-0.034-2.092-0.069-4.184-0.103-6.276
				c-0.068-4.127-0.135-8.255-0.203-12.382c-0.093-5.689-0.186-11.377-0.329-17.065c-0.11-4.395-0.249-8.792-0.59-13.181
				c-0.17-2.193-0.391-4.384-0.683-6.57c-0.22-1.649-0.677-3.267,1.759-4.224c1.482-0.582,3.292-0.557,4.939-0.289
				c0.837,0.136,1.686,0.343,2.308,0.768c0.958,0.653,0.623,1.376,0.631,2.188c0.01,1.001,0.288,2.035,0.407,3.034
				c0.241,2.024,0.425,4.052,0.569,6.082c0.288,4.062,0.415,8.128,0.516,12.194c0.142,5.688,0.235,11.377,0.329,17.065
				c0.067,4.069,0.133,8.138,0.2,12.207c0.033,2.035,0.067,4.069,0.1,6.104c0.025,1.545,0.88,3.354-1.069,4.481
				c-0.929,0.536-2.18,0.722-3.369,0.663c-1.189-0.059-2.334-0.342-3.442-0.658C47.41,97.277,46.801,97.081,46.377,96.78z"/>
			<path style="fill:#FFFFFF;" d="M93.423,69.244c-0.298,0.301-0.67,0.509-1.152,0.547c-1.119,0.087-2.514-0.198-3.692-0.184
				c-2.915,0.034-5.831,0.069-8.746,0.103c-5.752,0.068-11.504,0.135-17.257,0.203c-7.928,0.093-15.856,0.186-23.783,0.329
				c-6.126,0.11-12.252,0.249-18.37,0.59c-3.056,0.17-6.11,0.391-9.156,0.683c-2.298,0.22-4.553,0.677-5.887-1.759
				c-0.811-1.482-0.777-3.292-0.403-4.939c0.19-0.837,0.478-1.686,1.07-2.308c0.911-0.958,1.917-0.623,3.049-0.631
				c1.395-0.01,2.836-0.288,4.228-0.407c2.821-0.241,5.648-0.425,8.476-0.569c5.661-0.288,11.328-0.415,16.994-0.517
				c7.927-0.142,15.855-0.235,23.783-0.329c5.671-0.067,11.342-0.133,17.013-0.2c2.835-0.033,5.671-0.067,8.506-0.1
				c2.154-0.025,4.675-0.88,6.244,1.069c0.748,0.929,1.006,2.18,0.923,3.369c-0.082,1.189-0.476,2.334-0.916,3.442
				C94.116,68.211,93.843,68.82,93.423,69.244z"/>
			<path style="fill:none;stroke:#000000;stroke-width:2;stroke-linecap:round;stroke-linejoin:round;stroke-miterlimit:10;" d="
				M93.423,69.244c-0.298,0.301-0.67,0.509-1.152,0.547c-1.119,0.087-2.514-0.198-3.692-0.184c-2.915,0.034-5.831,0.069-8.746,0.103
				c-5.752,0.068-11.504,0.135-17.257,0.203c-7.928,0.093-15.856,0.186-23.783,0.329c-6.126,0.11-12.252,0.249-18.37,0.59
				c-3.056,0.17-6.11,0.391-9.156,0.683c-2.298,0.22-4.553,0.677-5.887-1.759c-0.811-1.482-0.777-3.292-0.403-4.939
				c0.19-0.837,0.478-1.686,1.07-2.308c0.911-0.958,1.917-0.623,3.049-0.631c1.395-0.01,2.836-0.288,4.228-0.407
				c2.821-0.241,5.648-0.425,8.476-0.569c5.661-0.288,11.328-0.415,16.994-0.517c7.927-0.142,15.855-0.235,23.783-0.329
				c5.671-0.067,11.342-0.133,17.013-0.2c2.835-0.033,5.671-0.067,8.506-0.1c2.154-0.025,4.675-0.88,6.244,1.069
				c0.748,0.929,1.006,2.18,0.923,3.369c-0.082,1.189-0.476,2.334-0.916,3.442C94.116,68.211,93.843,68.82,93.423,69.244z"/>
			<g>
				<polyline style="fill:none;stroke:#000000;stroke-linecap:round;stroke-linejoin:round;stroke-miterlimit:10;" points="
					8.374,61.849 4.867,65.365 4.858,65.375 				"/>
				
					<line style="fill:none;stroke:#000000;stroke-linecap:round;stroke-linejoin:round;stroke-miterlimit:10;" x1="12.449" y1="61.56" x2="5.041" y2="68.968"/>
				
					<line style="fill:none;stroke:#000000;stroke-linecap:round;stroke-linejoin:round;stroke-miterlimit:10;" x1="16.582" y1="61.213" x2="6.64" y2="71.145"/>
				
					<line style="fill:none;stroke:#000000;stroke-linecap:round;stroke-linejoin:round;stroke-miterlimit:10;" x1="20.618" y1="60.963" x2="9.925" y2="71.646"/>
				<polyline style="fill:none;stroke:#000000;stroke-linecap:round;stroke-linejoin:round;stroke-miterlimit:10;" points="
					24.597,60.77 14.096,71.261 14.086,71.271 				"/>
				
					<line style="fill:none;stroke:#000000;stroke-linecap:round;stroke-linejoin:round;stroke-miterlimit:10;" x1="28.517" y1="60.626" x2="18.181" y2="70.962"/>
				
					<line style="fill:none;stroke:#000000;stroke-linecap:round;stroke-linejoin:round;stroke-miterlimit:10;" x1="32.409" y1="60.52" x2="22.179" y2="70.741"/>
				
					<line style="fill:none;stroke:#000000;stroke-linecap:round;stroke-linejoin:round;stroke-miterlimit:10;" x1="36.282" y1="60.433" x2="26.148" y2="70.567"/>
				
					<line style="fill:none;stroke:#000000;stroke-linecap:round;stroke-linejoin:round;stroke-miterlimit:10;" x1="40.126" y1="60.366" x2="30.049" y2="70.442"/>
				
					<line style="fill:none;stroke:#000000;stroke-linecap:round;stroke-linejoin:round;stroke-miterlimit:10;" x1="43.969" y1="60.308" x2="33.931" y2="70.346"/>
				
					<line style="fill:none;stroke:#000000;stroke-linecap:round;stroke-linejoin:round;stroke-miterlimit:10;" x1="47.813" y1="60.25" x2="37.794" y2="70.259"/>
				
					<line style="fill:none;stroke:#000000;stroke-linecap:round;stroke-linejoin:round;stroke-miterlimit:10;" x1="51.647" y1="60.192" x2="41.638" y2="70.192"/>
				
					<line style="fill:none;stroke:#000000;stroke-linecap:round;stroke-linejoin:round;stroke-miterlimit:10;" x1="55.481" y1="60.144" x2="45.492" y2="70.134"/>
				
					<line style="fill:none;stroke:#000000;stroke-linecap:round;stroke-linejoin:round;stroke-miterlimit:10;" x1="59.306" y1="60.096" x2="49.326" y2="70.076"/>
				
					<line style="fill:none;stroke:#000000;stroke-linecap:round;stroke-linejoin:round;stroke-miterlimit:10;" x1="63.13" y1="60.048" x2="53.16" y2="70.028"/>
				
					<line style="fill:none;stroke:#000000;stroke-linecap:round;stroke-linejoin:round;stroke-miterlimit:10;" x1="66.965" y1="60.009" x2="56.994" y2="69.98"/>
				
					<line style="fill:none;stroke:#000000;stroke-linecap:round;stroke-linejoin:round;stroke-miterlimit:10;" x1="70.799" y1="59.961" x2="60.818" y2="69.932"/>
				
					<line style="fill:none;stroke:#000000;stroke-linecap:round;stroke-linejoin:round;stroke-miterlimit:10;" x1="74.614" y1="59.913" x2="64.643" y2="69.883"/>
				
					<line style="fill:none;stroke:#000000;stroke-linecap:round;stroke-linejoin:round;stroke-miterlimit:10;" x1="78.448" y1="59.865" x2="68.477" y2="69.845"/>
				
					<line style="fill:none;stroke:#000000;stroke-linecap:round;stroke-linejoin:round;stroke-miterlimit:10;" x1="82.282" y1="59.826" x2="72.301" y2="69.797"/>
				
					<line style="fill:none;stroke:#000000;stroke-linecap:round;stroke-linejoin:round;stroke-miterlimit:10;" x1="86.106" y1="59.778" x2="76.126" y2="69.758"/>
				
					<line style="fill:none;stroke:#000000;stroke-linecap:round;stroke-linejoin:round;stroke-miterlimit:10;" x1="90.056" y1="59.614" x2="79.96" y2="69.71"/>
				
					<line style="fill:none;stroke:#000000;stroke-linecap:round;stroke-linejoin:round;stroke-miterlimit:10;" x1="93.418" y1="60.028" x2="83.785" y2="69.662"/>
				
					<line style="fill:none;stroke:#000000;stroke-linecap:round;stroke-linejoin:round;stroke-miterlimit:10;" x1="95.046" y1="62.186" x2="87.619" y2="69.614"/>
				<polyline style="fill:none;stroke:#000000;stroke-linecap:round;stroke-linejoin:round;stroke-miterlimit:10;" points="
					94.882,66.136 94.873,66.146 91.231,69.787 				"/>
			</g>
			<g>
				
					<line style="fill:none;stroke:#000000;stroke-linecap:round;stroke-linejoin:round;stroke-miterlimit:10;" x1="48.439" y1="33.141" x2="44.066" y2="37.515"/>
				
					<line style="fill:none;stroke:#000000;stroke-linecap:round;stroke-linejoin:round;stroke-miterlimit:10;" x1="51.83" y1="33.536" x2="44.47" y2="40.887"/>
				
					<line style="fill:none;stroke:#000000;stroke-linecap:round;stroke-linejoin:round;stroke-miterlimit:10;" x1="53.796" y1="35.338" x2="44.788" y2="44.355"/>
				
					<line style="fill:none;stroke:#000000;stroke-linecap:round;stroke-linejoin:round;stroke-miterlimit:10;" x1="54.085" y1="38.835" x2="45.02" y2="47.9"/>
				
					<line style="fill:none;stroke:#000000;stroke-linecap:round;stroke-linejoin:round;stroke-miterlimit:10;" x1="54.46" y1="42.245" x2="45.193" y2="51.522"/>
				
					<line style="fill:none;stroke:#000000;stroke-linecap:round;stroke-linejoin:round;stroke-miterlimit:10;" x1="54.74" y1="45.742" x2="45.318" y2="55.173"/>
				
					<line style="fill:none;stroke:#000000;stroke-linecap:round;stroke-linejoin:round;stroke-miterlimit:10;" x1="54.952" y1="49.326" x2="45.405" y2="58.872"/>
				
					<line style="fill:none;stroke:#000000;stroke-linecap:round;stroke-linejoin:round;stroke-miterlimit:10;" x1="55.096" y1="52.957" x2="45.482" y2="62.572"/>
				
					<line style="fill:none;stroke:#000000;stroke-linecap:round;stroke-linejoin:round;stroke-miterlimit:10;" x1="55.212" y1="56.618" x2="45.559" y2="66.271"/>
				
					<line style="fill:none;stroke:#000000;stroke-linecap:round;stroke-linejoin:round;stroke-miterlimit:10;" x1="55.298" y1="60.317" x2="45.626" y2="69.989"/>
				
					<line style="fill:none;stroke:#000000;stroke-linecap:round;stroke-linejoin:round;stroke-miterlimit:10;" x1="55.385" y1="64.026" x2="45.694" y2="73.708"/>
				
					<line style="fill:none;stroke:#000000;stroke-linecap:round;stroke-linejoin:round;stroke-miterlimit:10;" x1="55.453" y1="67.726" x2="45.761" y2="77.426"/>
				
					<line style="fill:none;stroke:#000000;stroke-linecap:round;stroke-linejoin:round;stroke-miterlimit:10;" x1="55.52" y1="71.454" x2="45.819" y2="81.145"/>
				
					<line style="fill:none;stroke:#000000;stroke-linecap:round;stroke-linejoin:round;stroke-miterlimit:10;" x1="55.578" y1="75.182" x2="45.877" y2="84.873"/>
				
					<line style="fill:none;stroke:#000000;stroke-linecap:round;stroke-linejoin:round;stroke-miterlimit:10;" x1="55.636" y1="78.891" x2="45.935" y2="88.592"/>
				
					<line style="fill:none;stroke:#000000;stroke-linecap:round;stroke-linejoin:round;stroke-miterlimit:10;" x1="55.703" y1="82.619" x2="45.992" y2="92.32"/>
				
					<line style="fill:none;stroke:#000000;stroke-linecap:round;stroke-linejoin:round;stroke-miterlimit:10;" x1="55.761" y1="86.337" x2="45.896" y2="96.212"/>
				
					<line style="fill:none;stroke:#000000;stroke-linecap:round;stroke-linejoin:round;stroke-miterlimit:10;" x1="55.819" y1="90.056" x2="48.333" y2="97.541"/>
				
					<line style="fill:none;stroke:#000000;stroke-linecap:round;stroke-linejoin:round;stroke-miterlimit:10;" x1="55.934" y1="93.736" x2="51.561" y2="98.1"/>
			</g>
		</g>
		<path style="fill:none;stroke:#000000;stroke-linecap:round;stroke-linejoin:round;stroke-miterlimit:10;" d="M14.665,55.502
			c0.171-2.026-0.439-4.027-0.697-6.044c-0.258-2.017-0.078-4.285,1.35-5.732c1.169-1.185,2.927-1.562,4.589-1.659
			c1.662-0.096,3.356,0.029,4.967-0.387"/>
		<path style="fill:none;stroke:#000000;stroke-linecap:round;stroke-linejoin:round;stroke-miterlimit:10;" d="M27.702,41.317
			c0.594,0.045,1.188,0.091,1.781,0.136"/>
		<path style="fill:none;stroke:#000000;stroke-linecap:round;stroke-linejoin:round;stroke-miterlimit:10;" d="M18.746,53.755
			c-0.792-1.155-1.115-2.622-0.881-4.003s1.02-2.66,2.148-3.491c1.857-1.369,4.339-1.429,6.646-1.435"/>
		<path style="fill:none;stroke:#000000;stroke-linecap:round;stroke-linejoin:round;stroke-miterlimit:10;" d="M63.825,87.18
			c6.548-0.092,13.096-0.184,19.644-0.277"/>
		<path style="fill:none;stroke:#000000;stroke-linecap:round;stroke-linejoin:round;stroke-miterlimit:10;" d="M85.464,86.911
			c0.634-0.093,1.268-0.186,1.902-0.279"/>
		<path style="fill:none;stroke:#000000;stroke-linecap:round;stroke-linejoin:round;stroke-miterlimit:10;" d="M72.776,84.831
			c4.255,0.086,8.511,0.172,12.766,0.257"/>
		<path style="fill:none;stroke:#000000;stroke-linecap:round;stroke-linejoin:round;stroke-miterlimit:10;" d="M14.696,76.183
			c-0.14,4.81-0.28,9.62-0.42,14.43"/>
		<path style="fill:none;stroke:#000000;stroke-linecap:round;stroke-linejoin:round;stroke-miterlimit:10;" d="M16.53,87.956
			c0.028-2.487,0.056-4.973,0.085-7.46"/>
		<path style="fill:none;stroke:#000000;stroke-linecap:round;stroke-linejoin:round;stroke-miterlimit:10;" d="M72.611,41.075
			c2.208-0.379,4.461-0.76,6.677-0.434c2.217,0.326,4.431,1.483,5.458,3.475c1.199,2.326,0.545,5.133-0.135,7.66"/>
		<path style="fill:none;stroke:#000000;stroke-linecap:round;stroke-linejoin:round;stroke-miterlimit:10;" d="M59.088,26.739
			c0.987-1.996,1.994-4.021,3.502-5.659c1.508-1.637,3.615-2.863,5.84-2.798"/>
		<path style="fill:none;stroke:#000000;stroke-linecap:round;stroke-linejoin:round;stroke-miterlimit:10;" d="M69.963,18.107
			c0.334,0.092,0.667,0.183,1.001,0.275"/>
		<path style="fill:none;stroke:#000000;stroke-linecap:round;stroke-linejoin:round;stroke-miterlimit:10;" d="M33.606,17.079
			c2.049,0.053,4.072,0.847,5.609,2.203c2.022,1.784,3.11,4.37,4.134,6.864"/>
		<path style="fill:none;stroke:#000000;stroke-linecap:round;stroke-linejoin:round;stroke-miterlimit:10;" d="M55.823,20.037
			c0.175-3.117,1.578-6.148,3.841-8.298"/>
		<path style="fill:none;stroke:#000000;stroke-linecap:round;stroke-linejoin:round;stroke-miterlimit:10;" d="M60.766,10.385
			c0.228-0.258,0.455-0.516,0.683-0.774"/>
	</g>
</g>
<g id="Layer_1">
</g>
</svg>
