<?xml version="1.0" encoding="iso-8859-1"?>
<!-- Generator: Adobe Illustrator 23.0.5, SVG Export Plug-In . SVG Version: 6.00 Build 0)  -->
<svg version="1.1" xmlns="http://www.w3.org/2000/svg" xmlns:xlink="http://www.w3.org/1999/xlink" x="0px" y="0px"
	 viewBox="0 0 100 100" style="enable-background:new 0 0 100 100;" xml:space="preserve">
<g id="Gingerman">
	<g>
		<path style="fill:#E84C3D;" d="M86.871,25.193C82.916,37.058,73.463,46.946,61.794,51.42c1.935,6.311,3.745,13.071,5.68,19.369
			c1.122,3.618,2.23,7.321,2.875,11.052c0.617,3.661,0.771,7.349,0.014,10.968c-0.266,1.29-0.715,2.637-1.753,3.45
			c-1.038,0.813-2.511,0.912-3.787,0.519c-1.276-0.379-2.37-1.178-3.394-2.02c-2.749-2.272-4.853-4.755-6.438-7.153
			c-4.236-6.353-4.937-12.174-5.021-12.384c-0.785,4.404-2.51,8.639-4.993,12.384c-1.767,2.679-3.941,5.105-6.409,7.153
			c-1.024,0.841-2.132,1.641-3.394,2.02c-1.276,0.393-2.749,0.295-3.787-0.519c-1.038-0.813-1.487-2.16-1.753-3.45
			c-0.757-3.618-0.603-7.307,0.014-10.968c0.645-3.731,1.753-7.433,2.875-11.052c1.935-6.297,3.745-13.057,5.68-19.369
			c-11.669-4.474-21.136-14.362-25.077-26.227c-0.856-2.609-1.36-5.792,0.477-7.826c1.837-2.02,5.189-1.837,7.517-0.421
			c2.328,1.403,3.941,3.703,5.694,5.792c3.296,3.927,7.083,7.013,11.557,9.509c-5.063-4.6-6.844-12.482-4.25-18.808
			c5.68-13.913,26.059-13.927,31.753,0c2.595,6.325,0.813,14.207-4.25,18.808c4.474-2.496,8.261-5.582,11.557-9.509
			c1.753-2.09,3.352-4.39,5.694-5.792c2.328-1.417,5.68-1.599,7.517,0.421C88.232,19.401,87.727,22.584,86.871,25.193z"/>
		<path style="fill:none;stroke:#000000;stroke-width:2;stroke-linecap:round;stroke-linejoin:round;stroke-miterlimit:10;" d="
			M86.871,25.193C82.916,37.058,73.463,46.946,61.794,51.42c1.935,6.311,3.745,13.071,5.68,19.369
			c1.122,3.618,2.23,7.321,2.875,11.052c0.617,3.661,0.771,7.349,0.014,10.968c-0.266,1.29-0.715,2.637-1.753,3.45
			c-1.038,0.813-2.511,0.912-3.787,0.519c-1.276-0.379-2.37-1.178-3.394-2.02c-2.749-2.272-4.853-4.755-6.438-7.153
			c-4.236-6.353-4.937-12.174-5.021-12.384c-0.785,4.404-2.51,8.639-4.993,12.384c-1.767,2.679-3.941,5.105-6.409,7.153
			c-1.024,0.841-2.132,1.641-3.394,2.02c-1.276,0.393-2.749,0.295-3.787-0.519c-1.038-0.813-1.487-2.16-1.753-3.45
			c-0.757-3.618-0.603-7.307,0.014-10.968c0.645-3.731,1.753-7.433,2.875-11.052c1.935-6.297,3.745-13.057,5.68-19.369
			c-11.669-4.474-21.136-14.362-25.077-26.227c-0.856-2.609-1.36-5.792,0.477-7.826c1.837-2.02,5.189-1.837,7.517-0.421
			c2.328,1.403,3.941,3.703,5.694,5.792c3.296,3.927,7.083,7.013,11.557,9.509c-5.063-4.6-6.844-12.482-4.25-18.808
			c5.68-13.913,26.059-13.927,31.753,0c2.595,6.325,0.813,14.207-4.25,18.808c4.474-2.496,8.261-5.582,11.557-9.509
			c1.753-2.09,3.352-4.39,5.694-5.792c2.328-1.417,5.68-1.599,7.517,0.421C88.232,19.401,87.727,22.584,86.871,25.193z"/>
		<path style="fill:#FFFFFF;" d="M70.347,81.837c0.62,3.666,0.771,7.351,0.019,10.97c-0.273,1.288-0.714,2.641-1.758,3.45
			c-1.034,0.818-2.51,0.912-3.788,0.517c-1.269-0.376-2.369-1.175-3.393-2.021c-2.745-2.265-4.85-4.747-6.439-7.144l7.426-2.792
			c0.103-0.357,0.216-0.724,0.395-1.043c0.837-1.542,2.886-1.833,4.625-1.918C68.401,81.8,69.379,81.753,70.347,81.837z"/>
		<path style="fill:#FFFFFF;" d="M26.75,22.655c-0.423,1.062-1.391,1.899-2.482,2.115l-3.036,2.585
			c0.301,1.137,0.743,2.359-0.094,3.083c-1.1,0.968-2.98-0.461-5.132,1.372c-1.156-2.115-2.115-4.333-2.876-6.618
			c-0.855-2.613-1.363-5.79,0.479-7.83c1.833-2.012,5.189-1.833,7.511-0.414C23.422,18.331,25.011,20.587,26.75,22.655z"/>
		<path style="fill:#FFFFFF;" d="M53.38,41.643c0.038,0.658-0.019,1.325-0.404,1.833c-0.385,0.508-1.025,0.743-1.636,0.902
			c-0.545,0.132-1.166,0.207-1.617-0.113c-0.573-0.395-0.63-1.203-0.62-1.899c0.009-0.254,0.009-0.517,0.028-0.771l-0.019,0.207
			c-0.996,0.498-2.228,1.288-3.92,2.378c-0.526,0.338-1.166,0.686-1.739,0.451c-0.62-0.254-0.799-1.034-0.855-1.701
			c-0.188-1.739-0.197-3.506-0.056-5.245c0.066-0.808,0.263-1.767,0.978-2.143c0.658-0.348,1.476-0.085,2.143,0.226
			c1.814,0.799,2.989,1.448,3.779,1.936c0.019-0.16,0.038-0.31,0.056-0.47c0.047-0.404,0.075-0.818,0.367-1.128
			c0.996-1.015,2.416-0.376,2.895,0.78c0.122,0.282,0.188,0.573,0.244,0.874v-0.028c0.78-0.489,1.974-1.147,3.826-1.965
			c0.677-0.31,1.485-0.573,2.143-0.226c0.714,0.376,0.912,1.335,0.987,2.143c0.141,1.739,0.122,3.506-0.056,5.245
			c-0.075,0.667-0.244,1.448-0.855,1.701c-0.573,0.235-1.222-0.113-1.739-0.451C55.523,43.034,54.348,42.16,53.38,41.643z"/>
		<path style="fill:#FFFFFF;" d="M86.872,25.193c-0.545,1.645-1.203,3.262-1.965,4.822c-2.002-0.432-3.027-1.936-3.036-3.252
			l-2.397-2.566c-1.175,0.301-2.472,0.78-3.224-0.066c-0.545-0.639-0.329-1.57-0.348-2.416c0-0.62-0.141-1.222-0.404-1.767v-0.009
			c1.006-1.156,2.068-2.209,3.375-2.989c2.331-1.419,5.687-1.598,7.52,0.414C88.235,19.402,87.728,22.58,86.872,25.193z"/>
		<path style="fill:#FFFFFF;" d="M44.488,87.43c0.169,0.056,0.329,0.113,0.489,0.179c-1.767,2.679-3.939,5.104-6.411,7.144
			c-1.025,0.846-2.124,1.645-3.393,2.021c-1.278,0.395-2.745,0.301-3.788-0.517c-1.034-0.808-1.485-2.162-1.748-3.45
			c-0.761-3.619-0.602-7.304,0.009-10.97c0.968-0.085,1.955-0.038,2.923,0.019c1.739,0.085,3.769,0.376,4.625,1.918
			c0.179,0.32,0.291,0.686,0.404,1.053L44.488,87.43z"/>
		<path style="fill:none;stroke:#000000;stroke-width:2;stroke-linecap:round;stroke-linejoin:round;stroke-miterlimit:10;" d="
			M26.75,22.655c-0.508,1.269-1.805,2.237-3.149,2.171c-0.611-0.028-1.269-0.263-1.824,0c-2.124,1.015,0.968,4.221-0.639,5.612
			c-1.1,0.968-2.98-0.461-5.132,1.372c-1.156-2.115-2.115-4.333-2.876-6.618c-0.855-2.613-1.363-5.79,0.479-7.83
			c1.833-2.012,5.189-1.833,7.511-0.414C23.422,18.331,25.011,20.587,26.75,22.655z"/>
		<path style="fill:none;stroke:#000000;stroke-width:2;stroke-linecap:round;stroke-linejoin:round;stroke-miterlimit:10;" d="
			M40.925,86.857c1.372,0,2.764,0.254,4.051,0.752c-1.767,2.679-3.939,5.104-6.411,7.144c-1.025,0.846-2.124,1.645-3.393,2.021
			c-1.278,0.395-2.745,0.301-3.788-0.517c-1.034-0.808-1.485-2.162-1.748-3.45c-0.761-3.619-0.602-7.304,0.009-10.97
			c0.968-0.085,1.955-0.038,2.923,0.019c1.739,0.085,3.769,0.376,4.625,1.918c0.461,0.846,0.479,1.983,1.222,2.613
			C39.073,86.941,40.051,86.876,40.925,86.857z"/>
		<path style="fill:none;stroke:#000000;stroke-width:2;stroke-linecap:round;stroke-linejoin:round;stroke-miterlimit:10;" d="
			M70.347,81.837c0.62,3.666,0.771,7.351,0.019,10.97c-0.273,1.288-0.714,2.641-1.758,3.45c-1.034,0.818-2.51,0.912-3.788,0.517
			c-1.269-0.376-2.369-1.175-3.393-2.021c-2.745-2.265-4.85-4.747-6.439-7.144c1.307-0.498,2.698-0.752,4.089-0.752
			c0.865,0.019,1.852,0.085,2.51-0.47c0.743-0.63,0.752-1.767,1.222-2.613c0.837-1.542,2.886-1.833,4.625-1.918
			C68.401,81.8,69.379,81.753,70.347,81.837z"/>
		<path style="fill:none;stroke:#000000;stroke-width:2;stroke-linecap:round;stroke-linejoin:round;stroke-miterlimit:10;" d="
			M86.872,25.193c-0.545,1.645-1.203,3.262-1.965,4.822c-2.096-0.451-3.111-2.068-3.027-3.422c0.028-0.611,0.254-1.278-0.019-1.833
			c-0.949-2.059-4.211,0.94-5.612-0.63c-0.545-0.639-0.329-1.57-0.348-2.416c0-0.62-0.141-1.222-0.404-1.767
			c0.996-1.156,2.068-2.218,3.375-2.999c2.331-1.419,5.687-1.598,7.52,0.414C88.235,19.402,87.728,22.58,86.872,25.193z"/>
		<path style="fill:none;stroke:#000000;stroke-width:2;stroke-linecap:round;stroke-linejoin:round;stroke-miterlimit:10;" d="
			M16.006,31.81c2.153-1.833,4.033-0.404,5.132-1.372c1.607-1.391-1.485-4.597,0.639-5.612c0.555-0.263,1.213-0.028,1.824,0
			c1.344,0.066,2.641-0.902,3.149-2.171"/>
		<path style="fill:none;stroke:#000000;stroke-width:2;stroke-linecap:round;stroke-linejoin:round;stroke-miterlimit:10;" d="
			M75.498,19.938v0.009c0.263,0.545,0.404,1.147,0.404,1.767c0.019,0.846-0.197,1.777,0.348,2.416
			c1.401,1.57,4.662-1.429,5.612,0.63c0.273,0.555,0.047,1.222,0.019,1.833c-0.085,1.354,0.931,2.97,3.027,3.422"/>
		<path style="fill:none;stroke:#000000;stroke-width:2;stroke-linecap:round;stroke-linejoin:round;stroke-miterlimit:10;" d="
			M29.645,81.837c0.968-0.085,1.955-0.038,2.923,0.019c1.739,0.085,3.769,0.376,4.625,1.918c0.461,0.846,0.479,1.983,1.222,2.613
			c0.658,0.555,1.636,0.489,2.51,0.47c1.372,0,2.764,0.254,4.051,0.752"/>
		<path style="fill:none;stroke:#000000;stroke-width:2;stroke-linecap:round;stroke-linejoin:round;stroke-miterlimit:10;" d="
			M54.987,87.609c1.307-0.498,2.698-0.752,4.089-0.752c0.865,0.019,1.852,0.085,2.51-0.47c0.743-0.63,0.752-1.767,1.222-2.613
			c0.837-1.542,2.886-1.833,4.625-1.918c0.968-0.056,1.946-0.103,2.914-0.019"/>
		<path style="fill:none;stroke:#000000;stroke-width:2;stroke-linecap:round;stroke-linejoin:round;stroke-miterlimit:10;" d="
			M49.116,41.799c-0.996,0.505-2.23,1.29-3.927,2.384c-0.519,0.337-1.164,0.687-1.739,0.449c-0.617-0.252-0.799-1.038-0.856-1.697
			c-0.182-1.739-0.196-3.506-0.056-5.245c0.07-0.813,0.266-1.767,0.982-2.146c0.659-0.351,1.473-0.084,2.146,0.224
			c1.809,0.799,2.987,1.445,3.773,1.935"/>
		<path style="fill:none;stroke:#000000;stroke-width:2;stroke-linecap:round;stroke-linejoin:round;stroke-miterlimit:10;" d="
			M53.001,37.731c0.785-0.491,1.978-1.15,3.829-1.964c0.673-0.309,1.487-0.575,2.146-0.224c0.715,0.379,0.912,1.332,0.982,2.146
			c0.14,1.739,0.126,3.506-0.056,5.245c-0.07,0.659-0.238,1.445-0.856,1.697c-0.575,0.238-1.22-0.112-1.739-0.449
			c-1.781-1.15-2.959-2.02-3.927-2.539"/>
		<path style="fill:none;stroke:#000000;stroke-width:2;stroke-linecap:round;stroke-linejoin:round;stroke-miterlimit:10;" d="
			M49.102,42.37c-0.012,0.694,0.049,1.501,0.619,1.898c0.457,0.318,1.075,0.244,1.615,0.108c0.618-0.155,1.256-0.397,1.641-0.904
			c0.499-0.656,0.443-1.564,0.365-2.384c-0.077-0.806-0.154-1.612-0.231-2.418c-0.058-0.606-0.118-1.223-0.352-1.785
			c-0.481-1.158-1.901-1.793-2.893-0.777c-0.298,0.305-0.318,0.721-0.371,1.123c-0.104,0.789-0.194,1.579-0.258,2.372
			C49.162,40.524,49.117,41.447,49.102,42.37z"/>
		<path style="fill:none;stroke:#000000;stroke-width:2;stroke-linecap:round;stroke-linejoin:round;stroke-miterlimit:10;" d="
			M51.199,49.438c0.029,0.364,0.058,0.727,0.088,1.091"/>
		<path style="fill:none;stroke:#000000;stroke-width:2;stroke-linecap:round;stroke-linejoin:round;stroke-miterlimit:10;" d="
			M51.191,57.582c0.061,0.393,0.123,0.787,0.184,1.18"/>
		<path style="fill:none;stroke:#000000;stroke-width:2;stroke-linecap:round;stroke-linejoin:round;stroke-miterlimit:10;" d="
			M45.398,19.178c-0.049,0.317-0.097,0.633-0.146,0.95"/>
		<path style="fill:none;stroke:#000000;stroke-width:2;stroke-linecap:round;stroke-linejoin:round;stroke-miterlimit:10;" d="
			M56.066,19.324c-0.024,0.268-0.049,0.536-0.073,0.804"/>
		<path style="fill:none;stroke:#000000;stroke-width:2;stroke-linecap:round;stroke-linejoin:round;stroke-miterlimit:10;" d="
			M44.912,27.222c1.379,1.885,3.737,3.011,6.07,2.898c2.333-0.113,4.571-1.461,5.762-3.47"/>
		<path style="fill:none;stroke:#000000;stroke-width:2;stroke-linecap:round;stroke-linejoin:round;stroke-miterlimit:10;" d="
			M43.156,14.157c0.663-0.703,1.671-1.065,2.629-0.943"/>
		<path style="fill:none;stroke:#000000;stroke-width:2;stroke-linecap:round;stroke-linejoin:round;stroke-miterlimit:10;" d="
			M55.917,12.852c1.035-0.163,2.144,0.336,2.708,1.219"/>
		<path style="fill:none;stroke:#000000;stroke-linecap:round;stroke-linejoin:round;stroke-miterlimit:10;" d="M33.74,75.311
			c0.135-0.304,0.27-0.608,0.405-0.911"/>
		<path style="fill:none;stroke:#000000;stroke-linecap:round;stroke-linejoin:round;stroke-miterlimit:10;" d="M34.811,72.972
			c1.438-6.408,3.443-12.689,5.985-18.745"/>
		<path style="fill:none;stroke:#000000;stroke-linecap:round;stroke-linejoin:round;stroke-miterlimit:10;" d="M36.067,75.699
			c1.839-5.71,3.678-11.421,5.517-17.131"/>
		<path style="fill:none;stroke:#000000;stroke-linecap:round;stroke-linejoin:round;stroke-miterlimit:10;" d="M64.243,46.841
			c6.273-3.525,11.545-8.811,15.055-15.093"/>
		<path style="fill:none;stroke:#000000;stroke-linecap:round;stroke-linejoin:round;stroke-miterlimit:10;" d="M67.309,41.604
			c3.211-2.809,6.039-6.055,8.383-9.62"/>
		<path style="fill:none;stroke:#000000;stroke-linecap:round;stroke-linejoin:round;stroke-miterlimit:10;" d="M84.281,18.719
			c1.101,1.456,1.314,3.532,0.532,5.181"/>
		<path style="fill:none;stroke:#000000;stroke-linecap:round;stroke-linejoin:round;stroke-miterlimit:10;" d="M35.525,20.964
			c-0.077-0.526-0.154-1.052-0.23-1.578"/>
		<path style="fill:none;stroke:#000000;stroke-linecap:round;stroke-linejoin:round;stroke-miterlimit:10;" d="M35.332,17.601
			c1.121-4.922,4.993-9.121,9.808-10.637"/>
		<path style="fill:none;stroke:#000000;stroke-linecap:round;stroke-linejoin:round;stroke-miterlimit:10;" d="M21.118,34.905
			c2.926,5.287,7.764,9.49,13.408,11.646"/>
		<path style="fill:none;stroke:#000000;stroke-linecap:round;stroke-linejoin:round;stroke-miterlimit:10;" d="M36.374,47.064
			c0.281,0.052,0.562,0.104,0.844,0.156"/>
		<path style="fill:none;stroke:#000000;stroke-linecap:round;stroke-linejoin:round;stroke-miterlimit:10;" d="M59.846,57.26
			c2.719,6.143,4.662,12.628,5.77,19.254"/>
		<path style="fill:none;stroke:#000000;stroke-linecap:round;stroke-linejoin:round;stroke-miterlimit:10;" d="M67.922,86.019
			c0.366,1.787,0.402,3.641,0.107,5.441c-0.078,0.472-0.185,0.957-0.47,1.342c-0.285,0.384-0.792,0.642-1.249,0.501"/>
		<path style="fill:none;stroke:#000000;stroke-linecap:round;stroke-linejoin:round;stroke-miterlimit:10;" d="M33.151,94.018
			c2.118,0.04,4.235-0.886,5.644-2.468"/>
		<path style="fill:none;stroke:#000000;stroke-linecap:round;stroke-linejoin:round;stroke-miterlimit:10;" d="M39.99,90.249
			c0.135-0.116,0.27-0.232,0.406-0.348"/>
		<path style="fill:none;stroke:#000000;stroke-linecap:round;stroke-linejoin:round;stroke-miterlimit:10;" d="M14.809,23.1
			c-0.018-0.338-0.037-0.675-0.055-1.013"/>
		<path style="fill:none;stroke:#000000;stroke-linecap:round;stroke-linejoin:round;stroke-miterlimit:10;" d="M14.959,20.507
			c0.32-0.903,1.17-1.561,2.102-1.784s1.927-0.05,2.803,0.338s1.645,0.982,2.361,1.618"/>
	</g>
</g>
<g id="Layer_1">
</g>
</svg>
