<?xml version="1.0" encoding="iso-8859-1"?>
<!-- Generator: Adobe Illustrator 23.0.5, SVG Export Plug-In . SVG Version: 6.00 Build 0)  -->
<svg version="1.1" xmlns="http://www.w3.org/2000/svg" xmlns:xlink="http://www.w3.org/1999/xlink" x="0px" y="0px"
	 viewBox="0 0 100 100" style="enable-background:new 0 0 100 100;" xml:space="preserve">
<g id="_x30_6_Github_Logo">
	<g>
		<g>
			<path style="fill:#E74C3C;" d="M79.86,53.002c-0.48,2.54-1.2,5.08-2.55,7.28c-1.9,3.08-4.95,5.31-8.24,6.81
				c-3.28,1.49-6.8,2.63-10.32,3.46c1.97,0.73,3.32,2.62,3.93,4.62c0.63,2,0.62,4.14,0.6,6.24c-0.04,4.91-0.07,9.84-0.11,14.75
				c-8.768,1.96-17.511,2.024-26.23,0.16c-0.02-4.24-0.06-8.48-0.1-12.72c-1.21,0.59-2.49,1.05-3.82,1.28
				c-2.39,0.4-5.01-0.04-6.84-1.62c-2.06-1.76-2.82-4.56-4.06-6.96c-1.14-2.22-2.79-4.16-4.75-5.68c-1.65-1.28-0.62-4,1.44-3.72
				c0.98,0.15,1.92,0.54,2.69,1.22c1.55,1.36,2.24,3.45,3.61,5c1.85,2.11,4.78,3,7.58,3c1.57,0,3.11-0.25,4.63-0.6
				c0.03-0.12,0.05-0.24,0.09-0.35c0.61-2,1.98-3.89,3.95-4.62c-3.52-0.83-7.04-1.97-10.32-3.46c-3.29-1.5-6.35-3.73-8.24-6.81
				c-1.35-2.2-2.07-4.74-2.55-7.28c-0.64-3.31-0.9-6.76-0.3-10.08c0.61-3.32,2.13-6.55,4.68-8.78c-1.71-4.27-1.24-9.66,0.57-13.88
				c4.78,0.13,9.59,2.21,12.79,5.76c5.81-2.68,18.31-2.68,24.13,0c3.2-3.55,8.01-5.63,12.78-5.76c1.81,4.22,2.29,9.61,0.57,13.88
				c2.54,2.23,4.08,5.46,4.68,8.78C80.76,46.242,80.49,49.692,79.86,53.002z"/>
			<path style="fill:#FFFFFF;" d="M97.71,53.182c-0.1,1.59-0.28,3.18-0.54,4.76c-0.29,1.83-0.69,3.64-1.2,5.42
				c-0.64,2.29-1.45,4.52-2.44,6.68c-0.53,1.18-1.11,2.34-1.74,3.47c-4.91,8.79-12.71,15.88-21.84,20.11
				c-2.19,1.02-4.46,1.87-6.78,2.54c0.01-1.41,0.02-2.83,0.03-4.25c0.01-1.41,0.02-2.83,0.03-4.25c0.01-1.42,0.02-2.83,0.03-4.25
				c0.01-0.67,0.01-1.33,0.02-2c0.01-0.75,0.01-1.5-0.01-2.24c-0.04-1.26-0.16-2.52-0.51-3.72c-0.02-0.09-0.05-0.19-0.08-0.28
				c-0.27-0.91-0.71-1.79-1.3-2.56c-0.59-0.82-1.37-1.5-2.3-1.92c-0.11-0.05-0.22-0.1-0.33-0.14c0.21-0.05,0.42-0.1,0.63-0.16
				c2.03-0.49,4.06-1.1,6.04-1.82c1.24-0.45,2.46-0.94,3.65-1.48c3.29-1.5,6.34-3.73,8.24-6.81c1.1-1.79,1.78-3.8,2.25-5.85
				c0.11-0.47,0.21-0.95,0.3-1.43c0.22-1.18,0.4-2.39,0.51-3.6c0.13-1.42,0.16-2.85,0.05-4.27c-0.04-0.74-0.13-1.48-0.27-2.21
				c-0.09-0.48-0.19-0.96-0.32-1.43c-0.28-1.06-0.66-2.1-1.15-3.08c-0.45-0.92-0.99-1.79-1.63-2.59c-0.47-0.6-1-1.17-1.58-1.68
				c0.19-0.47,0.35-0.96,0.49-1.45c0.42-1.53,0.6-3.15,0.57-4.79c-0.02-1.28-0.17-2.56-0.43-3.81c-0.23-1.12-0.56-2.22-0.97-3.25
				c-0.07-0.2-0.15-0.39-0.23-0.58c-1.33,0.03-2.67,0.22-3.97,0.56c-3.36,0.85-6.5,2.64-8.81,5.2c-0.14-0.06-0.28-0.13-0.43-0.18
				c-0.94-0.4-2.04-0.73-3.24-0.99c-1.13-0.26-2.36-0.45-3.64-0.59c-1.29-0.14-2.63-0.22-3.98-0.24c-1.46-0.03-2.93,0.02-4.35,0.13
				c-1.75,0.14-3.44,0.38-4.95,0.73c-1.33,0.3-2.54,0.68-3.54,1.14c-0.29-0.32-0.59-0.63-0.91-0.93c-0.73-0.69-1.52-1.31-2.37-1.85
				c-0.87-0.58-1.79-1.07-2.75-1.47c-1.02-0.45-2.09-0.8-3.17-1.05c-1.18-0.27-2.39-0.43-3.59-0.46c-0.73,1.7-1.24,3.59-1.47,5.52
				c-0.19,1.43-0.22,2.87-0.07,4.29c0.12,1.2,0.36,2.37,0.75,3.47c0.07,0.2,0.14,0.4,0.22,0.6c-2.32,2.03-3.79,4.89-4.49,7.89
				c-0.07,0.29-0.13,0.59-0.19,0.89c-0.23,1.28-0.34,2.58-0.34,3.88c0,1.32,0.1,2.64,0.27,3.95c0.1,0.75,0.23,1.51,0.37,2.25
				c0.08,0.44,0.17,0.88,0.28,1.32c0.25,1.11,0.56,2.2,0.96,3.26c0.36,0.94,0.79,1.84,1.31,2.7c0.03,0.04,0.05,0.09,0.09,0.13
				c0.53,0.86,1.15,1.64,1.86,2.37c0.69,0.72,1.45,1.37,2.26,1.96c0.82,0.61,1.69,1.15,2.59,1.63c0.47,0.26,0.95,0.5,1.44,0.72
				c0.48,0.22,0.96,0.42,1.44,0.62c1.01,0.42,2.03,0.81,3.07,1.17c1.06,0.36,2.14,0.7,3.22,1c0.86,0.24,1.73,0.47,2.59,0.67
				c-1.97,0.73-3.34,2.62-3.95,4.62c-0.04,0.11-0.06,0.23-0.09,0.35c-1.52,0.35-3.06,0.6-4.63,0.6h-0.16
				c-1.22-0.02-2.46-0.2-3.63-0.59c-1.01-0.33-1.96-0.81-2.78-1.46c-0.36-0.28-0.7-0.6-1.01-0.95c-0.36-0.41-0.67-0.85-0.96-1.3
				c-0.55-0.86-1.04-1.77-1.64-2.58c-0.3-0.41-0.63-0.79-1.01-1.12c-0.38-0.34-0.81-0.61-1.27-0.81h-0.01
				c-0.45-0.2-0.92-0.34-1.41-0.41c-1.95-0.26-2.97,2.15-1.68,3.5c0.07,0.08,0.15,0.15,0.24,0.22c0.7,0.54,1.36,1.14,1.97,1.79
				c0.7,0.72,1.33,1.51,1.87,2.35c0.34,0.5,0.64,1.01,0.91,1.54c0.2,0.39,0.39,0.79,0.57,1.2c0.45,0.97,0.86,1.97,1.34,2.9
				c0.48,0.91,1.03,1.76,1.74,2.48c0.13,0.13,0.27,0.26,0.41,0.38c0.64,0.56,1.38,0.97,2.18,1.25c1.18,0.43,2.48,0.58,3.75,0.47
				c0.3-0.01,0.61-0.05,0.91-0.1c1.33-0.23,2.61-0.69,3.82-1.28c0,0.29,0.01,0.58,0.01,0.87c0.01,1.4,0.02,2.79,0.04,4.19
				c0.01,1.4,0.02,2.79,0.03,4.19c0.01,1.16,0.01,2.31,0.02,3.47c-0.89-0.26-1.77-0.54-2.64-0.85c-1.02-0.36-2.03-0.76-3.03-1.19
				c-0.97-0.42-1.93-0.88-2.88-1.36c-0.92-0.48-1.82-0.98-2.71-1.51c-0.88-0.52-1.73-1.07-2.57-1.65c-0.83-0.57-1.65-1.16-2.44-1.78
				c-0.79-0.61-1.56-1.25-2.3-1.92c-0.76-0.65-1.49-1.34-2.2-2.04c-0.71-0.71-1.39-1.43-2.05-2.17c-0.67-0.75-1.31-1.51-1.92-2.3
				c-0.63-0.79-1.23-1.6-1.79-2.43c-0.58-0.84-1.14-1.7-1.65-2.58c-0.54-0.89-1.04-1.8-1.51-2.72c-0.29-0.56-0.57-1.13-0.83-1.71
				c-0.18-0.39-0.35-0.78-0.51-1.17c-0.43-1.01-0.82-2.03-1.16-3.06c-0.37-1.07-0.7-2.15-0.98-3.24c-0.3-1.14-0.56-2.29-0.77-3.46
				v-0.01c-0.23-1.22-0.41-2.45-0.54-3.68c-0.14-1.32-0.22-2.65-0.25-3.97c-0.04-1.43-0.01-2.86,0.07-4.29
				c0.1-1.59,0.28-3.18,0.53-4.75c0.29-1.83,0.69-3.65,1.19-5.43c0.63-2.27,1.43-4.48,2.4-6.62c0.53-1.19,1.11-2.37,1.75-3.51
				c1.81-3.26,4.03-6.29,6.57-9.03c0.75-0.8,1.51-1.57,2.31-2.31c3.84-3.62,8.27-6.62,13.06-8.84c2.19-1.02,4.46-1.88,6.77-2.55
				c1.8-0.53,3.64-0.95,5.49-1.25c0.54-0.09,1.08-0.17,1.62-0.24c1.04-0.13,2.08-0.23,3.13-0.29c1.43-0.09,2.86-0.11,4.29-0.07
				c1.31,0.04,2.63,0.13,3.93,0.29c1.23,0.13,2.46,0.32,3.67,0.55c1.16,0.22,2.31,0.48,3.45,0.79c1.08,0.29,2.16,0.62,3.22,1
				c0.85,0.28,1.69,0.6,2.52,0.94c0.18,0.07,0.36,0.15,0.53,0.23c0.98,0.4,1.94,0.85,2.88,1.34c0.93,0.46,1.84,0.96,2.73,1.5
				c0.88,0.52,1.74,1.07,2.58,1.65c0.83,0.57,1.65,1.16,2.44,1.78c0.79,0.62,1.56,1.26,2.3,1.92c0.75,0.66,1.47,1.34,2.17,2.05h0.01
				c0.71,0.71,1.39,1.44,2.04,2.19c0.67,0.74,1.31,1.51,1.92,2.3c0.62,0.79,1.22,1.61,1.78,2.44c0.58,0.84,1.13,1.7,1.65,2.57
				c0.53,0.89,1.03,1.8,1.51,2.72c0.48,0.95,0.93,1.91,1.34,2.89c0.41,0.96,0.79,1.93,1.13,2.91c0.02,0.04,0.03,0.09,0.05,0.13
				c0.36,1.07,0.69,2.15,0.98,3.24c0.3,1.14,0.56,2.29,0.77,3.45c0.24,1.22,0.42,2.45,0.54,3.69c0.15,1.32,0.23,2.65,0.26,3.97
				C97.83,50.312,97.8,51.752,97.71,53.182z"/>
			<g>
				
					<line style="fill:none;stroke:#000000;stroke-linecap:round;stroke-linejoin:round;stroke-miterlimit:10;" x1="17.03" y1="15.582" x2="14.72" y2="17.892"/>
				
					<line style="fill:none;stroke:#000000;stroke-linecap:round;stroke-linejoin:round;stroke-miterlimit:10;" x1="30.09" y1="6.742" x2="6.4" y2="30.432"/>
				
					<line style="fill:none;stroke:#000000;stroke-linecap:round;stroke-linejoin:round;stroke-miterlimit:10;" x1="36.86" y1="4.192" x2="4" y2="37.052"/>
				
					<line style="fill:none;stroke:#000000;stroke-linecap:round;stroke-linejoin:round;stroke-miterlimit:10;" x1="42.35" y1="2.942" x2="2.81" y2="42.482"/>
				
					<line style="fill:none;stroke:#000000;stroke-linecap:round;stroke-linejoin:round;stroke-miterlimit:10;" x1="23.73" y1="25.782" x2="2.28" y2="47.232"/>
				
					<line style="fill:none;stroke:#000000;stroke-linecap:round;stroke-linejoin:round;stroke-miterlimit:10;" x1="47.1" y1="2.412" x2="28.79" y2="20.722"/>
				
					<line style="fill:none;stroke:#000000;stroke-linecap:round;stroke-linejoin:round;stroke-miterlimit:10;" x1="23.66" y1="30.072" x2="2.21" y2="51.522"/>
				
					<line style="fill:none;stroke:#000000;stroke-linecap:round;stroke-linejoin:round;stroke-miterlimit:10;" x1="51.39" y1="2.342" x2="31.96" y2="21.772"/>
				
					<line style="fill:none;stroke:#000000;stroke-linecap:round;stroke-linejoin:round;stroke-miterlimit:10;" x1="24.41" y1="33.542" x2="2.46" y2="55.492"/>
				
					<line style="fill:none;stroke:#000000;stroke-linecap:round;stroke-linejoin:round;stroke-miterlimit:10;" x1="55.32" y1="2.632" x2="34.71" y2="23.242"/>
				<polyline style="fill:none;stroke:#000000;stroke-linecap:round;stroke-linejoin:round;stroke-miterlimit:10;" points="
					3,59.182 3,59.172 20.14,42.032 				"/>
				
					<line style="fill:none;stroke:#000000;stroke-linecap:round;stroke-linejoin:round;stroke-miterlimit:10;" x1="58.99" y1="3.182" x2="37.08" y2="25.092"/>
				
					<line style="fill:none;stroke:#000000;stroke-linecap:round;stroke-linejoin:round;stroke-miterlimit:10;" x1="19.61" y1="46.802" x2="3.77" y2="62.642"/>
				
					<line style="fill:none;stroke:#000000;stroke-linecap:round;stroke-linejoin:round;stroke-miterlimit:10;" x1="62.44" y1="3.972" x2="41.53" y2="24.882"/>
				
					<line style="fill:none;stroke:#000000;stroke-linecap:round;stroke-linejoin:round;stroke-miterlimit:10;" x1="19.88" y1="50.752" x2="4.75" y2="65.882"/>
				
					<line style="fill:none;stroke:#000000;stroke-linecap:round;stroke-linejoin:round;stroke-miterlimit:10;" x1="65.66" y1="4.972" x2="46.48" y2="24.152"/>
				
					<line style="fill:none;stroke:#000000;stroke-linecap:round;stroke-linejoin:round;stroke-miterlimit:10;" x1="20.53" y1="54.322" x2="5.91" y2="68.942"/>
				
					<line style="fill:none;stroke:#000000;stroke-linecap:round;stroke-linejoin:round;stroke-miterlimit:10;" x1="68.71" y1="6.142" x2="50.83" y2="24.022"/>
				
					<line style="fill:none;stroke:#000000;stroke-linecap:round;stroke-linejoin:round;stroke-miterlimit:10;" x1="21.49" y1="57.582" x2="7.25" y2="71.822"/>
				
					<line style="fill:none;stroke:#000000;stroke-linecap:round;stroke-linejoin:round;stroke-miterlimit:10;" x1="71.59" y1="7.482" x2="54.81" y2="24.262"/>
				
					<line style="fill:none;stroke:#000000;stroke-linecap:round;stroke-linejoin:round;stroke-miterlimit:10;" x1="22.89" y1="60.412" x2="8.76" y2="74.542"/>
				
					<line style="fill:none;stroke:#000000;stroke-linecap:round;stroke-linejoin:round;stroke-miterlimit:10;" x1="74.32" y1="8.982" x2="58.45" y2="24.852"/>
				<polyline style="fill:none;stroke:#000000;stroke-linecap:round;stroke-linejoin:round;stroke-miterlimit:10;" points="
					24.75,62.782 20.23,67.312 20.22,67.312 				"/>
				
					<line style="fill:none;stroke:#000000;stroke-linecap:round;stroke-linejoin:round;stroke-miterlimit:10;" x1="17.13" y1="70.402" x2="10.41" y2="77.122"/>
				
					<line style="fill:none;stroke:#000000;stroke-linecap:round;stroke-linejoin:round;stroke-miterlimit:10;" x1="76.9" y1="10.632" x2="61.69" y2="25.842"/>
				
					<line style="fill:none;stroke:#000000;stroke-linecap:round;stroke-linejoin:round;stroke-miterlimit:10;" x1="27.01" y1="64.742" x2="22.51" y2="69.242"/>
				
					<line style="fill:none;stroke:#000000;stroke-linecap:round;stroke-linejoin:round;stroke-miterlimit:10;" x1="19.34" y1="72.412" x2="12.2" y2="79.552"/>
				
					<line style="fill:none;stroke:#000000;stroke-linecap:round;stroke-linejoin:round;stroke-miterlimit:10;" x1="79.34" y1="12.412" x2="70.93" y2="20.822"/>
				
					<line style="fill:none;stroke:#000000;stroke-linecap:round;stroke-linejoin:round;stroke-miterlimit:10;" x1="29.6" y1="66.372" x2="24.15" y2="71.822"/>
				
					<line style="fill:none;stroke:#000000;stroke-linecap:round;stroke-linejoin:round;stroke-miterlimit:10;" x1="21.21" y1="74.762" x2="14.12" y2="81.852"/>
				
					<line style="fill:none;stroke:#000000;stroke-linecap:round;stroke-linejoin:round;stroke-miterlimit:10;" x1="81.64" y1="14.332" x2="75.13" y2="20.842"/>
				
					<line style="fill:none;stroke:#000000;stroke-linecap:round;stroke-linejoin:round;stroke-miterlimit:10;" x1="32.48" y1="67.712" x2="26.12" y2="74.072"/>
				
					<line style="fill:none;stroke:#000000;stroke-linecap:round;stroke-linejoin:round;stroke-miterlimit:10;" x1="22.69" y1="77.502" x2="16.17" y2="84.022"/>
				<polyline style="fill:none;stroke:#000000;stroke-linecap:round;stroke-linejoin:round;stroke-miterlimit:10;" points="
					76.1,24.092 83.81,16.382 83.82,16.382 				"/>
				
					<line style="fill:none;stroke:#000000;stroke-linecap:round;stroke-linejoin:round;stroke-miterlimit:10;" x1="35.55" y1="68.882" x2="28.9" y2="75.532"/>
				
					<line style="fill:none;stroke:#000000;stroke-linecap:round;stroke-linejoin:round;stroke-miterlimit:10;" x1="24.03" y1="80.402" x2="18.37" y2="86.062"/>
				
					<line style="fill:none;stroke:#000000;stroke-linecap:round;stroke-linejoin:round;stroke-miterlimit:10;" x1="85.86" y1="18.572" x2="76.53" y2="27.902"/>
				
					<line style="fill:none;stroke:#000000;stroke-linecap:round;stroke-linejoin:round;stroke-miterlimit:10;" x1="38.77" y1="69.882" x2="32.53" y2="76.122"/>
				
					<line style="fill:none;stroke:#000000;stroke-linecap:round;stroke-linejoin:round;stroke-miterlimit:10;" x1="25.77" y1="82.882" x2="20.67" y2="87.982"/>
				
					<line style="fill:none;stroke:#000000;stroke-linecap:round;stroke-linejoin:round;stroke-miterlimit:10;" x1="87.78" y1="20.872" x2="75.96" y2="32.692"/>
				
					<line style="fill:none;stroke:#000000;stroke-linecap:round;stroke-linejoin:round;stroke-miterlimit:10;" x1="28.36" y1="84.512" x2="23.11" y2="89.762"/>
				
					<line style="fill:none;stroke:#000000;stroke-linecap:round;stroke-linejoin:round;stroke-miterlimit:10;" x1="89.56" y1="23.312" x2="77.05" y2="35.822"/>
				
					<line style="fill:none;stroke:#000000;stroke-linecap:round;stroke-linejoin:round;stroke-miterlimit:10;" x1="32.11" y1="84.982" x2="25.68" y2="91.412"/>
				
					<line style="fill:none;stroke:#000000;stroke-linecap:round;stroke-linejoin:round;stroke-miterlimit:10;" x1="91.21" y1="25.882" x2="78.68" y2="38.412"/>
				
					<line style="fill:none;stroke:#000000;stroke-linecap:round;stroke-linejoin:round;stroke-miterlimit:10;" x1="36.85" y1="84.472" x2="28.39" y2="92.922"/>
				
					<line style="fill:none;stroke:#000000;stroke-linecap:round;stroke-linejoin:round;stroke-miterlimit:10;" x1="92.72" y1="28.602" x2="79.83" y2="41.492"/>
				
					<line style="fill:none;stroke:#000000;stroke-linecap:round;stroke-linejoin:round;stroke-miterlimit:10;" x1="36.89" y1="88.662" x2="31.27" y2="94.282"/>
				
					<line style="fill:none;stroke:#000000;stroke-linecap:round;stroke-linejoin:round;stroke-miterlimit:10;" x1="94.06" y1="31.492" x2="80.42" y2="45.132"/>
				
					<line style="fill:none;stroke:#000000;stroke-linecap:round;stroke-linejoin:round;stroke-miterlimit:10;" x1="36.92" y1="92.852" x2="34.3" y2="95.472"/>
				
					<line style="fill:none;stroke:#000000;stroke-linecap:round;stroke-linejoin:round;stroke-miterlimit:10;" x1="95.24" y1="34.532" x2="80.37" y2="49.402"/>
				
					<line style="fill:none;stroke:#000000;stroke-linecap:round;stroke-linejoin:round;stroke-miterlimit:10;" x1="59.38" y1="70.392" x2="59.08" y2="70.692"/>
				
					<line style="fill:none;stroke:#000000;stroke-linecap:round;stroke-linejoin:round;stroke-miterlimit:10;" x1="65.42" y1="68.572" x2="61.38" y2="72.612"/>
				
					<line style="fill:none;stroke:#000000;stroke-linecap:round;stroke-linejoin:round;stroke-miterlimit:10;" x1="96.22" y1="37.772" x2="79.56" y2="54.432"/>
				
					<line style="fill:none;stroke:#000000;stroke-linecap:round;stroke-linejoin:round;stroke-miterlimit:10;" x1="96.99" y1="41.222" x2="62.76" y2="75.452"/>
				
					<line style="fill:none;stroke:#000000;stroke-linecap:round;stroke-linejoin:round;stroke-miterlimit:10;" x1="97.53" y1="44.912" x2="63.27" y2="79.172"/>
				
					<line style="fill:none;stroke:#000000;stroke-linecap:round;stroke-linejoin:round;stroke-miterlimit:10;" x1="97.79" y1="48.882" x2="63.26" y2="83.412"/>
				
					<line style="fill:none;stroke:#000000;stroke-linecap:round;stroke-linejoin:round;stroke-miterlimit:10;" x1="97.71" y1="53.182" x2="63.23" y2="87.662"/>
				
					<line style="fill:none;stroke:#000000;stroke-linecap:round;stroke-linejoin:round;stroke-miterlimit:10;" x1="97.17" y1="57.942" x2="63.2" y2="91.912"/>
				
					<line style="fill:none;stroke:#000000;stroke-linecap:round;stroke-linejoin:round;stroke-miterlimit:10;" x1="95.97" y1="63.362" x2="63.17" y2="96.162"/>
				
					<line style="fill:none;stroke:#000000;stroke-linecap:round;stroke-linejoin:round;stroke-miterlimit:10;" x1="93.53" y1="70.042" x2="69.95" y2="93.622"/>
			</g>
			<path style="fill:none;stroke:#000000;stroke-width:2;stroke-linecap:round;stroke-linejoin:round;stroke-miterlimit:10;" d="
				M63.167,96.166c11.991-3.467,22.535-11.756,28.622-22.653c6.582-11.769,7.846-26.38,3.402-39.114
				c-4.444-12.734-14.52-23.382-27.006-28.492C60.573,2.78,52.14,1.659,43.968,2.702C29.136,4.591,15.424,13.858,8.151,26.918
				S0.214,56.505,6.418,70.112c5.748,12.577,17.244,22.392,30.525,26.211c-0.026-4.236-0.065-8.485-0.104-12.721
				c-1.212,0.587-2.489,1.056-3.819,1.277c-2.385,0.404-5.005-0.039-6.843-1.616c-2.059-1.76-2.815-4.562-4.053-6.96
				c-1.147-2.216-2.789-4.158-4.757-5.683c-1.642-1.277-0.613-4.001,1.447-3.715c0.978,0.143,1.916,0.534,2.685,1.212
				c1.551,1.369,2.242,3.454,3.61,5.005c1.851,2.111,4.783,2.998,7.586,2.998c1.564,0,3.102-0.248,4.627-0.6
				c0.026-0.117,0.052-0.235,0.091-0.352c0.613-1.994,1.981-3.884,3.949-4.614c-3.519-0.834-7.038-1.968-10.323-3.467
				s-6.347-3.728-8.237-6.804c-1.356-2.203-2.072-4.744-2.555-7.286c-0.639-3.311-0.899-6.751-0.3-10.075
				c0.613-3.324,2.138-6.556,4.679-8.785c-1.707-4.262-1.238-9.658,0.573-13.881c4.783,0.13,9.593,2.216,12.786,5.761
				c5.813-2.672,18.312-2.672,24.138,0c3.193-3.545,8.003-5.631,12.773-5.761c1.812,4.223,2.294,9.619,0.573,13.881
				c2.542,2.229,4.08,5.461,4.679,8.785c0.613,3.324,0.339,6.764-0.287,10.075c-0.482,2.542-1.199,5.083-2.555,7.286
				c-1.903,3.076-4.953,5.305-8.237,6.804c-3.284,1.499-6.804,2.633-10.323,3.467c1.968,0.73,3.324,2.62,3.936,4.614
				c0.626,2.007,0.613,4.145,0.6,6.243C63.245,86.326,63.206,91.252,63.167,96.166z"/>
		</g>
		<path style="fill:none;stroke:#000000;stroke-linecap:round;stroke-linejoin:round;stroke-miterlimit:10;" d="M61.221,65.829
			c3.862-0.417,7.558-2.235,10.246-5.04c2.688-2.805,4.346-6.576,4.597-10.453"/>
		<path style="fill:none;stroke:#000000;stroke-linecap:round;stroke-linejoin:round;stroke-miterlimit:10;" d="M76.004,47.331
			c0-0.654,0-1.309,0-1.963"/>
		<path style="fill:none;stroke:#000000;stroke-linecap:round;stroke-linejoin:round;stroke-miterlimit:10;" d="M72.926,47.062
			c0.334,2.982-0.391,6.072-2.018,8.593c-1.627,2.521-4.144,4.455-6.999,5.379"/>
		<path style="fill:none;stroke:#000000;stroke-linecap:round;stroke-linejoin:round;stroke-miterlimit:10;" d="M25.515,55.3
			c2.966,5.881,9.766,9.583,16.315,8.883"/>
		<path style="fill:none;stroke:#000000;stroke-linecap:round;stroke-linejoin:round;stroke-miterlimit:10;" d="M55.959,74.056
			c1.519,0.61,2.564,2.075,3.066,3.634s0.537,3.223,0.567,4.86c0.054,2.861,0.107,5.722,0.161,8.582"/>
		<path style="fill:none;stroke:#000000;stroke-linecap:round;stroke-linejoin:round;stroke-miterlimit:10;" d="M59.874,93.138
			c0.005,0.525,0.009,1.049,0.014,1.574"/>
		<path style="fill:none;stroke:#000000;stroke-linecap:round;stroke-linejoin:round;stroke-miterlimit:10;" d="M56.752,82.766
			c0.357,4.123,0.714,8.246,1.071,12.369"/>
		<path style="fill:none;stroke:#000000;stroke-linecap:round;stroke-linejoin:round;stroke-miterlimit:10;" d="M43.339,29.79
			c5.119-2.049,11.011-2.092,16.159-0.118"/>
		<path style="fill:none;stroke:#000000;stroke-linecap:round;stroke-linejoin:round;stroke-miterlimit:10;" d="M48.946,31.342
			c1.844-0.131,3.688-0.262,5.531-0.393"/>
	</g>
</g>
<g id="Layer_1">
</g>
</svg>
