<?xml version="1.0" encoding="iso-8859-1"?>
<!-- Generator: Adobe Illustrator 23.0.5, SVG Export Plug-In . SVG Version: 6.00 Build 0)  -->
<svg version="1.1" xmlns="http://www.w3.org/2000/svg" xmlns:xlink="http://www.w3.org/1999/xlink" x="0px" y="0px"
	 viewBox="0 0 100 100" style="enable-background:new 0 0 100 100;" xml:space="preserve">
<g id="_x30_4_Laptop">
	<g>
		<g>
			<path style="fill:#E74C3C;" d="M13.499,65.99c-0.242-0.291-0.436-0.614-0.598-0.953c-0.63-1.373-0.63-2.956-0.63-4.475
				c0.081-12.891,0.145-25.797,0.226-38.688c0-1.696,0.048-3.489,1.002-4.878c1.567-2.294,4.814-2.504,7.608-2.488
				c18.318,0.145,36.636,0.307,54.971,0.452c3.101,0.016,7.544-1.971,9.773,0.969c2.31,3.085,1.874,35.489,1.777,39.431
				c-0.065,2.262-0.162,4.523-0.242,6.801c-0.048,1.325-0.113,2.714-0.808,3.861"/>
			<path style="fill:#FFFFFF;" d="M79.65,64.752c0.3-1.646,0.412-29.939-0.616-41.941c-0.921,0.129-1.938,0.226-3.005,0.226
				l-54.987-0.452h-0.469l0.003,42.167"/>
			<path style="fill:none;stroke:#000000;stroke-width:2;stroke-linecap:round;stroke-linejoin:round;stroke-miterlimit:10;" d="
				M79.65,64.752c0.3-1.646,0.412-29.939-0.616-41.941c-0.921,0.129-1.938,0.226-3.005,0.226l-54.987-0.452h-0.469l0.003,42.167"/>
			<path style="fill:none;stroke:#000000;stroke-width:2;stroke-linecap:round;stroke-linejoin:round;stroke-miterlimit:10;" d="
				M13.499,65.99c-0.242-0.291-0.436-0.614-0.598-0.953c-0.63-1.373-0.63-2.956-0.63-4.475c0.081-12.891,0.145-25.797,0.226-38.688
				c0-1.696,0.048-3.489,1.002-4.878c1.567-2.294,4.814-2.504,7.608-2.488c18.318,0.145,36.636,0.307,54.971,0.452
				c3.101,0.016,7.544-1.971,9.773,0.969c2.31,3.085,1.874,35.489,1.777,39.431c-0.065,2.262-0.162,4.523-0.242,6.801
				c-0.048,1.325-0.113,2.714-0.808,3.861"/>
			<path style="fill:#FFFFFF;" d="M97,78.299c-2.171-3.671-4.802-7.07-7.812-10.092c-1.663-1.67-3.722-3.327-6.073-3.156H16.885
				c-2.35-0.171-4.41,1.486-6.073,3.156C7.802,71.229,5.171,74.628,3,78.299H97z"/>
			<path style="fill:none;stroke:#000000;stroke-width:2;stroke-linecap:round;stroke-linejoin:round;stroke-miterlimit:10;" d="
				M97,78.299c-2.171-3.671-4.802-7.07-7.812-10.092c-1.663-1.67-3.722-3.327-6.073-3.156H16.885
				c-2.35-0.171-4.41,1.486-6.073,3.156C7.802,71.229,5.171,74.628,3,78.299"/>
			<path style="fill:#E74C3C;" d="M96.977,78.267c0.125,1.734-0.269,3.538-1.053,4.823c-0.798,1.306-1.943,2.037-3.103,2.353
				c-1.16,0.315-2.349,0.25-3.528,0.184H10.707c-1.178,0.066-2.367,0.132-3.528-0.184s-2.305-1.047-3.103-2.353
				c-0.785-1.285-1.179-3.089-1.053-4.823H96.977z"/>
			<path style="fill:none;stroke:#000000;stroke-width:2;stroke-linecap:round;stroke-linejoin:round;stroke-miterlimit:10;" d="
				M96.977,78.267c0.125,1.734-0.269,3.538-1.053,4.823c-0.798,1.306-1.943,2.037-3.103,2.353c-1.16,0.315-2.349,0.25-3.528,0.184
				H10.707c-1.178,0.066-2.367,0.132-3.528-0.184s-2.305-1.047-3.103-2.353c-0.785-1.285-1.179-3.089-1.053-4.823H96.977z"/>
			<g>
				
					<line style="fill:none;stroke:#000000;stroke-linecap:round;stroke-linejoin:round;stroke-miterlimit:10;" x1="18.63" y1="65.05" x2="5.38" y2="78.3"/>
				
					<line style="fill:none;stroke:#000000;stroke-linecap:round;stroke-linejoin:round;stroke-miterlimit:10;" x1="23.37" y1="65.05" x2="10.12" y2="78.3"/>
				
					<line style="fill:none;stroke:#000000;stroke-linecap:round;stroke-linejoin:round;stroke-miterlimit:10;" x1="28.12" y1="65.05" x2="14.87" y2="78.3"/>
				
					<line style="fill:none;stroke:#000000;stroke-linecap:round;stroke-linejoin:round;stroke-miterlimit:10;" x1="32.87" y1="65.05" x2="19.62" y2="78.3"/>
				
					<line style="fill:none;stroke:#000000;stroke-linecap:round;stroke-linejoin:round;stroke-miterlimit:10;" x1="37.62" y1="65.05" x2="24.37" y2="78.3"/>
				
					<line style="fill:none;stroke:#000000;stroke-linecap:round;stroke-linejoin:round;stroke-miterlimit:10;" x1="42.37" y1="65.05" x2="29.12" y2="78.3"/>
				
					<line style="fill:none;stroke:#000000;stroke-linecap:round;stroke-linejoin:round;stroke-miterlimit:10;" x1="47.12" y1="65.05" x2="33.87" y2="78.3"/>
				
					<line style="fill:none;stroke:#000000;stroke-linecap:round;stroke-linejoin:round;stroke-miterlimit:10;" x1="51.87" y1="65.05" x2="38.62" y2="78.3"/>
				
					<line style="fill:none;stroke:#000000;stroke-linecap:round;stroke-linejoin:round;stroke-miterlimit:10;" x1="56.62" y1="65.05" x2="43.37" y2="78.3"/>
				
					<line style="fill:none;stroke:#000000;stroke-linecap:round;stroke-linejoin:round;stroke-miterlimit:10;" x1="61.37" y1="65.05" x2="48.12" y2="78.3"/>
				
					<line style="fill:none;stroke:#000000;stroke-linecap:round;stroke-linejoin:round;stroke-miterlimit:10;" x1="66.12" y1="65.05" x2="52.87" y2="78.3"/>
				
					<line style="fill:none;stroke:#000000;stroke-linecap:round;stroke-linejoin:round;stroke-miterlimit:10;" x1="70.87" y1="65.05" x2="57.62" y2="78.3"/>
				
					<line style="fill:none;stroke:#000000;stroke-linecap:round;stroke-linejoin:round;stroke-miterlimit:10;" x1="75.62" y1="65.05" x2="62.37" y2="78.3"/>
				
					<line style="fill:none;stroke:#000000;stroke-linecap:round;stroke-linejoin:round;stroke-miterlimit:10;" x1="80.36" y1="65.05" x2="67.11" y2="78.3"/>
				
					<line style="fill:none;stroke:#000000;stroke-linecap:round;stroke-linejoin:round;stroke-miterlimit:10;" x1="84.9" y1="65.27" x2="71.87" y2="78.3"/>
				
					<line style="fill:none;stroke:#000000;stroke-linecap:round;stroke-linejoin:round;stroke-miterlimit:10;" x1="87.9" y1="67.01" x2="76.61" y2="78.3"/>
				
					<line style="fill:none;stroke:#000000;stroke-linecap:round;stroke-linejoin:round;stroke-miterlimit:10;" x1="90.3" y1="69.36" x2="81.36" y2="78.3"/>
				
					<line style="fill:none;stroke:#000000;stroke-linecap:round;stroke-linejoin:round;stroke-miterlimit:10;" x1="92.52" y1="71.89" x2="86.11" y2="78.3"/>
				
					<line style="fill:none;stroke:#000000;stroke-linecap:round;stroke-linejoin:round;stroke-miterlimit:10;" x1="94.58" y1="74.58" x2="90.86" y2="78.3"/>
				
					<line style="fill:none;stroke:#000000;stroke-linecap:round;stroke-linejoin:round;stroke-miterlimit:10;" x1="96.47" y1="77.44" x2="95.61" y2="78.3"/>
			</g>
		</g>
		<path style="fill:none;stroke:#000000;stroke-linecap:round;stroke-linejoin:round;stroke-miterlimit:10;" d="M25.874,44.966
			c-0.06-5.633-0.12-11.267-0.18-16.9c-0.005-0.477,0.014-1.015,0.365-1.339c0.297-0.275,0.739-0.305,1.144-0.32
			c2.715-0.103,5.43-0.207,8.146-0.31"/>
		<path style="fill:none;stroke:#000000;stroke-linecap:round;stroke-linejoin:round;stroke-miterlimit:10;" d="M38.016,26.112
			c1.082-0.025,2.163-0.05,3.245-0.075"/>
		<path style="fill:none;stroke:#000000;stroke-linecap:round;stroke-linejoin:round;stroke-miterlimit:10;" d="M29.169,42.441
			c-0.176-3.051-0.352-6.102-0.528-9.153c-0.046-0.797-0.084-1.636,0.269-2.353c0.438-0.889,1.413-1.413,2.392-1.566
			c0.979-0.152,1.976,0.011,2.953,0.174"/>
		<path style="fill:none;stroke:#000000;stroke-linecap:round;stroke-linejoin:round;stroke-miterlimit:10;" d="M45.225,60.699
			c6.996,0.315,13.992,0.631,20.988,0.946"/>
		<path style="fill:none;stroke:#000000;stroke-linecap:round;stroke-linejoin:round;stroke-miterlimit:10;" d="M68.881,61.508
			c0.529-0.095,1.058-0.189,1.587-0.284"/>
		<path style="fill:none;stroke:#000000;stroke-linecap:round;stroke-linejoin:round;stroke-miterlimit:10;" d="M53.231,58.457
			c6.488,0.111,12.976,0.222,19.464,0.334"/>
		<path style="fill:none;stroke:#000000;stroke-linecap:round;stroke-linejoin:round;stroke-miterlimit:10;" d="M74.222,30.016
			c0.595,5.536,1.189,11.072,1.784,16.608"/>
		<path style="fill:none;stroke:#000000;stroke-linecap:round;stroke-linejoin:round;stroke-miterlimit:10;" d="M76.397,49.663
			c0.046,0.366,0.092,0.733,0.137,1.099"/>
	</g>
</g>
<g id="Layer_1">
</g>
</svg>
