<?xml version="1.0" encoding="iso-8859-1"?>
<!-- Generator: Adobe Illustrator 23.0.5, SVG Export Plug-In . SVG Version: 6.00 Build 0)  -->
<svg version="1.1" xmlns="http://www.w3.org/2000/svg" xmlns:xlink="http://www.w3.org/1999/xlink" x="0px" y="0px"
	 viewBox="0 0 100 100" style="enable-background:new 0 0 100 100;" xml:space="preserve">
<g id="_x30_5_Our_Logo">
	<g>
		<g>
			<path style="fill:#FFFFFF;" d="M31.313,98.263c-6.314,0-11.777-1.786-16.239-5.309C8.304,87.608,6.06,79.832,4.962,74.448
				c-1.886-9.242-2.415-18.822-1.574-28.477c0.127-1.459,0.214-3.024,0.306-4.68c0.305-5.497,0.651-11.728,2.68-18.009
				c3.083-9.542,9.663-16.778,18.054-19.855c3.062-1.122,6.37-1.691,9.833-1.691c5.286,0,10.143,1.344,13.338,2.355
				c14.188,4.492,27.488,12.178,38.463,22.226c3.558,3.257,7.477,7.398,9.559,13.407c2.351,6.792,1.672,14.71-1.863,21.723
				c-2.812,5.58-6.856,9.701-10.064,12.667c-11.773,10.885-26.21,18.727-41.753,22.68C38.05,97.783,34.574,98.263,31.313,98.263z"/>
			<g>
				<polyline style="fill:none;stroke:#000000;stroke-linecap:round;stroke-linejoin:round;stroke-miterlimit:10;" points="
					25.548,3.05 25.538,3.06 6.948,21.66 				"/>
				
					<line style="fill:none;stroke:#000000;stroke-linecap:round;stroke-linejoin:round;stroke-miterlimit:10;" x1="31.348" y1="1.89" x2="5.118" y2="28.11"/>
				
					<line style="fill:none;stroke:#000000;stroke-linecap:round;stroke-linejoin:round;stroke-miterlimit:10;" x1="36.068" y1="1.79" x2="4.268" y2="33.59"/>
				
					<line style="fill:none;stroke:#000000;stroke-linecap:round;stroke-linejoin:round;stroke-miterlimit:10;" x1="40.228" y1="2.26" x2="3.848" y2="38.64"/>
				
					<line style="fill:none;stroke:#000000;stroke-linecap:round;stroke-linejoin:round;stroke-miterlimit:10;" x1="44.048" y1="3.07" x2="3.568" y2="43.55"/>
				
					<line style="fill:none;stroke:#000000;stroke-linecap:round;stroke-linejoin:round;stroke-miterlimit:10;" x1="47.638" y1="4.1" x2="3.198" y2="48.55"/>
				
					<line style="fill:none;stroke:#000000;stroke-linecap:round;stroke-linejoin:round;stroke-miterlimit:10;" x1="51.098" y1="5.28" x2="3.008" y2="53.36"/>
				
					<line style="fill:none;stroke:#000000;stroke-linecap:round;stroke-linejoin:round;stroke-miterlimit:10;" x1="54.448" y1="6.55" x2="3.048" y2="57.95"/>
				
					<line style="fill:none;stroke:#000000;stroke-linecap:round;stroke-linejoin:round;stroke-miterlimit:10;" x1="57.728" y1="7.91" x2="3.288" y2="62.35"/>
				
					<line style="fill:none;stroke:#000000;stroke-linecap:round;stroke-linejoin:round;stroke-miterlimit:10;" x1="60.898" y1="9.36" x2="3.698" y2="66.56"/>
				
					<line style="fill:none;stroke:#000000;stroke-linecap:round;stroke-linejoin:round;stroke-miterlimit:10;" x1="63.978" y1="10.91" x2="4.268" y2="70.62"/>
				
					<line style="fill:none;stroke:#000000;stroke-linecap:round;stroke-linejoin:round;stroke-miterlimit:10;" x1="66.988" y1="12.53" x2="4.978" y2="74.54"/>
				
					<line style="fill:none;stroke:#000000;stroke-linecap:round;stroke-linejoin:round;stroke-miterlimit:10;" x1="69.908" y1="14.24" x2="5.878" y2="78.27"/>
				
					<line style="fill:none;stroke:#000000;stroke-linecap:round;stroke-linejoin:round;stroke-miterlimit:10;" x1="72.758" y1="16.02" x2="7.038" y2="81.73"/>
				
					<line style="fill:none;stroke:#000000;stroke-linecap:round;stroke-linejoin:round;stroke-miterlimit:10;" x1="75.508" y1="17.89" x2="8.478" y2="84.92"/>
				
					<line style="fill:none;stroke:#000000;stroke-linecap:round;stroke-linejoin:round;stroke-miterlimit:10;" x1="78.198" y1="19.83" x2="10.238" y2="87.79"/>
				
					<line style="fill:none;stroke:#000000;stroke-linecap:round;stroke-linejoin:round;stroke-miterlimit:10;" x1="80.808" y1="21.85" x2="12.288" y2="90.37"/>
				
					<line style="fill:none;stroke:#000000;stroke-linecap:round;stroke-linejoin:round;stroke-miterlimit:10;" x1="83.348" y1="23.94" x2="14.668" y2="92.62"/>
				
					<line style="fill:none;stroke:#000000;stroke-linecap:round;stroke-linejoin:round;stroke-miterlimit:10;" x1="85.818" y1="26.1" x2="17.368" y2="94.55"/>
				
					<line style="fill:none;stroke:#000000;stroke-linecap:round;stroke-linejoin:round;stroke-miterlimit:10;" x1="88.188" y1="28.35" x2="20.408" y2="96.14"/>
				
					<line style="fill:none;stroke:#000000;stroke-linecap:round;stroke-linejoin:round;stroke-miterlimit:10;" x1="90.408" y1="30.77" x2="23.848" y2="97.32"/>
				
					<line style="fill:none;stroke:#000000;stroke-linecap:round;stroke-linejoin:round;stroke-miterlimit:10;" x1="92.408" y1="33.39" x2="27.738" y2="98.06"/>
				
					<line style="fill:none;stroke:#000000;stroke-linecap:round;stroke-linejoin:round;stroke-miterlimit:10;" x1="94.138" y1="36.29" x2="32.178" y2="98.25"/>
				
					<line style="fill:none;stroke:#000000;stroke-linecap:round;stroke-linejoin:round;stroke-miterlimit:10;" x1="95.538" y1="39.52" x2="37.298" y2="97.76"/>
				
					<line style="fill:none;stroke:#000000;stroke-linecap:round;stroke-linejoin:round;stroke-miterlimit:10;" x1="96.528" y1="43.16" x2="43.238" y2="96.45"/>
				
					<line style="fill:none;stroke:#000000;stroke-linecap:round;stroke-linejoin:round;stroke-miterlimit:10;" x1="96.988" y1="47.33" x2="49.918" y2="94.39"/>
				
					<line style="fill:none;stroke:#000000;stroke-linecap:round;stroke-linejoin:round;stroke-miterlimit:10;" x1="96.688" y1="52.25" x2="57.618" y2="91.32"/>
				<polyline style="fill:none;stroke:#000000;stroke-linecap:round;stroke-linejoin:round;stroke-miterlimit:10;" points="
					95.038,58.53 67.228,86.35 67.218,86.36 				"/>
			</g>
			<path style="fill:none;stroke:#000000;stroke-width:2;stroke-linecap:round;stroke-linejoin:round;stroke-miterlimit:10;" d="
				M31.313,98.263c-6.314,0-11.777-1.786-16.239-5.309C8.304,87.608,6.06,79.832,4.962,74.448
				c-1.886-9.242-2.415-18.822-1.574-28.477c0.127-1.459,0.214-3.024,0.306-4.68c0.305-5.497,0.651-11.728,2.68-18.009
				c3.083-9.542,9.663-16.778,18.054-19.855c3.062-1.122,6.37-1.691,9.833-1.691c5.286,0,10.143,1.344,13.338,2.355
				c14.188,4.492,27.488,12.178,38.463,22.226c3.558,3.257,7.477,7.398,9.559,13.407c2.351,6.792,1.672,14.71-1.863,21.723
				c-2.812,5.58-6.856,9.701-10.064,12.667c-11.773,10.885-26.21,18.727-41.753,22.68C38.05,97.783,34.574,98.263,31.313,98.263z"/>
			<path style="fill:#E74C3C;" d="M19.563,27.543c1.56-4.828,4.873-9.355,9.636-11.102c4.543-1.665,9.606-0.596,14.218,0.865
				c12.314,3.898,23.759,10.512,33.286,19.234c2.403,2.2,4.756,4.643,5.822,7.722c1.233,3.562,0.554,7.583-1.143,10.949
				c-1.696,3.366-4.327,6.168-7.096,8.727c-10.065,9.304-22.479,16.047-35.762,19.425c-4.999,1.271-10.812,1.912-14.86-1.285
				c-3.099-2.447-4.334-6.533-5.123-10.401c-1.644-8.058-2.06-16.314-1.346-24.502C17.757,40.723,17.565,33.726,19.563,27.543z"/>
			<path style="fill:none;stroke:#000000;stroke-width:2;stroke-linecap:round;stroke-linejoin:round;stroke-miterlimit:10;" d="
				M19.563,27.543c1.56-4.828,4.873-9.355,9.636-11.102c4.543-1.665,9.606-0.596,14.218,0.865
				c12.314,3.898,23.759,10.512,33.286,19.234c2.403,2.2,4.756,4.643,5.822,7.722c1.233,3.562,0.554,7.583-1.143,10.949
				c-1.696,3.366-4.327,6.168-7.096,8.727c-10.065,9.304-22.479,16.047-35.762,19.425c-4.999,1.271-10.812,1.912-14.86-1.285
				c-3.099-2.447-4.334-6.533-5.123-10.401c-1.644-8.058-2.06-16.314-1.346-24.502C17.757,40.723,17.565,33.726,19.563,27.543z"/>
		</g>
		<path style="fill:none;stroke:#000000;stroke-linecap:round;stroke-linejoin:round;stroke-miterlimit:10;" d="M24.755,48.86
			c-0.352-5.067-0.208-10.168,0.43-15.207c0.283-2.237,0.706-4.564,2.083-6.35c1.553-2.014,4.125-3.033,6.659-3.26
			c2.533-0.227,5.071,0.245,7.57,0.715"/>
		<path style="fill:none;stroke:#000000;stroke-linecap:round;stroke-linejoin:round;stroke-miterlimit:10;" d="M44.858,25.575
			c0.593,0.322,1.186,0.643,1.779,0.965"/>
		<path style="fill:none;stroke:#000000;stroke-linecap:round;stroke-linejoin:round;stroke-miterlimit:10;" d="M31.928,45.225
			c-0.15-3.03-0.301-6.059-0.451-9.089c-0.078-1.568-0.125-3.254,0.73-4.569c0.734-1.129,2.037-1.788,3.36-2.04
			c1.323-0.252,2.684-0.144,4.027-0.036"/>
		<path style="fill:none;stroke:#000000;stroke-linecap:round;stroke-linejoin:round;stroke-miterlimit:10;" d="M46.845,73.214
			c9.434-3.928,18.108-9.671,25.409-16.822"/>
		<path style="fill:none;stroke:#000000;stroke-linecap:round;stroke-linejoin:round;stroke-miterlimit:10;" d="M74.517,54.263
			c0.502-0.418,1.004-0.837,1.506-1.255"/>
		<path style="fill:none;stroke:#000000;stroke-linecap:round;stroke-linejoin:round;stroke-miterlimit:10;" d="M72.853,51.854
			c-5.948,5.454-12.815,9.904-20.223,13.104"/>
		<path style="fill:none;stroke:#000000;stroke-linecap:round;stroke-linejoin:round;stroke-miterlimit:10;" d="M23.553,63.179
			c0.075,3.236,0.472,6.465,1.185,9.622c0.333,1.476,0.79,3.028,1.935,4.017c1.683,1.452,4.196,1.191,6.392,0.847"/>
	</g>
</g>
<g id="Layer_1">
</g>
</svg>
