<?xml version="1.0" encoding="iso-8859-1"?>
<!-- Generator: Adobe Illustrator 23.0.5, SVG Export Plug-In . SVG Version: 6.00 Build 0)  -->
<svg version="1.1" xmlns="http://www.w3.org/2000/svg" xmlns:xlink="http://www.w3.org/1999/xlink" x="0px" y="0px"
	 viewBox="0 0 100 100" style="enable-background:new 0 0 100 100;" xml:space="preserve">
<g id="Moon">
	<g>
		<path style="fill:#E84C3D;" d="M55.482,92.256C41.779,92.372,27.849,86.6,19.278,75.908C9.559,63.785,7.702,46.166,13.756,31.855
			S33.199,6.82,48.26,3c-5.293,8.296-8.627,18.576-9.081,28.406c-0.626,13.566,5.567,27.277,16.161,35.776
			S80.661,78.753,93.769,75.2C97.998,72.255,82.917,92.025,55.482,92.256z"/>
		<path style="fill:#FFFFFF;" d="M55.478,92.253C41.772,92.371,27.85,86.606,19.281,75.9c-9.726-12.118-11.589-29.726-5.53-44.041
			c1.961-4.628,4.686-8.902,7.981-12.667c-5.471,4.824-9.902,10.726-12.726,17.412c-0.057,0.134-0.101,0.273-0.156,0.408
			l-0.025,0.025l0.009-0.009l0.016-0.016c-5.855,14.24-3.949,31.629,5.686,43.653c8.569,10.687,22.491,16.451,36.197,16.334
			c22.589-0.177,36.805-13.608,38.766-16.706C83.263,85.331,71.479,92.116,55.478,92.253z"/>
		<path style="fill:none;stroke:#000000;stroke-width:2;stroke-linecap:round;stroke-linejoin:round;stroke-miterlimit:10;" d="
			M55.482,92.256C41.779,92.372,27.849,86.6,19.278,75.908C9.559,63.785,7.702,46.166,13.756,31.855S33.199,6.82,48.26,3
			c-5.293,8.296-8.627,18.576-9.081,28.406c-0.626,13.566,5.567,27.277,16.161,35.776S80.661,78.753,93.769,75.2
			C97.998,72.255,82.917,92.025,55.482,92.256z"/>
		<path style="fill:none;stroke:#000000;stroke-width:2;stroke-linecap:round;stroke-linejoin:round;stroke-miterlimit:10;" d="
			M89.499,80.292c-1.961,3.098-16.177,16.53-38.766,16.706c-13.706,0.118-27.628-5.647-36.197-16.334
			C4.81,68.527,2.947,50.918,9.006,36.604c2.824-6.687,7.255-12.589,12.726-17.412c-3.294,3.765-6.02,8.039-7.981,12.667
			C7.692,46.173,9.555,63.782,19.281,75.9c8.569,10.706,22.491,16.471,36.197,16.353C71.479,92.116,83.263,85.331,89.499,80.292z"/>
		<polyline style="fill:none;stroke:#000000;stroke-linecap:round;stroke-linejoin:round;stroke-miterlimit:10;" points="
			13.581,32.28 13.572,32.29 8.834,37.027 8.825,37.037 		"/>
		
			<line style="fill:none;stroke:#000000;stroke-linecap:round;stroke-linejoin:round;stroke-miterlimit:10;" x1="11.269" y1="39.782" x2="6.513" y2="44.538"/>
		
			<line style="fill:none;stroke:#000000;stroke-linecap:round;stroke-linejoin:round;stroke-miterlimit:10;" x1="10.404" y1="45.845" x2="5.657" y2="50.592"/>
		
			<line style="fill:none;stroke:#000000;stroke-linecap:round;stroke-linejoin:round;stroke-miterlimit:10;" x1="10.31" y1="51.137" x2="5.563" y2="55.884"/>
		
			<line style="fill:none;stroke:#000000;stroke-linecap:round;stroke-linejoin:round;stroke-miterlimit:10;" x1="10.761" y1="55.874" x2="6.014" y2="60.621"/>
		
			<line style="fill:none;stroke:#000000;stroke-linecap:round;stroke-linejoin:round;stroke-miterlimit:10;" x1="11.617" y1="60.217" x2="6.87" y2="64.964"/>
		
			<line style="fill:none;stroke:#000000;stroke-linecap:round;stroke-linejoin:round;stroke-miterlimit:10;" x1="12.82" y1="64.212" x2="8.082" y2="68.95"/>
		
			<line style="fill:none;stroke:#000000;stroke-linecap:round;stroke-linejoin:round;stroke-miterlimit:10;" x1="14.333" y1="67.897" x2="9.577" y2="72.644"/>
		
			<line style="fill:none;stroke:#000000;stroke-linecap:round;stroke-linejoin:round;stroke-miterlimit:10;" x1="16.119" y1="71.309" x2="11.372" y2="76.056"/>
		
			<line style="fill:none;stroke:#000000;stroke-linecap:round;stroke-linejoin:round;stroke-miterlimit:10;" x1="18.169" y1="74.449" x2="13.422" y2="79.196"/>
		
			<line style="fill:none;stroke:#000000;stroke-linecap:round;stroke-linejoin:round;stroke-miterlimit:10;" x1="20.49" y1="77.325" x2="15.734" y2="82.082"/>
		
			<line style="fill:none;stroke:#000000;stroke-linecap:round;stroke-linejoin:round;stroke-miterlimit:10;" x1="23.047" y1="79.967" x2="18.291" y2="84.723"/>
		
			<line style="fill:none;stroke:#000000;stroke-linecap:round;stroke-linejoin:round;stroke-miterlimit:10;" x1="25.83" y1="82.373" x2="21.083" y2="87.12"/>
		
			<line style="fill:none;stroke:#000000;stroke-linecap:round;stroke-linejoin:round;stroke-miterlimit:10;" x1="28.856" y1="84.544" x2="24.109" y2="89.291"/>
		
			<line style="fill:none;stroke:#000000;stroke-linecap:round;stroke-linejoin:round;stroke-miterlimit:10;" x1="32.109" y1="86.49" x2="27.362" y2="91.237"/>
		
			<line style="fill:none;stroke:#000000;stroke-linecap:round;stroke-linejoin:round;stroke-miterlimit:10;" x1="35.596" y1="88.201" x2="30.859" y2="92.939"/>
		
			<line style="fill:none;stroke:#000000;stroke-linecap:round;stroke-linejoin:round;stroke-miterlimit:10;" x1="39.347" y1="89.649" x2="34.6" y2="94.396"/>
		
			<line style="fill:none;stroke:#000000;stroke-linecap:round;stroke-linejoin:round;stroke-miterlimit:10;" x1="43.361" y1="90.824" x2="38.614" y2="95.571"/>
		
			<line style="fill:none;stroke:#000000;stroke-linecap:round;stroke-linejoin:round;stroke-miterlimit:10;" x1="47.694" y1="91.688" x2="42.947" y2="96.435"/>
		
			<line style="fill:none;stroke:#000000;stroke-linecap:round;stroke-linejoin:round;stroke-miterlimit:10;" x1="52.403" y1="92.177" x2="47.656" y2="96.924"/>
		
			<line style="fill:none;stroke:#000000;stroke-linecap:round;stroke-linejoin:round;stroke-miterlimit:10;" x1="57.583" y1="92.187" x2="52.826" y2="96.943"/>
		
			<line style="fill:none;stroke:#000000;stroke-linecap:round;stroke-linejoin:round;stroke-miterlimit:10;" x1="63.345" y1="91.632" x2="58.579" y2="96.388"/>
		
			<line style="fill:none;stroke:#000000;stroke-linecap:round;stroke-linejoin:round;stroke-miterlimit:10;" x1="69.944" y1="90.222" x2="65.159" y2="95.007"/>
		
			<line style="fill:none;stroke:#000000;stroke-linecap:round;stroke-linejoin:round;stroke-miterlimit:10;" x1="78.094" y1="87.27" x2="73.318" y2="92.046"/>
		<path style="fill:none;stroke:#000000;stroke-linecap:round;stroke-linejoin:round;stroke-miterlimit:10;" d="M15.123,59.107
			c-0.174-0.52-0.347-1.041-0.521-1.561"/>
		<path style="fill:none;stroke:#000000;stroke-linecap:round;stroke-linejoin:round;stroke-miterlimit:10;" d="M14.126,55.264
			c-1.116-7.647-0.003-15.606,3.169-22.653s8.392-13.158,14.856-17.392"/>
		<path style="fill:none;stroke:#000000;stroke-linecap:round;stroke-linejoin:round;stroke-miterlimit:10;" d="M17.611,58.069
			c-2.47-8.889-1.161-18.763,3.541-26.701"/>
		<path style="fill:none;stroke:#000000;stroke-linecap:round;stroke-linejoin:round;stroke-miterlimit:10;" d="M49.053,68.018
			c8.123,6.872,18.415,11.141,29.017,12.035"/>
		<path style="fill:none;stroke:#000000;stroke-linecap:round;stroke-linejoin:round;stroke-miterlimit:10;" d="M80.42,80.459
			c0.197,0.023,0.393,0.045,0.59,0.068"/>
		<path style="fill:none;stroke:#000000;stroke-linecap:round;stroke-linejoin:round;stroke-miterlimit:10;" d="M37.854,19.835
			c-3.045,8.745-2.743,18.609,0.829,27.152"/>
	</g>
</g>
<g id="Layer_1">
</g>
</svg>
