<?xml version="1.0" encoding="iso-8859-1"?>
<!-- Generator: Adobe Illustrator 23.0.5, SVG Export Plug-In . SVG Version: 6.00 Build 0)  -->
<svg version="1.1" xmlns="http://www.w3.org/2000/svg" xmlns:xlink="http://www.w3.org/1999/xlink" x="0px" y="0px"
	 viewBox="0 0 100 100" style="enable-background:new 0 0 100 100;" xml:space="preserve">
<g id="Picture_Frame_With_A_Nail">
	<g>
		<path style="fill:#FFFFFF;" d="M95.112,90.51c-0.227-18.373-0.344-36.665-0.574-55.04c-0.043-3.41-2.755-6.219-6.163-6.35
			c-25.778-0.993-51.144-0.484-76.858,1.608c-3.287,0.267-5.828,3.01-5.875,6.308C5.391,54.581,5.14,72.126,4.89,89.672
			c-0.052,3.652,2.954,6.591,6.606,6.491c25.746-0.706,51.212-0.282,76.922,0.831C92.099,97.153,95.158,94.195,95.112,90.51z"/>
		<path style="fill:#E84C3D;" d="M87.03,88.865c-17.741-0.748-34.05-1.112-49.802-1.112c-8.197,0-16.347,0.102-24.253,0.304
			l0.707-49.415c16.402-1.294,33.036-1.949,49.468-1.949c7.69,0,15.536,0.142,23.345,0.424c0.106,8.758,0.189,17.499,0.272,26.238
			C86.847,71.853,86.927,80.351,87.03,88.865z"/>
		<path style="fill:#FFFFFF;" d="M87.024,88.859l-73.358-0.931c5.978-8.178,11.966-16.356,17.945-24.543
			c4.127,4.23,8.375,8.432,12.624,12.624c5.32-8.958,10.631-17.926,15.942-26.893C69.982,61.627,78.508,75.464,87.024,88.859z"/>
		<path style="fill:none;stroke:#000000;stroke-width:2;stroke-linecap:round;stroke-linejoin:round;stroke-miterlimit:10;" d="
			M95.112,90.51c-0.227-18.373-0.344-36.665-0.574-55.04c-0.043-3.41-2.755-6.219-6.163-6.35
			c-25.778-0.993-51.144-0.484-76.858,1.608c-3.287,0.267-5.828,3.01-5.875,6.308C5.391,54.581,5.14,72.126,4.89,89.672
			c-0.052,3.652,2.954,6.591,6.606,6.491c25.746-0.706,51.212-0.282,76.922,0.831C92.099,97.153,95.158,94.195,95.112,90.51z"/>
		<path style="fill:none;stroke:#000000;stroke-width:2;stroke-linecap:round;stroke-linejoin:round;stroke-miterlimit:10;" d="
			M87.03,88.865c-17.741-0.748-34.05-1.112-49.802-1.112c-8.197,0-16.347,0.102-24.253,0.304l0.707-49.415
			c16.402-1.294,33.036-1.949,49.468-1.949c7.69,0,15.536,0.142,23.345,0.424c0.106,8.758,0.189,17.499,0.272,26.238
			C86.847,71.853,86.927,80.351,87.03,88.865z"/>
		<path style="fill:none;stroke:#000000;stroke-width:2;stroke-linecap:round;stroke-linejoin:round;stroke-miterlimit:10;" d="
			M71.565,28.796c-5.079-7.143-11.142-13.609-17.672-19.478"/>
		<path style="fill:none;stroke:#000000;stroke-width:2;stroke-linecap:round;stroke-linejoin:round;stroke-miterlimit:10;" d="
			M48.039,9.43c-6.917,6.353-13.464,13.125-19.591,20.236"/>
		<path style="fill:#E84C3D;" d="M47.044,6.208c-0.253,1.27,0.271,2.648,1.264,3.478s2.405,1.107,3.656,0.775
			c1.443-0.383,2.656-1.589,2.974-3.047c0.319-1.459-0.313-3.098-1.569-3.906C51.231,2.133,47.539,3.722,47.044,6.208z"/>
		<path style="fill:none;stroke:#000000;stroke-width:2;stroke-linecap:round;stroke-linejoin:round;stroke-miterlimit:10;" d="
			M47.044,6.208c-0.253,1.27,0.271,2.648,1.264,3.478s2.405,1.107,3.656,0.775c1.443-0.383,2.656-1.589,2.974-3.047
			c0.319-1.459-0.313-3.098-1.569-3.906C51.231,2.133,47.539,3.722,47.044,6.208z"/>
		<path style="fill:none;stroke:#000000;stroke-width:2;stroke-linecap:round;stroke-linejoin:round;stroke-miterlimit:10;" d="
			M13.668,87.927c5.982-8.18,11.963-16.36,17.945-24.539c7.948,8.161,16.391,16.192,24.34,24.353"/>
		<path style="fill:none;stroke:#000000;stroke-width:2;stroke-linecap:round;stroke-linejoin:round;stroke-miterlimit:10;" d="
			M44.228,76.024c5.321-8.965,10.642-17.93,15.947-26.911c9.804,12.512,18.333,26.347,26.847,39.746"/>
		<path style="fill:#FFFFFF;" d="M38.308,49.346c-0.256,1.405,0.274,2.931,1.281,3.85s2.437,1.225,3.704,0.857
			c1.462-0.424,2.691-1.759,3.014-3.374c0.323-1.615-0.317-3.43-1.589-4.324C42.551,44.835,38.81,46.593,38.308,49.346z"/>
		<path style="fill:none;stroke:#000000;stroke-width:2;stroke-linecap:round;stroke-linejoin:round;stroke-miterlimit:10;" d="
			M38.308,49.346c-0.256,1.405,0.274,2.931,1.281,3.85s2.437,1.225,3.704,0.857c1.462-0.424,2.691-1.759,3.014-3.374
			c0.323-1.615-0.317-3.43-1.589-4.324C42.551,44.835,38.81,46.593,38.308,49.346z"/>
		
			<line style="fill:none;stroke:#000000;stroke-linecap:round;stroke-linejoin:round;stroke-miterlimit:10;" x1="11.984" y1="30.692" x2="5.639" y2="37.037"/>
		
			<line style="fill:none;stroke:#000000;stroke-linecap:round;stroke-linejoin:round;stroke-miterlimit:10;" x1="17.605" y1="30.259" x2="5.564" y2="42.301"/>
		
			<line style="fill:none;stroke:#000000;stroke-linecap:round;stroke-linejoin:round;stroke-miterlimit:10;" x1="23.17" y1="29.893" x2="14.475" y2="38.588"/>
		
			<line style="fill:none;stroke:#000000;stroke-linecap:round;stroke-linejoin:round;stroke-miterlimit:10;" x1="13.676" y1="39.387" x2="5.489" y2="47.574"/>
		
			<line style="fill:none;stroke:#000000;stroke-linecap:round;stroke-linejoin:round;stroke-miterlimit:10;" x1="13.601" y1="44.66" x2="5.414" y2="52.848"/>
		
			<line style="fill:none;stroke:#000000;stroke-linecap:round;stroke-linejoin:round;stroke-miterlimit:10;" x1="28.688" y1="29.573" x2="20.096" y2="38.165"/>
		
			<line style="fill:none;stroke:#000000;stroke-linecap:round;stroke-linejoin:round;stroke-miterlimit:10;" x1="13.526" y1="49.924" x2="5.338" y2="58.112"/>
		
			<line style="fill:none;stroke:#000000;stroke-linecap:round;stroke-linejoin:round;stroke-miterlimit:10;" x1="34.149" y1="29.301" x2="25.633" y2="37.817"/>
		
			<line style="fill:none;stroke:#000000;stroke-linecap:round;stroke-linejoin:round;stroke-miterlimit:10;" x1="13.451" y1="55.207" x2="5.263" y2="63.394"/>
		
			<line style="fill:none;stroke:#000000;stroke-linecap:round;stroke-linejoin:round;stroke-miterlimit:10;" x1="39.583" y1="29.075" x2="31.141" y2="37.516"/>
		
			<line style="fill:none;stroke:#000000;stroke-linecap:round;stroke-linejoin:round;stroke-miterlimit:10;" x1="44.95" y1="28.896" x2="36.584" y2="37.262"/>
		
			<line style="fill:none;stroke:#000000;stroke-linecap:round;stroke-linejoin:round;stroke-miterlimit:10;" x1="13.366" y1="60.48" x2="5.188" y2="68.658"/>
		
			<line style="fill:none;stroke:#000000;stroke-linecap:round;stroke-linejoin:round;stroke-miterlimit:10;" x1="13.291" y1="65.754" x2="5.113" y2="73.932"/>
		
			<line style="fill:none;stroke:#000000;stroke-linecap:round;stroke-linejoin:round;stroke-miterlimit:10;" x1="50.28" y1="28.765" x2="41.989" y2="37.056"/>
		
			<line style="fill:none;stroke:#000000;stroke-linecap:round;stroke-linejoin:round;stroke-miterlimit:10;" x1="13.216" y1="71.027" x2="5.038" y2="79.205"/>
		
			<line style="fill:none;stroke:#000000;stroke-linecap:round;stroke-linejoin:round;stroke-miterlimit:10;" x1="55.563" y1="28.68" x2="47.347" y2="36.896"/>
		
			<line style="fill:none;stroke:#000000;stroke-linecap:round;stroke-linejoin:round;stroke-miterlimit:10;" x1="13.14" y1="76.291" x2="4.962" y2="84.469"/>
		
			<line style="fill:none;stroke:#000000;stroke-linecap:round;stroke-linejoin:round;stroke-miterlimit:10;" x1="60.789" y1="28.643" x2="52.649" y2="36.783"/>
		<polyline style="fill:none;stroke:#000000;stroke-linecap:round;stroke-linejoin:round;stroke-miterlimit:10;" points="
			4.887,89.752 4.887,89.743 13.065,81.565 		"/>
		
			<line style="fill:none;stroke:#000000;stroke-linecap:round;stroke-linejoin:round;stroke-miterlimit:10;" x1="65.987" y1="28.643" x2="57.913" y2="36.717"/>
		
			<line style="fill:none;stroke:#000000;stroke-linecap:round;stroke-linejoin:round;stroke-miterlimit:10;" x1="12.99" y1="86.838" x2="6.203" y2="93.625"/>
		<polyline style="fill:none;stroke:#000000;stroke-linecap:round;stroke-linejoin:round;stroke-miterlimit:10;" points="
			63.139,36.689 63.148,36.689 71.138,28.69 		"/>
		
			<line style="fill:none;stroke:#000000;stroke-linecap:round;stroke-linejoin:round;stroke-miterlimit:10;" x1="17.051" y1="87.966" x2="9.211" y2="95.806"/>
		
			<line style="fill:none;stroke:#000000;stroke-linecap:round;stroke-linejoin:round;stroke-miterlimit:10;" x1="76.252" y1="28.765" x2="68.3" y2="36.717"/>
		
			<line style="fill:none;stroke:#000000;stroke-linecap:round;stroke-linejoin:round;stroke-miterlimit:10;" x1="22.362" y1="87.863" x2="14.127" y2="96.097"/>
		
			<line style="fill:none;stroke:#000000;stroke-linecap:round;stroke-linejoin:round;stroke-miterlimit:10;" x1="81.337" y1="28.887" x2="73.441" y2="36.783"/>
		
			<line style="fill:none;stroke:#000000;stroke-linecap:round;stroke-linejoin:round;stroke-miterlimit:10;" x1="27.616" y1="87.797" x2="19.429" y2="95.984"/>
		
			<line style="fill:none;stroke:#000000;stroke-linecap:round;stroke-linejoin:round;stroke-miterlimit:10;" x1="86.357" y1="29.056" x2="78.527" y2="36.886"/>
		<polyline style="fill:none;stroke:#000000;stroke-linecap:round;stroke-linejoin:round;stroke-miterlimit:10;" points="
			24.712,95.9 32.843,87.759 32.852,87.759 		"/>
		
			<line style="fill:none;stroke:#000000;stroke-linecap:round;stroke-linejoin:round;stroke-miterlimit:10;" x1="90.869" y1="29.733" x2="83.575" y2="37.027"/>
		
			<line style="fill:none;stroke:#000000;stroke-linecap:round;stroke-linejoin:round;stroke-miterlimit:10;" x1="38.06" y1="87.75" x2="29.966" y2="95.843"/>
		
			<line style="fill:none;stroke:#000000;stroke-linecap:round;stroke-linejoin:round;stroke-miterlimit:10;" x1="93.595" y1="32.215" x2="86.517" y2="39.293"/>
		
			<line style="fill:none;stroke:#000000;stroke-linecap:round;stroke-linejoin:round;stroke-miterlimit:10;" x1="43.23" y1="87.769" x2="35.174" y2="95.824"/>
		
			<line style="fill:none;stroke:#000000;stroke-linecap:round;stroke-linejoin:round;stroke-miterlimit:10;" x1="94.544" y1="36.454" x2="86.573" y2="44.425"/>
		
			<line style="fill:none;stroke:#000000;stroke-linecap:round;stroke-linejoin:round;stroke-miterlimit:10;" x1="48.39" y1="87.806" x2="40.372" y2="95.824"/>
		
			<line style="fill:none;stroke:#000000;stroke-linecap:round;stroke-linejoin:round;stroke-miterlimit:10;" x1="94.61" y1="41.596" x2="86.63" y2="49.576"/>
		
			<line style="fill:none;stroke:#000000;stroke-linecap:round;stroke-linejoin:round;stroke-miterlimit:10;" x1="53.523" y1="87.872" x2="45.542" y2="95.853"/>
		
			<line style="fill:none;stroke:#000000;stroke-linecap:round;stroke-linejoin:round;stroke-miterlimit:10;" x1="94.667" y1="46.728" x2="86.686" y2="54.709"/>
		
			<line style="fill:none;stroke:#000000;stroke-linecap:round;stroke-linejoin:round;stroke-miterlimit:10;" x1="58.618" y1="87.966" x2="50.684" y2="95.9"/>
		
			<line style="fill:none;stroke:#000000;stroke-linecap:round;stroke-linejoin:round;stroke-miterlimit:10;" x1="94.723" y1="51.861" x2="86.733" y2="59.851"/>
		
			<line style="fill:none;stroke:#000000;stroke-linecap:round;stroke-linejoin:round;stroke-miterlimit:10;" x1="63.712" y1="88.079" x2="55.807" y2="95.984"/>
		
			<line style="fill:none;stroke:#000000;stroke-linecap:round;stroke-linejoin:round;stroke-miterlimit:10;" x1="94.77" y1="57.021" x2="86.789" y2="65.002"/>
		
			<line style="fill:none;stroke:#000000;stroke-linecap:round;stroke-linejoin:round;stroke-miterlimit:10;" x1="94.817" y1="62.163" x2="86.836" y2="70.144"/>
		
			<line style="fill:none;stroke:#000000;stroke-linecap:round;stroke-linejoin:round;stroke-miterlimit:10;" x1="68.76" y1="88.22" x2="60.892" y2="96.088"/>
		<polyline style="fill:none;stroke:#000000;stroke-linecap:round;stroke-linejoin:round;stroke-miterlimit:10;" points="
			65.968,96.21 73.799,88.37 73.808,88.37 		"/>
		
			<line style="fill:none;stroke:#000000;stroke-linecap:round;stroke-linejoin:round;stroke-miterlimit:10;" x1="94.864" y1="67.305" x2="86.883" y2="75.285"/>
		
			<line style="fill:none;stroke:#000000;stroke-linecap:round;stroke-linejoin:round;stroke-miterlimit:10;" x1="78.828" y1="88.549" x2="71.026" y2="96.351"/>
		
			<line style="fill:none;stroke:#000000;stroke-linecap:round;stroke-linejoin:round;stroke-miterlimit:10;" x1="94.92" y1="72.456" x2="86.94" y2="80.437"/>
		
			<line style="fill:none;stroke:#000000;stroke-linecap:round;stroke-linejoin:round;stroke-miterlimit:10;" x1="83.838" y1="88.727" x2="76.055" y2="96.511"/>
		
			<line style="fill:none;stroke:#000000;stroke-linecap:round;stroke-linejoin:round;stroke-miterlimit:10;" x1="94.967" y1="77.598" x2="86.996" y2="85.569"/>
		
			<line style="fill:none;stroke:#000000;stroke-linecap:round;stroke-linejoin:round;stroke-miterlimit:10;" x1="95.024" y1="82.749" x2="81.074" y2="96.689"/>
		
			<line style="fill:none;stroke:#000000;stroke-linecap:round;stroke-linejoin:round;stroke-miterlimit:10;" x1="95.08" y1="87.881" x2="86.066" y2="96.896"/>
		
			<line style="fill:none;stroke:#000000;stroke-linecap:round;stroke-linejoin:round;stroke-miterlimit:10;" x1="94.084" y1="94.067" x2="92.185" y2="95.965"/>
		<path style="fill:none;stroke:#000000;stroke-linecap:round;stroke-linejoin:round;stroke-miterlimit:10;" d="M16.445,43.432
			c0.006,0.618,0.011,1.236,0.017,1.854"/>
		<path style="fill:none;stroke:#000000;stroke-linecap:round;stroke-linejoin:round;stroke-miterlimit:10;" d="M16.826,48.74
			c0.038,5.337,0.075,10.675,0.113,16.012"/>
		<path style="fill:none;stroke:#000000;stroke-linecap:round;stroke-linejoin:round;stroke-miterlimit:10;" d="M19.043,55.396
			c0.06,5.029,0.12,10.057,0.179,15.086"/>
		<g>
			<path style="fill:none;stroke:#000000;stroke-linecap:round;stroke-linejoin:round;stroke-miterlimit:10;" d="M21.937,85.17
				c0.442-0.028,0.885-0.056,1.327-0.083"/>
			<path style="fill:none;stroke:#000000;stroke-linecap:round;stroke-linejoin:round;stroke-miterlimit:10;" d="M25.916,85.005
				c6.633,0.072,13.267,0.144,19.9,0.216"/>
			<path style="fill:none;stroke:#000000;stroke-linecap:round;stroke-linejoin:round;stroke-miterlimit:10;" d="M22.734,83.261
				c4.805,0.096,9.611,0.192,14.416,0.287"/>
		</g>
		<g>
			<path style="fill:none;stroke:#000000;stroke-linecap:round;stroke-linejoin:round;stroke-miterlimit:10;" d="M57.948,84.955
				c0.442-0.028,0.885-0.056,1.327-0.083"/>
			<path style="fill:none;stroke:#000000;stroke-linecap:round;stroke-linejoin:round;stroke-miterlimit:10;" d="M61.928,84.789
				c6.633,0.072,13.267,0.144,19.9,0.216"/>
			<path style="fill:none;stroke:#000000;stroke-linecap:round;stroke-linejoin:round;stroke-miterlimit:10;" d="M58.746,83.045
				c4.805,0.096,9.611,0.192,14.416,0.287"/>
		</g>
		<path style="fill:none;stroke:#000000;stroke-linecap:round;stroke-linejoin:round;stroke-miterlimit:10;" d="M28.237,74.81
			c0.738-1.709,1.476-3.417,2.214-5.126c0.124-0.287,0.274-0.6,0.563-0.719c0.349-0.143,0.737,0.06,1.054,0.264
			c2.4,1.539,4.522,3.512,6.232,5.794"/>
		<path style="fill:none;stroke:#000000;stroke-linecap:round;stroke-linejoin:round;stroke-miterlimit:10;" d="M39.627,76.575
			c0.236,0.295,0.472,0.59,0.708,0.885"/>
		<path style="fill:none;stroke:#000000;stroke-linecap:round;stroke-linejoin:round;stroke-miterlimit:10;" d="M53.028,69.563
			c2.513-5.078,5.026-10.156,7.539-15.234c1.153,1.846,2.306,3.691,3.459,5.537"/>
		<path style="fill:none;stroke:#000000;stroke-linecap:round;stroke-linejoin:round;stroke-miterlimit:10;" d="M64.925,61.538
			c0.177,0.295,0.354,0.59,0.531,0.885"/>
		<path style="fill:none;stroke:#000000;stroke-linecap:round;stroke-linejoin:round;stroke-miterlimit:10;" d="M69.607,68.342
			c2.644,2.8,4.839,6.022,6.479,9.507"/>
		<path style="fill:none;stroke:#000000;stroke-linecap:round;stroke-linejoin:round;stroke-miterlimit:10;" d="M63.155,41.247
			c0.39,0.039,0.781,0.078,1.171,0.116"/>
		<path style="fill:none;stroke:#000000;stroke-linecap:round;stroke-linejoin:round;stroke-miterlimit:10;" d="M66.904,41.426
			c5.582-0.282,11.165-0.565,16.747-0.847"/>
		<path style="fill:none;stroke:#000000;stroke-linecap:round;stroke-linejoin:round;stroke-miterlimit:10;" d="M57.662,44.292
			c6.481-0.422,12.963-0.844,19.444-1.266"/>
	</g>
</g>
<g id="Layer_1">
</g>
</svg>
