<?xml version="1.0" encoding="iso-8859-1"?>
<!-- Generator: Adobe Illustrator 23.0.5, SVG Export Plug-In . SVG Version: 6.00 Build 0)  -->
<svg version="1.1" xmlns="http://www.w3.org/2000/svg" xmlns:xlink="http://www.w3.org/1999/xlink" x="0px" y="0px"
	 viewBox="0 0 100 100" style="enable-background:new 0 0 100 100;" xml:space="preserve">
<g id="_x30_8_Sock">
	<g>
		<g>
			<path style="fill:#FFFFFF;" d="M91.98,93.575c-3.45,3.14-8.56,3.86-13.13,2.97c-0.69-0.14-1.34-0.3-2.02-0.5
				c-3.8-1.09-7.31-3.09-10.73-5.1c-0.29-0.18-0.59-0.36-0.89-0.53l-25.4-23.88l-2.65-47.851l29.6,0.001
				c-0.52,8.41-1.06,16.82-1.59,25.24c-0.21,3.12-0.39,6.38,0.79,9.28c1.14,2.79,3.43,4.98,5.98,6.61c2.54,1.63,5.35,2.78,8.05,4.11
				c4.22,2.07,8.33,4.74,11.34,8.27c1.04,1.2,1.95,2.51,2.7,3.93C96.96,81.705,96.66,89.335,91.98,93.575z"/>
			<path style="fill:#E74C3C;" d="M90.916,72.195c-3.706,2.079-6.886,4.416-9.593,8.18c-3.585,4.985-4.434,10.05-4.485,15.952
				c0.579,0.161,1.163,0.303,1.756,0.42c4.573,0.899,9.698,0.171,13.149-2.962c4.669-4.239,4.971-11.871,2.043-17.456
				C92.999,74.827,92.024,73.456,90.916,72.195z"/>
			<path style="fill:#FFFFFF;" d="M41.504,14.012c-0.544,8.537-1.089,17.074-1.633,25.611c-0.2,3.132-0.38,6.388,0.802,9.295
				c1.136,2.793,3.435,4.974,5.973,6.602c2.538,1.628,5.345,2.779,8.051,4.11c5.658,2.784,11.116,6.611,14.044,12.196
				s2.626,13.218-2.043,17.456c-3.451,3.133-8.576,3.861-13.149,2.962s-8.727-3.219-12.735-5.595
				c-5.711-3.386-11.312-6.959-16.79-10.712c-3.561-2.439-7.19-5.086-9.252-8.879c-2.08-3.827-2.313-8.352-2.499-12.703
				c-0.566-13.219-1.132-26.437-1.698-39.656"/>
			<path style="fill:#E74C3C;" d="M65.87,67.691c-3.706,2.079-6.886,4.416-9.593,8.18c-3.585,4.985-4.434,10.05-4.485,15.952
				c0.579,0.161,1.163,0.303,1.756,0.42c4.573,0.899,9.698,0.171,13.149-2.962c4.669-4.239,4.971-11.871,2.043-17.456
				C67.953,70.323,66.978,68.952,65.87,67.691z"/>
			<path style="fill:#E74C3C;" d="M23.59,67.125c-0.17,2.54-0.7,5.03-1.48,7.47c-2.9-2.09-5.65-4.43-7.34-7.54
				c-2.08-3.82-2.31-8.35-2.5-12.7c-0.1-2.28-0.19-4.55-0.29-6.83c3.17,0.89,6.03,2.95,7.99,5.62
				C22.89,57.105,23.94,62.225,23.59,67.125z"/>
			<path style="fill:none;stroke:#000000;stroke-width:2;stroke-linecap:round;stroke-linejoin:round;stroke-miterlimit:10;" d="
				M65.212,90.411c0.296,0.172,0.593,0.359,0.889,0.53c3.416,2.012,6.926,4.009,10.733,5.101c0.671,0.203,1.326,0.359,2.012,0.499
				c4.571,0.889,9.687,0.172,13.135-2.964c4.68-4.243,4.976-11.871,2.044-17.456c-0.749-1.42-1.654-2.73-2.699-3.931
				c-3.011-3.526-7.113-6.193-11.341-8.268c-2.699-1.326-5.507-2.48-8.049-4.103c-2.543-1.638-4.836-3.822-5.975-6.614
				c-1.186-2.902-0.998-6.162-0.796-9.282c0.53-8.424,1.076-16.832,1.591-25.24"/>
			<path style="fill:#E74C3C;" d="M46.103,7.312c1.716-0.062,3.448-0.109,5.163-0.125c3.728,0,7.457,0.078,11.169,0.25
				c1.888,0.078,3.791,0.281,5.663,0.281c0.858,0,2.012-0.14,2.745,0.468c0.749,0.64,0.484,1.56,0.515,2.465
				c0.062,1.42,0.094,2.839,0.109,4.274c0.016,0.889,0.359,2.231-0.14,2.995c-0.842,1.326-3.057,0.889-4.571,0.764
				c-0.635-0.085-25.427,0.419-25.583,0.421"/>
			<path style="fill:none;stroke:#000000;stroke-width:2;stroke-linecap:round;stroke-linejoin:round;stroke-miterlimit:10;" d="
				M46.103,7.312c1.716-0.062,3.448-0.109,5.163-0.125c3.728,0,7.457,0.078,11.169,0.25c1.888,0.078,3.791,0.281,5.663,0.281
				c0.858,0,2.012-0.14,2.745,0.468c0.749,0.64,0.484,1.56,0.515,2.465c0.062,1.42,0.094,2.839,0.109,4.274
				c0.016,0.889,0.359,2.231-0.14,2.995c-0.842,1.326-3.057,0.889-4.571,0.764c-0.635-0.085-25.427,0.419-25.583,0.421"/>
			<path style="fill:none;stroke:#000000;stroke-width:2;stroke-linecap:round;stroke-linejoin:round;stroke-miterlimit:10;" d="
				M76.838,96.047c0.031-4.524,1.186-9.032,3.37-12.979c2.543-4.618,6.474-8.424,11.123-10.873"/>
			<path style="fill:none;stroke:#000000;stroke-width:2;stroke-linecap:round;stroke-linejoin:round;stroke-miterlimit:10;" d="
				M41.504,14.012c-0.544,8.537-1.089,17.074-1.633,25.611c-0.2,3.132-0.38,6.388,0.802,9.295c1.136,2.793,3.435,4.974,5.973,6.602
				c2.538,1.628,5.345,2.779,8.051,4.11c5.658,2.784,11.116,6.611,14.044,12.196s2.626,13.218-2.043,17.456
				c-3.451,3.133-8.576,3.861-13.149,2.962s-8.727-3.219-12.735-5.595c-5.711-3.386-11.312-6.959-16.79-10.712
				c-3.561-2.439-7.19-5.086-9.252-8.879c-2.08-3.827-2.313-8.352-2.499-12.703c-0.566-13.219-1.132-26.437-1.698-39.656"/>
			<path style="fill:none;stroke:#000000;stroke-width:2;stroke-linecap:round;stroke-linejoin:round;stroke-miterlimit:10;" d="
				M41.501,14.019c-0.016,0.125-0.016,0.25-0.031,0.374"/>
			<path style="fill:none;stroke:#000000;stroke-width:2;stroke-linecap:round;stroke-linejoin:round;stroke-miterlimit:10;" d="
				M22.11,74.595c0.78-2.44,1.31-4.93,1.48-7.47c0.35-4.9-0.7-10.02-3.62-13.98c-1.96-2.67-4.82-4.73-7.99-5.62h-0.01"/>
			<path style="fill:none;stroke:#000000;stroke-width:2;stroke-linecap:round;stroke-linejoin:round;stroke-miterlimit:10;" d="
				M51.547,91.753c0.031-4.524,1.186-9.032,3.37-12.979c2.543-4.618,6.474-8.424,11.123-10.873"/>
			<path style="fill:#E74C3C;" d="M45.552,3.893c0.745,0.641,0.477,1.557,0.519,2.47c0.064,1.419,0.095,2.839,0.112,4.259
				c0.011,0.896,0.351,2.243-0.139,3.009c-0.976,1.524-3.796,0.699-5.226,0.724c-2.226,0.04-4.451,0.079-6.677,0.119
				c-3.244,0.057-6.487,0.109-9.731,0.171c-3.718,0.072-7.437,0.144-11.155,0.211c-1.757,0.032-3.657-0.141-5.396,0.104
				c-1.256,0.177-2.258,0.375-3.123-0.896c-0.703-1.033-0.588-3.027-0.642-4.273C4.03,8.353,4.074,6.687,4.917,5.455
				c1.243-1.814,3.358-1.788,5.32-1.918c2.166-0.143,4.335-0.248,6.503-0.342c3.074-0.132,6.157-0.29,9.235-0.3
				c3.725-0.011,7.449,0.081,11.171,0.239c1.883,0.08,3.786,0.288,5.669,0.289C43.663,3.425,44.827,3.287,45.552,3.893z"/>
			<path style="fill:none;stroke:#000000;stroke-width:2;stroke-linecap:round;stroke-linejoin:round;stroke-miterlimit:10;" d="
				M45.552,3.893c0.745,0.641,0.477,1.557,0.519,2.47c0.064,1.419,0.095,2.839,0.112,4.259c0.011,0.896,0.351,2.243-0.139,3.009
				c-0.976,1.524-3.796,0.699-5.226,0.724c-2.226,0.04-4.451,0.079-6.677,0.119c-3.244,0.057-6.487,0.109-9.731,0.171
				c-3.718,0.072-7.437,0.144-11.155,0.211c-1.757,0.032-3.657-0.141-5.396,0.104c-1.256,0.177-2.258,0.375-3.123-0.896
				c-0.703-1.033-0.588-3.027-0.642-4.273C4.03,8.353,4.074,6.687,4.917,5.455c1.243-1.814,3.358-1.788,5.32-1.918
				c2.166-0.143,4.335-0.248,6.503-0.342c3.074-0.132,6.157-0.29,9.235-0.3c3.725-0.011,7.449,0.081,11.171,0.239
				c1.883,0.08,3.786,0.288,5.669,0.289C43.663,3.425,44.827,3.287,45.552,3.893z"/>
			<g>
				
					<line style="fill:none;stroke:#000000;stroke-linecap:round;stroke-linejoin:round;stroke-miterlimit:10;" x1="12.27" y1="47.615" x2="12" y2="47.885"/>
				
					<line style="fill:none;stroke:#000000;stroke-linecap:round;stroke-linejoin:round;stroke-miterlimit:10;" x1="15.54" y1="49.085" x2="12.19" y2="52.445"/>
				
					<line style="fill:none;stroke:#000000;stroke-linecap:round;stroke-linejoin:round;stroke-miterlimit:10;" x1="18.22" y1="51.155" x2="12.4" y2="56.975"/>
				
					<line style="fill:none;stroke:#000000;stroke-linecap:round;stroke-linejoin:round;stroke-miterlimit:10;" x1="20.38" y1="53.745" x2="12.87" y2="61.255"/>
				
					<line style="fill:none;stroke:#000000;stroke-linecap:round;stroke-linejoin:round;stroke-miterlimit:10;" x1="22.04" y1="56.835" x2="13.85" y2="65.025"/>
				<polyline style="fill:none;stroke:#000000;stroke-linecap:round;stroke-linejoin:round;stroke-miterlimit:10;" points="
					23.16,60.465 23.16,60.475 15.45,68.175 15.45,68.185 				"/>
				
					<line style="fill:none;stroke:#000000;stroke-linecap:round;stroke-linejoin:round;stroke-miterlimit:10;" x1="23.64" y1="64.735" x2="17.58" y2="70.795"/>
				
					<line style="fill:none;stroke:#000000;stroke-linecap:round;stroke-linejoin:round;stroke-miterlimit:10;" x1="23.27" y1="69.855" x2="20.07" y2="73.055"/>
			</g>
			<g>
				<polyline style="fill:none;stroke:#000000;stroke-linecap:round;stroke-linejoin:round;stroke-miterlimit:10;" points="
					85.81,75.595 85.79,75.615 82.3,79.115 82.28,79.135 				"/>
				
					<line style="fill:none;stroke:#000000;stroke-linecap:round;stroke-linejoin:round;stroke-miterlimit:10;" x1="92.26" y1="73.895" x2="77.64" y2="88.525"/>
				
					<line style="fill:none;stroke:#000000;stroke-linecap:round;stroke-linejoin:round;stroke-miterlimit:10;" x1="94.05" y1="76.865" x2="76.91" y2="94.005"/>
				
					<line style="fill:none;stroke:#000000;stroke-linecap:round;stroke-linejoin:round;stroke-miterlimit:10;" x1="95.27" y1="80.395" x2="78.87" y2="96.795"/>
				
					<line style="fill:none;stroke:#000000;stroke-linecap:round;stroke-linejoin:round;stroke-miterlimit:10;" x1="95.67" y1="84.735" x2="83.34" y2="97.065"/>
				<polyline style="fill:none;stroke:#000000;stroke-linecap:round;stroke-linejoin:round;stroke-miterlimit:10;" points="
					93.64,91.525 93.63,91.535 90.21,94.955 90.2,94.965 				"/>
			</g>
			<g>
				<polyline style="fill:none;stroke:#000000;stroke-linecap:round;stroke-linejoin:round;stroke-miterlimit:10;" points="
					60.77,71.095 57.26,74.605 57.24,74.625 				"/>
				
					<line style="fill:none;stroke:#000000;stroke-linecap:round;stroke-linejoin:round;stroke-miterlimit:10;" x1="67.22" y1="69.395" x2="52.59" y2="84.015"/>
				
					<line style="fill:none;stroke:#000000;stroke-linecap:round;stroke-linejoin:round;stroke-miterlimit:10;" x1="69" y1="72.355" x2="51.86" y2="89.505"/>
				
					<line style="fill:none;stroke:#000000;stroke-linecap:round;stroke-linejoin:round;stroke-miterlimit:10;" x1="70.22" y1="75.885" x2="53.82" y2="92.285"/>
				
					<line style="fill:none;stroke:#000000;stroke-linecap:round;stroke-linejoin:round;stroke-miterlimit:10;" x1="70.63" y1="80.225" x2="58.29" y2="92.565"/>
				<polyline style="fill:none;stroke:#000000;stroke-linecap:round;stroke-linejoin:round;stroke-miterlimit:10;" points="
					68.61,86.995 65.13,90.475 65.12,90.485 				"/>
			</g>
		</g>
		<path style="fill:none;stroke:#000000;stroke-linecap:round;stroke-linejoin:round;stroke-miterlimit:10;" d="M10.293,7.91
			c5.283-0.241,10.566-0.481,15.849-0.722"/>
		<path style="fill:none;stroke:#000000;stroke-linecap:round;stroke-linejoin:round;stroke-miterlimit:10;" d="M28.444,6.967
			c0.549-0.031,1.097-0.061,1.646-0.092"/>
		<path style="fill:none;stroke:#000000;stroke-linecap:round;stroke-linejoin:round;stroke-miterlimit:10;" d="M14.002,10.375
			c6.037-0.718,12.1-1.217,18.173-1.496"/>
		<path style="fill:none;stroke:#000000;stroke-linecap:round;stroke-linejoin:round;stroke-miterlimit:10;" d="M55.369,11.816
			c0.329-0.001,0.658-0.003,0.987-0.004"/>
		<path style="fill:none;stroke:#000000;stroke-linecap:round;stroke-linejoin:round;stroke-miterlimit:10;" d="M58.44,11.756
			c3.199-0.02,6.397-0.039,9.596-0.059"/>
		<path style="fill:none;stroke:#000000;stroke-linecap:round;stroke-linejoin:round;stroke-miterlimit:10;" d="M51.803,14.536
			c4.079-0.277,8.159-0.555,12.238-0.832"/>
		<path style="fill:none;stroke:#000000;stroke-linecap:round;stroke-linejoin:round;stroke-miterlimit:10;" d="M62.489,23.433
			c-0.351,7.511-0.702,15.023-1.052,22.534"/>
		<path style="fill:none;stroke:#000000;stroke-linecap:round;stroke-linejoin:round;stroke-miterlimit:10;" d="M61.084,48.298
			c0,0.518,0,1.036,0,1.554"/>
		<path style="fill:none;stroke:#000000;stroke-linecap:round;stroke-linejoin:round;stroke-miterlimit:10;" d="M36.203,24.198
			c-0.207,5.783-0.414,11.565-0.621,17.348c-0.091,2.553-0.178,5.151,0.484,7.618c0.662,2.467,2.198,4.829,4.536,5.859"/>
		<path style="fill:none;stroke:#000000;stroke-linecap:round;stroke-linejoin:round;stroke-miterlimit:10;" d="M42.429,56.943
			c0.605,0.316,1.21,0.632,1.814,0.948"/>
		<path style="fill:none;stroke:#000000;stroke-linecap:round;stroke-linejoin:round;stroke-miterlimit:10;" d="M32.97,31.709
			c-0.18,6.021-0.073,12.051,0.321,18.062c0.144,2.194,0.362,4.495,1.593,6.317c1.583,2.344,4.464,3.373,7.15,4.26"/>
		<path style="fill:none;stroke:#000000;stroke-linecap:round;stroke-linejoin:round;stroke-miterlimit:10;" d="M14.082,21.255
			c0.458,5.641,0.916,11.282,1.374,16.923"/>
		<path style="fill:none;stroke:#000000;stroke-linecap:round;stroke-linejoin:round;stroke-miterlimit:10;" d="M75.694,83.089
			c0.262-4.313,2.591-8.455,6.141-10.919"/>
		<path style="fill:none;stroke:#000000;stroke-linecap:round;stroke-linejoin:round;stroke-miterlimit:10;" d="M83.447,71.351
			c0.374-0.288,0.748-0.576,1.122-0.863"/>
		<path style="fill:none;stroke:#000000;stroke-linecap:round;stroke-linejoin:round;stroke-miterlimit:10;" d="M48.859,82.576
			c-0.029-4.34,1.741-8.664,4.804-11.739"/>
	</g>
</g>
<g id="Layer_1">
</g>
</svg>
