<?xml version="1.0" encoding="iso-8859-1"?>
<!-- Generator: Adobe Illustrator 23.0.5, SVG Export Plug-In . SVG Version: 6.00 Build 0)  -->
<svg version="1.1" xmlns="http://www.w3.org/2000/svg" xmlns:xlink="http://www.w3.org/1999/xlink" x="0px" y="0px"
	 viewBox="0 0 100 100" style="enable-background:new 0 0 100 100;" xml:space="preserve">
<g id="_x30_7_Star">
	<g>
		<g>
			<path style="fill:#FFFFFF;" d="M67.73,37.18h-0.17c0-0.01-0.01-0.04-0.03-0.1C67.55,37.12,67.62,37.16,67.73,37.18z"/>
			<path style="fill:#FFFFFF;" d="M96.79,40.54c-0.32,0.67-0.97,1.23-1.63,1.73c-0.16,0.12-0.32,0.25-0.48,0.38
				c-2.03,1.6-3.93,3.4-5.89,5.09c-4.16,3.58-8.33,7.18-12.51,10.76c0.14,0.71,0.28,1.43,0.41,2.14c0.26,1.34,0.51,2.67,0.74,4.01
				c0.24,1.35,0.48,2.69,0.7,4.04c0.23,1.36,0.46,2.72,0.68,4.08c0.08,0.43,0.15,0.87,0.22,1.3c0.15,0.92,0.3,1.85,0.45,2.77
				c0.22,1.36,0.45,2.72,0.67,4.08c0.06,0.36,0.12,0.71,0.18,1.07c0.16,0.91,0.14,1.89,0.33,2.79c0.02,0.1,0.05,0.2,0.08,0.3
				c0.31,1.03,0.91,1.89,0.6,3.06c-0.04,0.13-0.08,0.25-0.13,0.37c-0.4,0.93-1.36,1.5-2.36,1.59l-3.44,0.31l-4.21,0.37l-0.03-0.09
				l-0.16-0.63L70,86.32l-1.01-3.73l-1.01-3.74l-3.03-11.22l-1.02-3.73l-1.01-3.74L58.88,45.2l-1.01-3.74l-1.01-3.74l-1.01-3.73
				l-2.02-7.48l-1.01-3.74l-2.02-7.48l-1.01-3.74l-0.63-2.33h7.52l-0.04,0.01h0.04c0.06,0,0.11,0,0.17,0.01
				c1.08,0.03,1.95,0.87,2.67,2.08c0.57,0.95,1.04,2.12,1.43,3.32c0.43,1.3,0.77,2.63,1.04,3.71c0.19,0.73,0.35,1.35,0.49,1.78
				c0.21,0.63,0.41,1.25,0.6,1.88c0.39,1.21,0.77,2.41,1.13,3.62c0.37,1.22,0.73,2.44,1.08,3.66c0.36,1.24,0.71,2.48,1.04,3.72
				c0.35,1.24,0.68,2.49,1,3.74c0.04,0.15,0.08,0.29,0.12,0.44c-0.15,0-0.34,0-0.57,0.01c-0.36,0.01-0.8,0.03-1.3,0.04
				c-1.11,0.03-2.45,0.07-3.54,0.05c-0.34,0.01-0.65,0-0.93-0.01c-0.07,0-0.13-0.01-0.2-0.01c-0.11-0.01-0.22-0.02-0.31-0.03
				c-0.1-0.01-0.19-0.02-0.26-0.03c-0.19-0.03-0.31-0.08-0.33-0.13c0.04,0.1,0.03,0.12,0.01,0.12s-0.07-0.04-0.08-0.02
				c0,0-0.01,0-0.01,0.01c-0.17-0.67-0.35-1.34-0.53-2.01c-0.33-1.24-0.67-2.48-1.02-3.72c-0.34-1.24-0.69-2.47-1.06-3.69
				c-0.35-1.22-0.72-2.44-1.1-3.65c-0.37-1.2-0.75-2.4-1.15-3.6c-0.03-0.13-0.08-0.26-0.12-0.39c-0.03-0.08-0.05-0.16-0.07-0.25
				c-0.03-0.1-0.06-0.22-0.1-0.34c-0.2-0.72-0.44-1.69-0.73-2.75c-0.1-0.39-0.21-0.78-0.33-1.19c-0.09-0.31-0.19-0.62-0.29-0.93
				c-0.07-0.22-0.14-0.43-0.22-0.65c-0.08-0.23-0.17-0.47-0.26-0.69c-0.01-0.04-0.03-0.09-0.05-0.14c-0.02-0.06-0.04-0.11-0.06-0.16
				l0.02,0.08l0.03,0.09l1.01,3.74l1.02,3.73l1.02,3.73l1.02,3.73l1.01,3.74l1.02,3.72l1.02,3.74l1.02,3.72l1.01,3.74l1.02,3.73
				l1.02,3.73l1.02,3.73l1.01,3.74l1.02,3.73l2.04,7.46l1.01,3.73l1.02,3.74l1.02,3.72l1.01,3.74l0.28,1
				c0.04-0.07,0.08-0.14,0.12-0.21c0.03-0.07,0.06-0.13,0.09-0.2c0.03-0.09,0.06-0.19,0.09-0.29c0.09-0.34,0.1-0.65,0.07-0.95
				c-0.1-0.83-0.56-1.54-0.74-2.41c-0.1-0.45-0.14-0.93-0.18-1.42c-0.02-0.22-0.04-0.45-0.06-0.68s-0.04-0.46-0.08-0.69
				c-0.16-0.92-0.31-1.85-0.46-2.77c-0.24-1.36-0.46-2.72-0.68-4.08c-0.06-0.36-0.12-0.71-0.18-1.07c-0.16-1-0.33-2-0.49-3
				c-0.23-1.35-0.46-2.71-0.69-4.06c-0.23-1.34-0.47-2.69-0.72-4.03c-0.24-1.33-0.49-2.66-0.76-3.99c-0.03-0.16-0.06-0.33-0.09-0.49
				c1.37-1.17,2.73-2.34,4.09-3.51c0.73-0.62,1.45-1.24,2.18-1.87c2.08-1.8,4.16-3.59,6.25-5.38c1.32-1.14,2.61-2.33,3.94-3.48
				c0.79-0.69,1.6-1.36,2.43-1.99c0.4-0.31,0.81-0.65,1.13-1.01c0.57-0.64,0.9-1.39,0.58-2.3c-0.04-0.11-0.09-0.22-0.15-0.33
				c-0.07-0.15-0.16-0.29-0.26-0.44c-0.08-0.11-0.15-0.21-0.24-0.29c-0.08-0.09-0.16-0.18-0.25-0.24c-0.1-0.09-0.2-0.17-0.31-0.23
				c0.75,0.02,1.5,0.03,2.25,0.01c0.36,0,0.72-0.02,1.08-0.04c1.25-0.08,2.68-0.55,3.83-0.12c0.43,0.15,0.82,0.44,1.16,0.91
				C97.11,39.11,97.11,39.88,96.79,40.54z"/>
			<path style="fill:#FFFFFF;" d="M67.5,37.18h0.06C67.56,37.21,67.53,37.19,67.5,37.18z"/>
			<path style="fill:#FFFFFF;" d="M67.75,37.18c1.76,0.02,3.5,0.04,5.26,0.07C71.08,37.3,68.52,37.36,67.75,37.18z"/>
			<path style="fill:#FFFFFF;" d="M88.14,37.43c-1.17-0.02-2.33-0.08-3.49-0.12C85.84,37.16,87.12,36.85,88.14,37.43z"/>
			<path style="fill:none;stroke:#000000;stroke-width:2;stroke-linecap:round;stroke-linejoin:round;stroke-miterlimit:10;" d="
				M67.5,37.185h0.055C67.555,37.212,67.528,37.194,67.5,37.185z"/>
			<path style="fill:none;stroke:#000000;stroke-width:2;stroke-linecap:round;stroke-linejoin:round;stroke-miterlimit:10;" d="
				M67.749,37.185c1.757,0.018,3.505,0.037,5.262,0.064C71.079,37.304,68.521,37.359,67.749,37.185z"/>
			<path style="fill:none;stroke:#000000;stroke-width:2;stroke-linecap:round;stroke-linejoin:round;stroke-miterlimit:10;" d="
				M88.135,37.433c-1.168-0.028-2.328-0.083-3.487-0.12C85.845,37.157,87.123,36.853,88.135,37.433z"/>
			<path style="fill:none;stroke:#000000;stroke-width:2;stroke-linecap:round;stroke-linejoin:round;stroke-miterlimit:10;" d="
				M52.836,13.026c1.049,2.585,1.674,5.75,2.116,7.102c1.849,5.63,3.496,11.334,4.977,17.066c0-0.074,0.184,0.129,0.083-0.11
				c0.166,0.405,5.943,0.129,7.443,0.11c-1.49-5.731-3.128-11.435-4.977-17.066c-0.8-2.466-2.217-11.04-5.796-10.902h-0.037"/>
			<path style="fill:none;stroke:#000000;stroke-width:2;stroke-linecap:round;stroke-linejoin:round;stroke-miterlimit:10;" d="
				M67.5,37.185c-0.018,0-0.028,0-0.046,0.009C67.454,37.166,67.473,37.175,67.5,37.185z"/>
			<path style="fill:none;stroke:#000000;stroke-width:2;stroke-linecap:round;stroke-linejoin:round;stroke-miterlimit:10;" d="
				M67.528,37.083c0.018,0.037,0.092,0.074,0.202,0.101h-0.175C67.555,37.166,67.546,37.139,67.528,37.083z"/>
			<path style="fill:none;stroke:#000000;stroke-width:2;stroke-linecap:round;stroke-linejoin:round;stroke-miterlimit:10;" d="
				M71.2,90.78l4.21-0.37l3.44-0.31c1-0.09,1.96-0.66,2.36-1.59c0.05-0.12,0.09-0.24,0.13-0.37c0.31-1.17-0.29-2.03-0.6-3.06
				c-0.03-0.1-0.06-0.2-0.08-0.3c-0.19-0.9-0.17-1.88-0.33-2.79c-0.06-0.36-0.12-0.71-0.18-1.07c-0.22-1.36-0.45-2.72-0.67-4.08
				c-0.15-0.92-0.3-1.85-0.45-2.77c-0.07-0.43-0.14-0.87-0.22-1.3c-0.22-1.36-0.45-2.72-0.68-4.08c-0.22-1.35-0.46-2.69-0.7-4.04
				c-0.23-1.34-0.48-2.67-0.74-4.01c-0.13-0.71-0.27-1.43-0.41-2.14c4.18-3.58,8.35-7.18,12.51-10.76c1.96-1.69,3.86-3.49,5.89-5.09
				c0.16-0.13,0.32-0.26,0.48-0.38c0.66-0.5,1.31-1.06,1.63-1.73c0.32-0.66,0.32-1.43-0.33-2.35c-0.34-0.47-0.73-0.76-1.16-0.91
				c-1.15-0.43-2.58,0.04-3.83,0.12c-0.36,0.02-0.72,0.04-1.08,0.04c-0.75,0.02-1.5,0.01-2.25-0.01c0.11,0.06,0.21,0.14,0.31,0.23
				c0.09,0.06,0.17,0.15,0.25,0.24c0.09,0.08,0.16,0.18,0.24,0.29c0.1,0.15,0.19,0.29,0.26,0.44c0.06,0.11,0.11,0.22,0.15,0.33
				c0.32,0.91-0.01,1.66-0.58,2.3c-0.32,0.36-0.73,0.7-1.13,1.01c-0.83,0.63-1.64,1.3-2.43,1.99c-1.33,1.15-2.62,2.34-3.94,3.48
				c-2.09,1.79-4.17,3.58-6.25,5.38c-0.73,0.63-1.45,1.25-2.18,1.87c-1.36,1.17-2.72,2.34-4.09,3.51c0.03,0.16,0.06,0.33,0.09,0.49
				c0.27,1.33,0.52,2.66,0.76,3.99c0.25,1.34,0.49,2.69,0.72,4.03c0.23,1.35,0.46,2.71,0.69,4.06c0.16,1,0.33,2,0.49,3
				c0.06,0.36,0.12,0.71,0.18,1.07c0.22,1.36,0.44,2.72,0.68,4.08c0.15,0.92,0.3,1.85,0.46,2.77c0.04,0.23,0.06,0.46,0.08,0.69
				c0.02,0.23,0.04,0.46,0.06,0.68c0.04,0.49,0.08,0.97,0.18,1.42c0.18,0.87,0.64,1.58,0.74,2.41c0.03,0.3,0.02,0.61-0.07,0.95
				c-0.03,0.1-0.06,0.2-0.09,0.29c-0.03,0.07-0.06,0.13-0.09,0.2c-0.04,0.07-0.08,0.14-0.12,0.21v0.01"/>
			
				<line style="fill:none;stroke:#000000;stroke-width:2;stroke-linecap:round;stroke-linejoin:round;stroke-miterlimit:10;" x1="49.157" y1="9.222" x2="56.684" y2="9.222"/>
			<g>
				
					<line style="fill:none;stroke:#000000;stroke-linecap:round;stroke-linejoin:round;stroke-miterlimit:10;" x1="52.12" y1="9.22" x2="49.79" y2="11.55"/>
				<polyline style="fill:none;stroke:#000000;stroke-linecap:round;stroke-linejoin:round;stroke-miterlimit:10;" points="
					56.85,9.24 52.9,13.19 52.89,13.2 50.8,15.29 				"/>
				<polyline style="fill:none;stroke:#000000;stroke-linecap:round;stroke-linejoin:round;stroke-miterlimit:10;" points="
					59.52,11.32 54.05,16.79 53.9,16.94 51.81,19.03 				"/>
				<polyline style="fill:none;stroke:#000000;stroke-linecap:round;stroke-linejoin:round;stroke-miterlimit:10;" points="
					60.95,14.64 55.07,20.52 54.92,20.67 52.82,22.77 				"/>
				<polyline style="fill:none;stroke:#000000;stroke-linecap:round;stroke-linejoin:round;stroke-miterlimit:10;" points="
					61.99,18.35 56.22,24.12 55.94,24.4 53.83,26.51 				"/>
				<polyline style="fill:none;stroke:#000000;stroke-linecap:round;stroke-linejoin:round;stroke-miterlimit:10;" points="
					63.08,22.01 57.32,27.77 56.96,28.13 54.84,30.25 				"/>
				<polyline style="fill:none;stroke:#000000;stroke-linecap:round;stroke-linejoin:round;stroke-miterlimit:10;" points="
					64.21,25.63 58.38,31.46 57.97,31.87 55.85,33.99 				"/>
				<polyline style="fill:none;stroke:#000000;stroke-linecap:round;stroke-linejoin:round;stroke-miterlimit:10;" points="
					65.29,29.29 59.4,35.18 58.99,35.59 56.86,37.72 				"/>
				<polyline style="fill:none;stroke:#000000;stroke-linecap:round;stroke-linejoin:round;stroke-miterlimit:10;" points="
					66.33,33.01 62.04,37.29 60.01,39.33 57.87,41.46 				"/>
				<polyline style="fill:none;stroke:#000000;stroke-linecap:round;stroke-linejoin:round;stroke-miterlimit:10;" points="
					67.33,36.75 66.88,37.2 61.03,43.05 58.88,45.2 				"/>
				
					<line style="fill:none;stroke:#000000;stroke-linecap:round;stroke-linejoin:round;stroke-miterlimit:10;" x1="62.04" y1="46.79" x2="59.89" y2="48.94"/>
				
					<line style="fill:none;stroke:#000000;stroke-linecap:round;stroke-linejoin:round;stroke-miterlimit:10;" x1="63.06" y1="50.52" x2="60.9" y2="52.68"/>
				
					<line style="fill:none;stroke:#000000;stroke-linecap:round;stroke-linejoin:round;stroke-miterlimit:10;" x1="64.08" y1="54.25" x2="61.91" y2="56.42"/>
				
					<line style="fill:none;stroke:#000000;stroke-linecap:round;stroke-linejoin:round;stroke-miterlimit:10;" x1="65.1" y1="57.98" x2="62.92" y2="60.16"/>
				<polyline style="fill:none;stroke:#000000;stroke-linecap:round;stroke-linejoin:round;stroke-miterlimit:10;" points="
					90.39,37.44 89.2,38.63 72.84,54.99 68.84,58.99 66.11,61.72 63.93,63.9 				"/>
				<polyline style="fill:none;stroke:#000000;stroke-linecap:round;stroke-linejoin:round;stroke-miterlimit:10;" points="
					95.3,37.28 69.6,62.98 67.13,65.45 64.95,67.63 				"/>
				<polyline style="fill:none;stroke:#000000;stroke-linecap:round;stroke-linejoin:round;stroke-miterlimit:10;" points="
					65.96,71.37 68.15,69.18 70.32,67.01 76.69,60.64 				"/>
				
					<line style="fill:none;stroke:#000000;stroke-linecap:round;stroke-linejoin:round;stroke-miterlimit:10;" x1="96.79" y1="40.54" x2="94.68" y2="42.65"/>
				<polyline style="fill:none;stroke:#000000;stroke-linecap:round;stroke-linejoin:round;stroke-miterlimit:10;" points="
					77.43,64.65 71.01,71.07 69.17,72.91 66.97,75.11 				"/>
				<polyline style="fill:none;stroke:#000000;stroke-linecap:round;stroke-linejoin:round;stroke-miterlimit:10;" points="
					78.13,68.69 71.68,75.14 70.18,76.64 67.98,78.85 				"/>
				<polyline style="fill:none;stroke:#000000;stroke-linecap:round;stroke-linejoin:round;stroke-miterlimit:10;" points="
					78.81,72.77 72.36,79.22 71.2,80.38 68.99,82.59 				"/>
				<polyline style="fill:none;stroke:#000000;stroke-linecap:round;stroke-linejoin:round;stroke-miterlimit:10;" points="
					79.48,76.84 72.96,83.36 72.22,84.1 70,86.32 				"/>
				<polyline style="fill:none;stroke:#000000;stroke-linecap:round;stroke-linejoin:round;stroke-miterlimit:10;" points="
					80.15,80.92 73.88,87.19 73.23,87.84 71.01,90.06 				"/>
				
					<line style="fill:none;stroke:#000000;stroke-linecap:round;stroke-linejoin:round;stroke-miterlimit:10;" x1="80.74" y1="85.08" x2="75.41" y2="90.41"/>
			</g>
			<path style="fill:#E74C3C;" d="M34.806,33.704c2.244-4.354,4.487-8.707,6.731-13.061c1.101-2.136,2.491-4.289,3.363-6.526
				c0.668-1.712,1.101-3.381,2.82-4.423c4.652-2.82,6.327,7.667,7.235,10.433c1.858,5.664,3.506,11.396,5.002,17.167
				c-0.119-0.288,0.168,0.073,0.049-0.215c0.183,0.446,6.935,0.091,7.721,0.102c2.702,0.036,5.404,0.071,8.107,0.107
				c2.677,0.035,5.439,0.274,8.11,0.107c1.713-0.107,3.762-0.955,4.995,0.797c1.297,1.843,0.008,3.07-1.304,4.076
				c-2.21,1.694-4.259,3.646-6.368,5.465c-4.167,3.595-8.333,7.191-12.516,10.768c1.026,5.169,1.895,10.367,2.751,15.566
				c0.435,2.641,0.865,5.283,1.311,7.922c0.154,0.913,0.138,1.898,0.329,2.791c0.252,1.177,1.009,2.082,0.668,3.362
				c-0.204,0.764-0.753,1.398-1.396,1.858c-1.357,0.968-2.013,0.997-3.454,0.323c-1.184-0.553-2.355-1.134-3.511-1.743
				c-2.3-1.212-4.542-2.538-6.701-3.988c-2.154-1.446-4.226-3.016-6.19-4.712c-0.556-0.48-5.407-5.578-5.581-5.501
				c-6.025,2.663-12.011,5.413-17.996,8.163c-2.975,1.367-5.95,2.734-8.929,4.091c-1.964,0.895-5.722,3.61-7.246,0.708
				c-0.49-0.934-0.438-2.077-0.096-3.075c0.36-1.052,1.074-1.871,1.559-2.848c0.515-1.038,0.84-2.227,1.247-3.314
				c0.847-2.261,1.686-4.526,2.532-6.788c0.849-2.271,1.705-4.539,2.584-6.798c0.267-0.687,2.961-6.303,2.662-6.618
				c-3.616-3.814-7.355-7.509-11.099-11.196c-1.878-1.849-3.757-3.696-5.625-5.556c-1.335-1.33-4.114-2.937-3.478-5.165
				c0.745-2.611,4.307-2.044,6.367-2.061c2.573-0.022,5.147-0.044,7.72-0.066c4.667-0.04,9.333-0.08,14-0.12
				C32.389,33.725,33.598,33.715,34.806,33.704z"/>
			<path style="fill:none;stroke:#000000;stroke-width:2;stroke-linecap:round;stroke-linejoin:round;stroke-miterlimit:10;" d="
				M34.806,33.704c2.244-4.354,4.487-8.707,6.731-13.061c1.101-2.136,2.491-4.289,3.363-6.526c0.668-1.712,1.101-3.381,2.82-4.423
				c4.652-2.82,6.327,7.667,7.235,10.433c1.858,5.664,3.506,11.396,5.002,17.167c-0.119-0.288,0.168,0.073,0.049-0.215
				c0.183,0.446,6.935,0.091,7.721,0.102c2.702,0.036,5.404,0.071,8.107,0.107c2.677,0.035,5.439,0.274,8.11,0.107
				c1.713-0.107,3.762-0.955,4.995,0.797c1.297,1.843,0.008,3.07-1.304,4.076c-2.21,1.694-4.259,3.646-6.368,5.465
				c-4.167,3.595-8.333,7.191-12.516,10.768c1.026,5.169,1.895,10.367,2.751,15.566c0.435,2.641,0.865,5.283,1.311,7.922
				c0.154,0.913,0.138,1.898,0.329,2.791c0.252,1.177,1.009,2.082,0.668,3.362c-0.204,0.764-0.753,1.398-1.396,1.858
				c-1.357,0.968-2.013,0.997-3.454,0.323c-1.184-0.553-2.355-1.134-3.511-1.743c-2.3-1.212-4.542-2.538-6.701-3.988
				c-2.154-1.446-4.226-3.016-6.19-4.712c-0.556-0.48-5.407-5.578-5.581-5.501c-6.025,2.663-12.011,5.413-17.996,8.163
				c-2.975,1.367-5.95,2.734-8.929,4.091c-1.964,0.895-5.722,3.61-7.246,0.708c-0.49-0.934-0.438-2.077-0.096-3.075
				c0.36-1.052,1.074-1.871,1.559-2.848c0.515-1.038,0.84-2.227,1.247-3.314c0.847-2.261,1.686-4.526,2.532-6.788
				c0.849-2.271,1.705-4.539,2.584-6.798c0.267-0.687,2.961-6.303,2.662-6.618c-3.616-3.814-7.355-7.509-11.099-11.196
				c-1.878-1.849-3.757-3.696-5.625-5.556c-1.335-1.33-4.114-2.937-3.478-5.165c0.745-2.611,4.307-2.044,6.367-2.061
				c2.573-0.022,5.147-0.044,7.72-0.066c4.667-0.04,9.333-0.08,14-0.12C32.389,33.725,33.598,33.715,34.806,33.704z"/>
		</g>
		<path style="fill:none;stroke:#000000;stroke-linecap:round;stroke-linejoin:round;stroke-miterlimit:10;" d="M19.291,78.522
			c1.625-4.629,3.544-9.154,5.74-13.541"/>
		<path style="fill:none;stroke:#000000;stroke-linecap:round;stroke-linejoin:round;stroke-miterlimit:10;" d="M25.941,62.652
			c0.275-0.737,0.551-1.474,0.826-2.211"/>
		<path style="fill:none;stroke:#000000;stroke-linecap:round;stroke-linejoin:round;stroke-miterlimit:10;" d="M23.86,76.905
			c1.67-5.081,3.339-10.162,5.009-15.243"/>
		<path style="fill:none;stroke:#000000;stroke-linecap:round;stroke-linejoin:round;stroke-miterlimit:10;" d="M50.178,19.589
			c1.559,4.791,3.117,9.581,4.676,14.372"/>
		<path style="fill:none;stroke:#000000;stroke-linecap:round;stroke-linejoin:round;stroke-miterlimit:10;" d="M55.531,36.34
			c0.076,0.465,0.152,0.931,0.228,1.396"/>
		<path style="fill:none;stroke:#000000;stroke-linecap:round;stroke-linejoin:round;stroke-miterlimit:10;" d="M48.534,25.678
			c2.182,3.868,3.932,7.979,5.207,12.232"/>
		<path style="fill:none;stroke:#000000;stroke-linecap:round;stroke-linejoin:round;stroke-miterlimit:10;" d="M64.467,55.747
			c3.922-3.096,7.845-6.191,11.767-9.287"/>
		<path style="fill:none;stroke:#000000;stroke-linecap:round;stroke-linejoin:round;stroke-miterlimit:10;" d="M78.385,45.233
			c0.446-0.344,0.892-0.687,1.338-1.031"/>
		<path style="fill:none;stroke:#000000;stroke-linecap:round;stroke-linejoin:round;stroke-miterlimit:10;" d="M66.241,49.77
			c3.301-2.372,6.69-4.621,10.16-6.739"/>
		<path style="fill:none;stroke:#000000;stroke-linecap:round;stroke-linejoin:round;stroke-miterlimit:10;" d="M65.11,63.251
			c1.275,4.904,2.332,9.864,3.168,14.862c0.185,1.104,0.352,2.272-0.056,3.314s-1.613,1.858-2.651,1.441"/>
		<path style="fill:none;stroke:#000000;stroke-linecap:round;stroke-linejoin:round;stroke-miterlimit:10;" d="M15.543,38.074
			c5.449,0.174,10.899,0.349,16.348,0.523"/>
	</g>
</g>
<g id="Layer_1">
</g>
</svg>
