<?xml version="1.0" encoding="iso-8859-1"?>
<!-- Generator: Adobe Illustrator 23.0.5, SVG Export Plug-In . SVG Version: 6.00 Build 0)  -->
<svg version="1.1" xmlns="http://www.w3.org/2000/svg" xmlns:xlink="http://www.w3.org/1999/xlink" x="0px" y="0px"
	 viewBox="0 0 100 100" style="enable-background:new 0 0 100 100;" xml:space="preserve">
<g id="Sun">
	<g>
		<path style="fill:#E84C3D;" d="M28.723,36.993c-3.507,5.12-4.73,11.745-3.283,17.779c2.305,9.614,11.561,17.004,21.436,17.459
			c8.451,0.39,16.999-4.165,21.211-11.503c4.211-7.337,3.784-17.141-1.216-23.965C58.042,24.713,37.153,24.688,28.723,36.993z"/>
		<path style="fill:#FFFFFF;" d="M75.922,50.131c-0.038,2.096-0.357,4.183-0.968,6.176c-0.461,1.542-1.1,3.027-1.899,4.418
			c-2.792,4.879-7.501,8.526-12.822,10.302c-2.068,0.705-4.23,1.119-6.411,1.213c-0.658,0.019-1.316,0.019-1.974-0.009
			c-0.47-0.019-0.94-0.056-1.401-0.122c1.513-0.169,3.008-0.498,4.465-0.959c5.471-1.748,10.321-5.443,13.179-10.425
			c0.855-1.495,1.523-3.093,1.993-4.747l0.009-0.009c0.555-1.965,0.846-4.014,0.865-6.063c0.019-1.589-0.132-3.187-0.442-4.747
			c-0.282-1.372-0.677-2.717-1.203-4.004c-0.489-1.194-1.072-2.331-1.777-3.412c-0.207-0.329-0.432-0.658-0.667-0.978
			c-0.498-0.686-1.043-1.325-1.617-1.936c-0.855-0.893-1.777-1.711-2.764-2.435c-1.015-0.752-2.096-1.41-3.224-1.965
			c-1.184-0.611-2.425-1.109-3.704-1.495c-1.382-0.442-2.811-0.752-4.258-0.94c-0.357-0.056-0.724-0.094-1.09-0.132
			c0.432-0.038,0.874-0.066,1.307-0.085c1.654-0.075,3.309,0,4.944,0.244c1.448,0.197,2.867,0.517,4.249,0.959
			c1.269,0.404,2.5,0.912,3.675,1.513c1.119,0.573,2.19,1.231,3.196,2.002c0.987,0.724,1.908,1.542,2.745,2.453
			c0.545,0.573,1.043,1.175,1.513,1.814c0.263,0.357,0.517,0.733,0.752,1.109c0.696,1.09,1.278,2.247,1.758,3.44
			c0.517,1.297,0.902,2.641,1.175,4.023C75.819,46.916,75.96,48.524,75.922,50.131z"/>
		<path style="fill:none;stroke:#000000;stroke-width:2;stroke-linecap:round;stroke-linejoin:round;stroke-miterlimit:10;" d="
			M28.723,36.993c-3.507,5.12-4.73,11.745-3.283,17.779c2.305,9.614,11.561,17.004,21.436,17.459
			c8.451,0.39,16.999-4.165,21.211-11.503c4.211-7.337,3.784-17.141-1.216-23.965C58.042,24.713,37.153,24.688,28.723,36.993z"/>
		<path style="fill:none;stroke:#000000;stroke-width:2;stroke-linecap:round;stroke-linejoin:round;stroke-miterlimit:10;" d="
			M75.922,50.131c-0.038,2.096-0.357,4.183-0.968,6.176c-0.461,1.542-1.1,3.027-1.899,4.418c-2.792,4.879-7.501,8.526-12.822,10.302
			c-2.068,0.705-4.23,1.119-6.411,1.213c-0.658,0.019-1.316,0.019-1.974-0.009c-0.47-0.019-0.94-0.056-1.401-0.122
			c1.513-0.169,3.008-0.498,4.465-0.959c5.471-1.748,10.321-5.443,13.179-10.425c0.855-1.495,1.523-3.093,1.993-4.747l0.009-0.009
			c0.555-1.965,0.846-4.014,0.865-6.063c0.019-1.589-0.132-3.187-0.442-4.747c-0.282-1.372-0.677-2.717-1.203-4.004
			c-0.489-1.194-1.072-2.331-1.777-3.412c-0.207-0.329-0.432-0.658-0.667-0.978c-0.498-0.686-1.043-1.325-1.617-1.936
			c-0.855-0.893-1.777-1.711-2.764-2.435c-1.015-0.752-2.096-1.41-3.224-1.965c-1.184-0.611-2.425-1.109-3.704-1.495
			c-1.382-0.442-2.811-0.752-4.258-0.94c-0.357-0.056-0.724-0.094-1.09-0.132c0.432-0.038,0.874-0.066,1.307-0.085
			c1.654-0.075,3.309,0,4.944,0.244c1.448,0.197,2.867,0.517,4.249,0.959c1.269,0.404,2.5,0.912,3.675,1.513
			c1.119,0.573,2.19,1.231,3.196,2.002c0.987,0.724,1.908,1.542,2.745,2.453c0.545,0.573,1.043,1.175,1.513,1.814
			c0.263,0.357,0.517,0.733,0.752,1.109c0.696,1.09,1.278,2.247,1.758,3.44c0.517,1.297,0.902,2.641,1.175,4.023
			C75.819,46.916,75.96,48.524,75.922,50.131z"/>
		<path style="fill:none;stroke:#000000;stroke-width:2;stroke-linecap:round;stroke-linejoin:round;stroke-miterlimit:10;" d="
			M52.315,20.556C52.799,14.704,53.282,8.852,53.766,3"/>
		<path style="fill:none;stroke:#000000;stroke-width:2;stroke-linecap:round;stroke-linejoin:round;stroke-miterlimit:10;" d="
			M59.06,16.45c0.71-2.219,1.42-4.438,2.13-6.658"/>
		<path style="fill:none;stroke:#000000;stroke-width:2;stroke-linecap:round;stroke-linejoin:round;stroke-miterlimit:10;" d="
			M47.685,79.444c-0.483,5.852-0.967,11.704-1.45,17.556"/>
		<path style="fill:none;stroke:#000000;stroke-width:2;stroke-linecap:round;stroke-linejoin:round;stroke-miterlimit:10;" d="
			M40.94,83.55c-0.71,2.219-1.42,4.438-2.13,6.658"/>
		<path style="fill:none;stroke:#000000;stroke-width:2;stroke-linecap:round;stroke-linejoin:round;stroke-miterlimit:10;" d="
			M66.206,25.308c3.241-4.896,6.482-9.792,9.723-14.689"/>
		<path style="fill:none;stroke:#000000;stroke-width:2;stroke-linecap:round;stroke-linejoin:round;stroke-miterlimit:10;" d="
			M74.094,24.956c1.691-1.603,3.382-3.206,5.073-4.81"/>
		<path style="fill:none;stroke:#000000;stroke-width:2;stroke-linecap:round;stroke-linejoin:round;stroke-miterlimit:10;" d="
			M33.794,74.692c-3.241,4.896-6.482,9.792-9.723,14.689"/>
		<path style="fill:none;stroke:#000000;stroke-width:2;stroke-linecap:round;stroke-linejoin:round;stroke-miterlimit:10;" d="
			M25.906,75.044c-1.691,1.603-3.382,3.206-5.073,4.81"/>
		<path style="fill:none;stroke:#000000;stroke-width:2;stroke-linecap:round;stroke-linejoin:round;stroke-miterlimit:10;" d="
			M77.436,39.063c5.463-2.153,10.926-4.305,16.389-6.458"/>
		<path style="fill:none;stroke:#000000;stroke-width:2;stroke-linecap:round;stroke-linejoin:round;stroke-miterlimit:10;" d="
			M84.1,43.299c2.305-0.344,4.609-0.688,6.914-1.031"/>
		<path style="fill:none;stroke:#000000;stroke-width:2;stroke-linecap:round;stroke-linejoin:round;stroke-miterlimit:10;" d="
			M22.564,60.937c-5.463,2.153-10.926,4.305-16.389,6.458"/>
		<path style="fill:none;stroke:#000000;stroke-width:2;stroke-linecap:round;stroke-linejoin:round;stroke-miterlimit:10;" d="
			M15.9,56.701c-2.305,0.344-4.609,0.688-6.914,1.031"/>
		<path style="fill:none;stroke:#000000;stroke-width:2;stroke-linecap:round;stroke-linejoin:round;stroke-miterlimit:10;" d="
			M79.074,55.2c5.776,1.057,11.552,2.113,17.328,3.17"/>
		<path style="fill:none;stroke:#000000;stroke-width:2;stroke-linecap:round;stroke-linejoin:round;stroke-miterlimit:10;" d="
			M82.497,62.316c2.139,0.925,4.277,1.85,6.416,2.775"/>
		<path style="fill:none;stroke:#000000;stroke-width:2;stroke-linecap:round;stroke-linejoin:round;stroke-miterlimit:10;" d="
			M20.926,44.8c-5.776-1.057-11.552-2.113-17.328-3.17"/>
		<path style="fill:none;stroke:#000000;stroke-width:2;stroke-linecap:round;stroke-linejoin:round;stroke-miterlimit:10;" d="
			M17.503,37.684c-2.139-0.925-4.277-1.85-6.416-2.775"/>
		<path style="fill:none;stroke:#000000;stroke-width:2;stroke-linecap:round;stroke-linejoin:round;stroke-miterlimit:10;" d="
			M72.392,69.26c4.436,3.847,8.873,7.693,13.309,11.54"/>
		<path style="fill:none;stroke:#000000;stroke-width:2;stroke-linecap:round;stroke-linejoin:round;stroke-miterlimit:10;" d="
			M71.721,77.128c1.371,1.884,2.743,3.768,4.114,5.652"/>
		<path style="fill:none;stroke:#000000;stroke-width:2;stroke-linecap:round;stroke-linejoin:round;stroke-miterlimit:10;" d="
			M27.608,30.74c-4.436-3.847-8.873-7.693-13.309-11.54"/>
		<path style="fill:none;stroke:#000000;stroke-width:2;stroke-linecap:round;stroke-linejoin:round;stroke-miterlimit:10;" d="
			M28.279,22.872c-1.371-1.884-2.743-3.768-4.114-5.652"/>
		<path style="fill:none;stroke:#000000;stroke-width:2;stroke-linecap:round;stroke-linejoin:round;stroke-miterlimit:10;" d="
			M61.372,77.258c2.239,5.428,4.479,10.856,6.718,16.284"/>
		<path style="fill:none;stroke:#000000;stroke-width:2;stroke-linecap:round;stroke-linejoin:round;stroke-miterlimit:10;" d="
			M57.243,83.989c0.38,2.299,0.761,4.598,1.141,6.896"/>
		<path style="fill:none;stroke:#000000;stroke-width:2;stroke-linecap:round;stroke-linejoin:round;stroke-miterlimit:10;" d="
			M38.628,22.742c-2.239-5.428-4.479-10.856-6.718-16.284"/>
		<path style="fill:none;stroke:#000000;stroke-width:2;stroke-linecap:round;stroke-linejoin:round;stroke-miterlimit:10;" d="
			M42.757,16.011c-0.38-2.299-0.761-4.598-1.141-6.896"/>
		
			<line style="fill:none;stroke:#000000;stroke-linecap:round;stroke-linejoin:round;stroke-miterlimit:10;" x1="51.52" y1="27.778" x2="51.304" y2="27.994"/>
		
			<line style="fill:none;stroke:#000000;stroke-linecap:round;stroke-linejoin:round;stroke-miterlimit:10;" x1="56.464" y1="28.022" x2="55.562" y2="28.934"/>
		
			<line style="fill:none;stroke:#000000;stroke-linecap:round;stroke-linejoin:round;stroke-miterlimit:10;" x1="60.713" y1="28.981" x2="59.265" y2="30.429"/>
		
			<line style="fill:none;stroke:#000000;stroke-linecap:round;stroke-linejoin:round;stroke-miterlimit:10;" x1="64.388" y1="30.494" x2="62.49" y2="32.393"/>
		
			<line style="fill:none;stroke:#000000;stroke-linecap:round;stroke-linejoin:round;stroke-miterlimit:10;" x1="67.584" y1="32.497" x2="65.253" y2="34.828"/>
		
			<line style="fill:none;stroke:#000000;stroke-linecap:round;stroke-linejoin:round;stroke-miterlimit:10;" x1="70.329" y1="34.95" x2="67.537" y2="37.742"/>
		
			<line style="fill:none;stroke:#000000;stroke-linecap:round;stroke-linejoin:round;stroke-miterlimit:10;" x1="72.595" y1="37.873" x2="69.314" y2="41.154"/>
		
			<line style="fill:none;stroke:#000000;stroke-linecap:round;stroke-linejoin:round;stroke-miterlimit:10;" x1="74.352" y1="41.314" x2="70.517" y2="45.158"/>
		
			<line style="fill:none;stroke:#000000;stroke-linecap:round;stroke-linejoin:round;stroke-miterlimit:10;" x1="75.527" y1="45.337" x2="70.959" y2="49.905"/>
		
			<line style="fill:none;stroke:#000000;stroke-linecap:round;stroke-linejoin:round;stroke-miterlimit:10;" x1="54.913" y1="71.149" x2="53.823" y2="72.24"/>
		<polyline style="fill:none;stroke:#000000;stroke-linecap:round;stroke-linejoin:round;stroke-miterlimit:10;" points="
			70.085,55.978 70.094,55.968 75.922,50.131 		"/>
		
			<line style="fill:none;stroke:#000000;stroke-linecap:round;stroke-linejoin:round;stroke-miterlimit:10;" x1="74.954" y1="56.307" x2="60.234" y2="71.027"/>
		<path style="fill:none;stroke:#000000;stroke-linecap:round;stroke-linejoin:round;stroke-miterlimit:10;" d="M27.947,51.607
			c-0.045-0.355-0.091-0.709-0.136-1.064"/>
		<path style="fill:none;stroke:#000000;stroke-linecap:round;stroke-linejoin:round;stroke-miterlimit:10;" d="M27.75,49.012
			c0.171-4.476,1.821-8.932,4.835-12.244s7.418-5.399,11.897-5.342"/>
		<path style="fill:none;stroke:#000000;stroke-linecap:round;stroke-linejoin:round;stroke-miterlimit:10;" d="M29.76,51.348
			c-0.478-2.842-0.041-5.83,1.231-8.416c1.272-2.586,3.373-4.756,5.916-6.111"/>
		<path style="fill:none;stroke:#000000;stroke-linecap:round;stroke-linejoin:round;stroke-miterlimit:10;" d="M53.363,67.842
			c4.585-2.184,8.862-5.306,11.55-9.614c2.689-4.308,3.581-9.921,1.499-14.552"/>
		<path style="fill:none;stroke:#000000;stroke-linecap:round;stroke-linejoin:round;stroke-miterlimit:10;" d="M63.417,47.539
			c0.923,3.058,0.652,6.46-0.744,9.334c-1.396,2.874-3.902,5.19-6.876,6.356"/>
		<path style="fill:none;stroke:#000000;stroke-linecap:round;stroke-linejoin:round;stroke-miterlimit:10;" d="M32.9,60.36
			c1.749,2.882,4.805,4.934,8.135,5.461"/>
		<path style="fill:none;stroke:#000000;stroke-linecap:round;stroke-linejoin:round;stroke-miterlimit:10;" d="M42.77,66.313
			c0.289,0.019,0.578,0.038,0.867,0.057"/>
	</g>
</g>
<g id="Layer_1">
</g>
</svg>
