<?xml version="1.0" encoding="iso-8859-1"?>
<!-- Generator: Adobe Illustrator 23.0.5, SVG Export Plug-In . SVG Version: 6.00 Build 0)  -->
<svg version="1.1" xmlns="http://www.w3.org/2000/svg" xmlns:xlink="http://www.w3.org/1999/xlink" x="0px" y="0px"
	 viewBox="0 0 100 100" style="enable-background:new 0 0 100 100;" xml:space="preserve">
<g id="_x30_1_Christmas_Tree">
	<g>
		<g>
			<path style="fill:#FFFFFF;" d="M53.519,96.275c-2.416,0.108-4.831,0.208-7.247,0.317c-0.05-4.973-0.1-9.929-0.142-14.901
				l6.772-0.85C53.11,85.989,53.319,91.128,53.519,96.275z"/>
			
				<line style="fill:none;stroke:#000000;stroke-linecap:round;stroke-linejoin:round;stroke-miterlimit:10;" x1="46.72" y1="81.62" x2="46.13" y2="82.2"/>
			
				<line style="fill:none;stroke:#000000;stroke-linecap:round;stroke-linejoin:round;stroke-miterlimit:10;" x1="50.61" y1="81.13" x2="46.17" y2="85.57"/>
			
				<line style="fill:none;stroke:#000000;stroke-linecap:round;stroke-linejoin:round;stroke-miterlimit:10;" x1="52.95" y1="82.19" x2="46.2" y2="88.94"/>
			
				<line style="fill:none;stroke:#000000;stroke-linecap:round;stroke-linejoin:round;stroke-miterlimit:10;" x1="53.09" y1="85.45" x2="46.23" y2="92.31"/>
			
				<line style="fill:none;stroke:#000000;stroke-linecap:round;stroke-linejoin:round;stroke-miterlimit:10;" x1="53.22" y1="88.73" x2="46.26" y2="95.68"/>
			
				<line style="fill:none;stroke:#000000;stroke-linecap:round;stroke-linejoin:round;stroke-miterlimit:10;" x1="53.35" y1="92" x2="48.87" y2="96.48"/>
			
				<line style="fill:none;stroke:#000000;stroke-linecap:round;stroke-linejoin:round;stroke-miterlimit:10;" x1="53.48" y1="95.27" x2="52.42" y2="96.33"/>
			<path style="fill:#FFFFFF;" d="M47.849,6.54c0.324-0.629,0.649-1.259,0.973-1.888c0.159-0.309,0.36-0.62,0.486-0.944
				c0.097-0.248,0.159-0.489,0.408-0.64c0.673-0.408,0.915,1.108,1.046,1.508c0.269,0.819,0.507,1.648,0.723,2.482
				c-0.017-0.042,0.024,0.011,0.007-0.031c0.026,0.064,1.003,0.013,1.116,0.015C53,7.048,53.39,7.053,53.781,7.058
				c0.387,0.005,0.786,0.04,1.172,0.015c0.248-0.016,0.544-0.138,0.722,0.115c0.188,0.266,0.001,0.444-0.188,0.589
				c-0.319,0.245-0.616,0.527-0.921,0.79c-0.602,0.52-1.205,1.04-1.81,1.557c0.148,0.747,0.274,1.499,0.398,2.25
				c0.063,0.382,0.125,0.764,0.189,1.145c0.022,0.132,0.02,0.274,0.048,0.403c0.036,0.17,0.146,0.301,0.097,0.486
				c-0.029,0.11-0.109,0.202-0.202,0.269c-0.196,0.14-0.291,0.144-0.499,0.047c-0.171-0.08-0.34-0.164-0.508-0.252
				c-0.333-0.175-0.657-0.367-0.969-0.577c-0.311-0.209-0.611-0.436-0.895-0.681c-0.08-0.069-0.782-0.806-0.807-0.795
				c-0.871,0.385-1.736,0.783-2.602,1.18c-0.43,0.198-0.86,0.395-1.291,0.591c-0.284,0.129-0.827,0.522-1.048,0.102
				c-0.071-0.135-0.063-0.3-0.014-0.445c0.052-0.152,0.155-0.27,0.225-0.412c0.074-0.15,0.121-0.322,0.18-0.479
				c0.122-0.327,0.244-0.654,0.366-0.981c0.123-0.328,0.247-0.656,0.374-0.983c0.039-0.099,0.428-0.911,0.385-0.957
				c-0.523-0.551-1.063-1.086-1.605-1.619c-0.271-0.267-0.543-0.534-0.813-0.803c-0.193-0.192-0.595-0.425-0.503-0.747
				c0.108-0.377,0.623-0.295,0.921-0.298c0.372-0.003,0.744-0.006,1.116-0.01c0.675-0.006,1.349-0.012,2.024-0.017
				C47.5,6.543,47.675,6.542,47.849,6.54z"/>
			<path style="fill:none;stroke:#000000;stroke-width:2;stroke-linecap:round;stroke-linejoin:round;stroke-miterlimit:10;" d="
				M53.519,96.275c-2.416,0.108-4.831,0.208-7.247,0.317c-0.05-4.973-0.1-9.929-0.142-14.901l6.772-0.85
				C53.11,85.989,53.319,91.128,53.519,96.275z"/>
			<path style="fill:none;stroke:#000000;stroke-width:2;stroke-linecap:round;stroke-linejoin:round;stroke-miterlimit:10;" d="
				M63.28,95.859c-3.257,0.142-6.505,0.283-9.762,0.416c-2.416,0.108-4.831,0.208-7.247,0.317c-3.173,0.133-6.347,0.267-9.52,0.408"
				/>
			<path style="fill:#E74C3C;" d="M50.109,82.43c4.507,3.912,10.936,5.494,16.744,4.119c-3.215-1.162-6.016-3.412-7.986-6.205
				c2.256,1.695,5.134,2.527,7.955,2.598s5.657-0.759,7.995-2.339c-6.285-2.685-11.62-7.659-14.842-13.686
				c3.809,2.198,8.535,2.59,12.813,1.571c-5.322-3.361-9.573-7.893-12.965-13.195c3.24,1.643,6.734,2.163,10.366,2.191l0.474-0.206
				c-2.945-1.6-5.382-4.019-7.395-6.7c-2.013-2.681-3.63-5.632-5.24-8.572c2.463,2.188,6.008,3.215,9.299,3.053l0.613-0.218
				c-4.598-3.863-8.814-8.181-12.567-12.87c2.246,0.794,5.165,0.678,7.389-0.178l0.529-0.06
				c-7.07-4.014-12.222-11.254-13.696-19.249h-0.057c-1.372,8.013-6.431,15.319-13.449,19.422l0.53,0.053
				c2.234,0.828,5.154,0.906,7.39,0.083c-3.693,4.736-7.853,9.107-12.402,13.029l0.615,0.21c3.293,0.12,6.824-0.952,9.259-3.172
				c-1.572,2.96-3.152,5.932-5.13,8.638c-1.978,2.706-4.384,5.156-7.309,6.794l0.476,0.2c3.632-0.075,7.119-0.64,10.337-2.324
				c-3.324,5.345-7.517,9.931-12.796,13.359c4.291,0.964,9.011,0.512,12.792-1.734c-3.145,6.068-8.416,11.11-14.666,13.875
				c2.358,1.55,5.205,2.343,8.024,2.236s5.687-0.976,7.921-2.7c-1.934,2.818-4.707,5.104-7.906,6.307
				c5.825,1.301,12.233-0.363,16.69-4.332"/>
			<path style="fill:none;stroke:#000000;stroke-width:2;stroke-linecap:round;stroke-linejoin:round;stroke-miterlimit:10;" d="
				M50.109,82.43c4.507,3.912,10.936,5.494,16.744,4.119c-3.215-1.162-6.016-3.412-7.986-6.205c2.256,1.695,5.134,2.527,7.955,2.598
				s5.657-0.759,7.995-2.339c-6.285-2.685-11.62-7.659-14.842-13.686c3.809,2.198,8.535,2.59,12.813,1.571
				c-5.322-3.361-9.573-7.893-12.965-13.195c3.24,1.643,6.734,2.163,10.366,2.191l0.474-0.206c-2.945-1.6-5.382-4.019-7.395-6.7
				c-2.013-2.681-3.63-5.632-5.24-8.572c2.463,2.188,6.008,3.215,9.299,3.053l0.613-0.218c-4.598-3.863-8.814-8.181-12.567-12.87
				c2.246,0.794,5.165,0.678,7.389-0.178l0.529-0.06c-7.07-4.014-12.222-11.254-13.696-19.249h-0.057
				c-1.372,8.013-6.431,15.319-13.449,19.422l0.53,0.053c2.234,0.828,5.154,0.906,7.39,0.083
				c-3.693,4.736-7.853,9.107-12.402,13.029l0.615,0.21c3.293,0.12,6.824-0.952,9.259-3.172c-1.572,2.96-3.152,5.932-5.13,8.638
				c-1.978,2.706-4.384,5.156-7.309,6.794l0.476,0.2c3.632-0.075,7.119-0.64,10.337-2.324c-3.324,5.345-7.517,9.931-12.796,13.359
				c4.291,0.964,9.011,0.512,12.792-1.734c-3.145,6.068-8.416,11.11-14.666,13.875c2.358,1.55,5.205,2.343,8.024,2.236
				s5.687-0.976,7.921-2.7c-1.934,2.818-4.707,5.104-7.906,6.307c5.825,1.301,12.233-0.363,16.69-4.332"/>
			<path style="fill:none;stroke:#000000;stroke-width:2;stroke-linecap:round;stroke-linejoin:round;stroke-miterlimit:10;" d="
				M47.849,6.54c0.324-0.629,0.649-1.259,0.973-1.888c0.159-0.309,0.36-0.62,0.486-0.944c0.097-0.248,0.159-0.489,0.408-0.64
				c0.673-0.408,0.915,1.108,1.046,1.508c0.269,0.819,0.507,1.648,0.723,2.482c-0.017-0.042,0.024,0.011,0.007-0.031
				c0.026,0.064,1.003,0.013,1.116,0.015C53,7.048,53.39,7.053,53.781,7.058c0.387,0.005,0.786,0.04,1.172,0.015
				c0.248-0.016,0.544-0.138,0.722,0.115c0.188,0.266,0.001,0.444-0.188,0.589c-0.319,0.245-0.616,0.527-0.921,0.79
				c-0.602,0.52-1.205,1.04-1.81,1.557c0.148,0.747,0.274,1.499,0.398,2.25c0.063,0.382,0.125,0.764,0.189,1.145
				c0.022,0.132,0.02,0.274,0.048,0.403c0.036,0.17,0.146,0.301,0.097,0.486c-0.029,0.11-0.109,0.202-0.202,0.269
				c-0.196,0.14-0.291,0.144-0.499,0.047c-0.171-0.08-0.34-0.164-0.508-0.252c-0.333-0.175-0.657-0.367-0.969-0.577
				c-0.311-0.209-0.611-0.436-0.895-0.681c-0.08-0.069-0.782-0.806-0.807-0.795c-0.871,0.385-1.736,0.783-2.602,1.18
				c-0.43,0.198-0.86,0.395-1.291,0.591c-0.284,0.129-0.827,0.522-1.048,0.102c-0.071-0.135-0.063-0.3-0.014-0.445
				c0.052-0.152,0.155-0.27,0.225-0.412c0.074-0.15,0.121-0.322,0.18-0.479c0.122-0.327,0.244-0.654,0.366-0.981
				c0.123-0.328,0.247-0.656,0.374-0.983c0.039-0.099,0.428-0.911,0.385-0.957c-0.523-0.551-1.063-1.086-1.605-1.619
				c-0.271-0.267-0.543-0.534-0.813-0.803c-0.193-0.192-0.595-0.425-0.503-0.747c0.108-0.377,0.623-0.295,0.921-0.298
				c0.372-0.003,0.744-0.006,1.116-0.01c0.675-0.006,1.349-0.012,2.024-0.017C47.5,6.543,47.675,6.542,47.849,6.54z"/>
		</g>
		<path style="fill:none;stroke:#000000;stroke-linecap:round;stroke-linejoin:round;stroke-miterlimit:10;" d="M33.148,79.266
			c0.38-0.328,0.759-0.656,1.139-0.985"/>
		<path style="fill:none;stroke:#000000;stroke-linecap:round;stroke-linejoin:round;stroke-miterlimit:10;" d="M35.663,77.221
			c2.528-2.196,4.531-4.992,5.797-8.092"/>
		<path style="fill:none;stroke:#000000;stroke-linecap:round;stroke-linejoin:round;stroke-miterlimit:10;" d="M42.214,83.416
			c0.983-1.083,1.798-2.32,2.405-3.651"/>
		<path style="fill:none;stroke:#000000;stroke-linecap:round;stroke-linejoin:round;stroke-miterlimit:10;" d="M36.643,64.909
			c2.757-2.536,4.794-5.847,5.813-9.451"/>
		<path style="fill:none;stroke:#000000;stroke-linecap:round;stroke-linejoin:round;stroke-miterlimit:10;" d="M38.292,52.117
			c2.527-2.541,4.506-5.624,5.764-8.98"/>
		<path style="fill:none;stroke:#000000;stroke-linecap:round;stroke-linejoin:round;stroke-miterlimit:10;" d="M41.797,38.381
			c1.549-1.318,2.827-2.955,3.73-4.777"/>
		<path style="fill:none;stroke:#000000;stroke-linecap:round;stroke-linejoin:round;stroke-miterlimit:10;" d="M46.542,31.871
			c0.246-0.483,0.493-0.967,0.739-1.45"/>
		<path style="fill:none;stroke:#000000;stroke-linecap:round;stroke-linejoin:round;stroke-miterlimit:10;" d="M44.945,27.642
			c2.128-2.113,3.646-4.834,4.327-7.754"/>
		<path style="fill:none;stroke:#000000;stroke-linecap:round;stroke-linejoin:round;stroke-miterlimit:10;" d="M56.721,44.386
			c0.887,2.313,2.066,4.513,3.5,6.533"/>
		<path style="fill:none;stroke:#000000;stroke-linecap:round;stroke-linejoin:round;stroke-miterlimit:10;" d="M58.728,58.185
			c0.965,2.784,3.035,5.169,5.657,6.515"/>
		<path style="fill:none;stroke:#000000;stroke-linecap:round;stroke-linejoin:round;stroke-miterlimit:10;" d="M58.985,70.14
			c1.296,2.84,3.279,5.363,5.73,7.295"/>
		<path style="fill:none;stroke:#000000;stroke-linecap:round;stroke-linejoin:round;stroke-miterlimit:10;" d="M66.737,78.95
			c0.275,0.31,0.682,0.498,1.096,0.506"/>
		<path style="fill:none;stroke:#000000;stroke-linecap:round;stroke-linejoin:round;stroke-miterlimit:10;" d="M48.955,42.149
			c-0.185,8.2-0.37,16.4-0.555,24.6"/>
		<path style="fill:none;stroke:#000000;stroke-linecap:round;stroke-linejoin:round;stroke-miterlimit:10;" d="M48.547,69.108
			c0.029,0.438,0.058,0.875,0.088,1.313"/>
		<path style="fill:none;stroke:#000000;stroke-linecap:round;stroke-linejoin:round;stroke-miterlimit:10;" d="M51.05,69.37
			c-0.02-5.308,0.428-10.618,1.336-15.848"/>
	</g>
</g>
<g id="Layer_1">
</g>
</svg>
