<?xml version="1.0" encoding="iso-8859-1"?>
<!-- Generator: Adobe Illustrator 23.0.5, SVG Export Plug-In . SVG Version: 6.00 Build 0)  -->
<svg version="1.1" xmlns="http://www.w3.org/2000/svg" xmlns:xlink="http://www.w3.org/1999/xlink" x="0px" y="0px"
	 viewBox="0 0 100 100" style="enable-background:new 0 0 100 100;" xml:space="preserve">
<g id="Window">
	<g>
		<path style="fill:#FFFFFF;" d="M49.922,90.805c0.294-27.141-0.356-54.316-0.062-81.458C34.18,7.929,19.472,7.918,4.041,11.04
			C2.558,37.858,2.659,64.763,4.344,91.569C19.155,91.462,35.111,90.912,49.922,90.805z"/>
		<path style="fill:#FFFFFF;" d="M50.078,90.805c-0.294-27.141,0.356-54.316,0.062-81.458c15.679-1.419,30.387-1.43,45.818,1.693
			c1.483,26.818,1.382,53.723-0.302,80.529C80.845,91.462,64.889,90.912,50.078,90.805z"/>
		
			<line style="fill:none;stroke:#000000;stroke-linecap:round;stroke-linejoin:round;stroke-miterlimit:10;" x1="6.108" y1="10.632" x2="3.946" y2="12.794"/>
		
			<line style="fill:none;stroke:#000000;stroke-linecap:round;stroke-linejoin:round;stroke-miterlimit:10;" x1="12.303" y1="9.645" x2="3.683" y2="18.265"/>
		
			<line style="fill:none;stroke:#000000;stroke-linecap:round;stroke-linejoin:round;stroke-miterlimit:10;" x1="18.14" y1="8.997" x2="3.458" y2="23.679"/>
		
			<line style="fill:none;stroke:#000000;stroke-linecap:round;stroke-linejoin:round;stroke-miterlimit:10;" x1="10.357" y1="21.978" x2="3.288" y2="29.047"/>
		
			<line style="fill:none;stroke:#000000;stroke-linecap:round;stroke-linejoin:round;stroke-miterlimit:10;" x1="23.724" y1="8.611" x2="16.289" y2="16.047"/>
		
			<line style="fill:none;stroke:#000000;stroke-linecap:round;stroke-linejoin:round;stroke-miterlimit:10;" x1="10.169" y1="27.364" x2="3.157" y2="34.377"/>
		
			<line style="fill:none;stroke:#000000;stroke-linecap:round;stroke-linejoin:round;stroke-miterlimit:10;" x1="29.082" y1="8.451" x2="21.976" y2="15.558"/>
		
			<line style="fill:none;stroke:#000000;stroke-linecap:round;stroke-linejoin:round;stroke-miterlimit:10;" x1="10.019" y1="32.703" x2="3.063" y2="39.659"/>
		
			<line style="fill:none;stroke:#000000;stroke-linecap:round;stroke-linejoin:round;stroke-miterlimit:10;" x1="34.252" y1="8.47" x2="27.409" y2="15.313"/>
		
			<line style="fill:none;stroke:#000000;stroke-linecap:round;stroke-linejoin:round;stroke-miterlimit:10;" x1="9.915" y1="38.014" x2="3.016" y2="44.914"/>
		
			<line style="fill:none;stroke:#000000;stroke-linecap:round;stroke-linejoin:round;stroke-miterlimit:10;" x1="39.3" y1="8.621" x2="32.654" y2="15.266"/>
		
			<line style="fill:none;stroke:#000000;stroke-linecap:round;stroke-linejoin:round;stroke-miterlimit:10;" x1="9.85" y1="43.269" x2="3.006" y2="50.112"/>
		
			<line style="fill:none;stroke:#000000;stroke-linecap:round;stroke-linejoin:round;stroke-miterlimit:10;" x1="44.216" y1="8.903" x2="37.73" y2="15.389"/>
		
			<line style="fill:none;stroke:#000000;stroke-linecap:round;stroke-linejoin:round;stroke-miterlimit:10;" x1="9.831" y1="48.486" x2="3.035" y2="55.282"/>
		
			<line style="fill:none;stroke:#000000;stroke-linecap:round;stroke-linejoin:round;stroke-miterlimit:10;" x1="49.038" y1="9.269" x2="42.674" y2="15.633"/>
		
			<line style="fill:none;stroke:#000000;stroke-linecap:round;stroke-linejoin:round;stroke-miterlimit:10;" x1="9.85" y1="53.665" x2="3.1" y2="60.415"/>
		
			<line style="fill:none;stroke:#000000;stroke-linecap:round;stroke-linejoin:round;stroke-miterlimit:10;" x1="49.828" y1="13.687" x2="42.966" y2="20.549"/>
		
			<line style="fill:none;stroke:#000000;stroke-linecap:round;stroke-linejoin:round;stroke-miterlimit:10;" x1="9.906" y1="58.798" x2="3.204" y2="65.5"/>
		
			<line style="fill:none;stroke:#000000;stroke-linecap:round;stroke-linejoin:round;stroke-miterlimit:10;" x1="49.8" y1="18.904" x2="42.956" y2="25.747"/>
		
			<line style="fill:none;stroke:#000000;stroke-linecap:round;stroke-linejoin:round;stroke-miterlimit:10;" x1="10" y1="63.902" x2="3.345" y2="70.557"/>
		
			<line style="fill:none;stroke:#000000;stroke-linecap:round;stroke-linejoin:round;stroke-miterlimit:10;" x1="49.781" y1="24.121" x2="42.966" y2="30.936"/>
		
			<line style="fill:none;stroke:#000000;stroke-linecap:round;stroke-linejoin:round;stroke-miterlimit:10;" x1="10.141" y1="68.959" x2="3.523" y2="75.577"/>
		
			<line style="fill:none;stroke:#000000;stroke-linecap:round;stroke-linejoin:round;stroke-miterlimit:10;" x1="49.79" y1="29.31" x2="42.985" y2="36.116"/>
		
			<line style="fill:none;stroke:#000000;stroke-linecap:round;stroke-linejoin:round;stroke-miterlimit:10;" x1="10.31" y1="73.979" x2="3.74" y2="80.549"/>
		
			<line style="fill:none;stroke:#000000;stroke-linecap:round;stroke-linejoin:round;stroke-miterlimit:10;" x1="49.809" y1="34.48" x2="43.013" y2="41.276"/>
		
			<line style="fill:none;stroke:#000000;stroke-linecap:round;stroke-linejoin:round;stroke-miterlimit:10;" x1="10.508" y1="78.989" x2="3.993" y2="85.503"/>
		
			<line style="fill:none;stroke:#000000;stroke-linecap:round;stroke-linejoin:round;stroke-miterlimit:10;" x1="49.828" y1="39.659" x2="43.05" y2="46.446"/>
		
			<line style="fill:none;stroke:#000000;stroke-linecap:round;stroke-linejoin:round;stroke-miterlimit:10;" x1="10.743" y1="83.943" x2="4.275" y2="90.41"/>
		
			<line style="fill:none;stroke:#000000;stroke-linecap:round;stroke-linejoin:round;stroke-miterlimit:10;" x1="49.856" y1="44.829" x2="43.079" y2="51.607"/>
		
			<line style="fill:none;stroke:#000000;stroke-linecap:round;stroke-linejoin:round;stroke-miterlimit:10;" x1="15.273" y1="84.601" x2="8.346" y2="91.529"/>
		
			<line style="fill:none;stroke:#000000;stroke-linecap:round;stroke-linejoin:round;stroke-miterlimit:10;" x1="49.894" y1="49.99" x2="43.107" y2="56.777"/>
		
			<line style="fill:none;stroke:#000000;stroke-linecap:round;stroke-linejoin:round;stroke-miterlimit:10;" x1="20.584" y1="84.497" x2="13.628" y2="91.453"/>
		
			<line style="fill:none;stroke:#000000;stroke-linecap:round;stroke-linejoin:round;stroke-miterlimit:10;" x1="49.922" y1="55.16" x2="43.135" y2="61.947"/>
		
			<line style="fill:none;stroke:#000000;stroke-linecap:round;stroke-linejoin:round;stroke-miterlimit:10;" x1="25.886" y1="84.385" x2="18.911" y2="91.359"/>
		
			<line style="fill:none;stroke:#000000;stroke-linecap:round;stroke-linejoin:round;stroke-miterlimit:10;" x1="49.95" y1="60.321" x2="43.154" y2="67.117"/>
		
			<line style="fill:none;stroke:#000000;stroke-linecap:round;stroke-linejoin:round;stroke-miterlimit:10;" x1="49.969" y1="65.5" x2="43.163" y2="72.306"/>
		
			<line style="fill:none;stroke:#000000;stroke-linecap:round;stroke-linejoin:round;stroke-miterlimit:10;" x1="31.188" y1="84.281" x2="24.222" y2="91.247"/>
		
			<line style="fill:none;stroke:#000000;stroke-linecap:round;stroke-linejoin:round;stroke-miterlimit:10;" x1="36.499" y1="84.168" x2="29.533" y2="91.134"/>
		
			<line style="fill:none;stroke:#000000;stroke-linecap:round;stroke-linejoin:round;stroke-miterlimit:10;" x1="49.988" y1="70.679" x2="43.173" y2="77.494"/>
		
			<line style="fill:none;stroke:#000000;stroke-linecap:round;stroke-linejoin:round;stroke-miterlimit:10;" x1="49.997" y1="75.859" x2="43.154" y2="82.702"/>
		
			<line style="fill:none;stroke:#000000;stroke-linecap:round;stroke-linejoin:round;stroke-miterlimit:10;" x1="41.781" y1="84.074" x2="34.835" y2="91.021"/>
		
			<line style="fill:none;stroke:#000000;stroke-linecap:round;stroke-linejoin:round;stroke-miterlimit:10;" x1="49.978" y1="81.076" x2="40.127" y2="90.927"/>
		
			<line style="fill:none;stroke:#000000;stroke-linecap:round;stroke-linejoin:round;stroke-miterlimit:10;" x1="49.95" y1="86.302" x2="45.4" y2="90.852"/>
		
			<line style="fill:none;stroke:#000000;stroke-linecap:round;stroke-linejoin:round;stroke-miterlimit:10;" x1="96.057" y1="12.804" x2="93.886" y2="10.632"/>
		
			<line style="fill:none;stroke:#000000;stroke-linecap:round;stroke-linejoin:round;stroke-miterlimit:10;" x1="96.32" y1="18.265" x2="87.7" y2="9.645"/>
		
			<line style="fill:none;stroke:#000000;stroke-linecap:round;stroke-linejoin:round;stroke-miterlimit:10;" x1="96.536" y1="23.679" x2="81.854" y2="8.997"/>
		
			<line style="fill:none;stroke:#000000;stroke-linecap:round;stroke-linejoin:round;stroke-miterlimit:10;" x1="83.715" y1="16.047" x2="76.279" y2="8.611"/>
		
			<line style="fill:none;stroke:#000000;stroke-linecap:round;stroke-linejoin:round;stroke-miterlimit:10;" x1="96.706" y1="29.037" x2="89.646" y2="21.978"/>
		
			<line style="fill:none;stroke:#000000;stroke-linecap:round;stroke-linejoin:round;stroke-miterlimit:10;" x1="78.028" y1="15.558" x2="70.921" y2="8.451"/>
		
			<line style="fill:none;stroke:#000000;stroke-linecap:round;stroke-linejoin:round;stroke-miterlimit:10;" x1="96.837" y1="34.367" x2="89.834" y2="27.364"/>
		
			<line style="fill:none;stroke:#000000;stroke-linecap:round;stroke-linejoin:round;stroke-miterlimit:10;" x1="72.585" y1="15.313" x2="65.742" y2="8.47"/>
		
			<line style="fill:none;stroke:#000000;stroke-linecap:round;stroke-linejoin:round;stroke-miterlimit:10;" x1="96.931" y1="39.659" x2="89.985" y2="32.713"/>
		
			<line style="fill:none;stroke:#000000;stroke-linecap:round;stroke-linejoin:round;stroke-miterlimit:10;" x1="67.349" y1="15.266" x2="60.704" y2="8.621"/>
		
			<line style="fill:none;stroke:#000000;stroke-linecap:round;stroke-linejoin:round;stroke-miterlimit:10;" x1="96.978" y1="44.905" x2="90.088" y2="38.014"/>
		
			<line style="fill:none;stroke:#000000;stroke-linecap:round;stroke-linejoin:round;stroke-miterlimit:10;" x1="62.264" y1="15.389" x2="55.778" y2="8.903"/>
		
			<line style="fill:none;stroke:#000000;stroke-linecap:round;stroke-linejoin:round;stroke-miterlimit:10;" x1="96.988" y1="50.112" x2="90.154" y2="43.278"/>
		
			<line style="fill:none;stroke:#000000;stroke-linecap:round;stroke-linejoin:round;stroke-miterlimit:10;" x1="57.32" y1="15.633" x2="50.956" y2="9.269"/>
		
			<line style="fill:none;stroke:#000000;stroke-linecap:round;stroke-linejoin:round;stroke-miterlimit:10;" x1="96.959" y1="55.273" x2="90.173" y2="48.486"/>
		
			<line style="fill:none;stroke:#000000;stroke-linecap:round;stroke-linejoin:round;stroke-miterlimit:10;" x1="96.894" y1="60.405" x2="90.154" y2="53.665"/>
		
			<line style="fill:none;stroke:#000000;stroke-linecap:round;stroke-linejoin:round;stroke-miterlimit:10;" x1="57.038" y1="20.549" x2="50.176" y2="13.687"/>
		
			<line style="fill:none;stroke:#000000;stroke-linecap:round;stroke-linejoin:round;stroke-miterlimit:10;" x1="57.047" y1="25.757" x2="50.204" y2="18.914"/>
		
			<line style="fill:none;stroke:#000000;stroke-linecap:round;stroke-linejoin:round;stroke-miterlimit:10;" x1="96.79" y1="65.5" x2="90.097" y2="58.807"/>
		
			<line style="fill:none;stroke:#000000;stroke-linecap:round;stroke-linejoin:round;stroke-miterlimit:10;" x1="57.038" y1="30.936" x2="50.223" y2="24.121"/>
		
			<line style="fill:none;stroke:#000000;stroke-linecap:round;stroke-linejoin:round;stroke-miterlimit:10;" x1="96.649" y1="70.548" x2="90.003" y2="63.902"/>
		
			<line style="fill:none;stroke:#000000;stroke-linecap:round;stroke-linejoin:round;stroke-miterlimit:10;" x1="57.019" y1="36.116" x2="50.213" y2="29.31"/>
		
			<line style="fill:none;stroke:#000000;stroke-linecap:round;stroke-linejoin:round;stroke-miterlimit:10;" x1="96.471" y1="75.567" x2="89.872" y2="68.969"/>
		
			<line style="fill:none;stroke:#000000;stroke-linecap:round;stroke-linejoin:round;stroke-miterlimit:10;" x1="56.991" y1="41.286" x2="50.204" y2="34.499"/>
		
			<line style="fill:none;stroke:#000000;stroke-linecap:round;stroke-linejoin:round;stroke-miterlimit:10;" x1="96.254" y1="80.549" x2="89.703" y2="73.998"/>
		
			<line style="fill:none;stroke:#000000;stroke-linecap:round;stroke-linejoin:round;stroke-miterlimit:10;" x1="56.953" y1="46.446" x2="50.176" y2="39.659"/>
		
			<line style="fill:none;stroke:#000000;stroke-linecap:round;stroke-linejoin:round;stroke-miterlimit:10;" x1="96.01" y1="85.503" x2="89.496" y2="78.989"/>
		
			<line style="fill:none;stroke:#000000;stroke-linecap:round;stroke-linejoin:round;stroke-miterlimit:10;" x1="56.925" y1="51.616" x2="50.138" y2="44.829"/>
		
			<line style="fill:none;stroke:#000000;stroke-linecap:round;stroke-linejoin:round;stroke-miterlimit:10;" x1="95.719" y1="90.41" x2="89.261" y2="83.952"/>
		
			<line style="fill:none;stroke:#000000;stroke-linecap:round;stroke-linejoin:round;stroke-miterlimit:10;" x1="56.897" y1="56.777" x2="50.11" y2="49.99"/>
		
			<line style="fill:none;stroke:#000000;stroke-linecap:round;stroke-linejoin:round;stroke-miterlimit:10;" x1="91.648" y1="91.529" x2="84.721" y2="84.601"/>
		
			<line style="fill:none;stroke:#000000;stroke-linecap:round;stroke-linejoin:round;stroke-miterlimit:10;" x1="56.859" y1="61.937" x2="50.082" y2="55.16"/>
		
			<line style="fill:none;stroke:#000000;stroke-linecap:round;stroke-linejoin:round;stroke-miterlimit:10;" x1="86.375" y1="91.453" x2="79.419" y2="84.497"/>
		
			<line style="fill:none;stroke:#000000;stroke-linecap:round;stroke-linejoin:round;stroke-miterlimit:10;" x1="56.84" y1="67.117" x2="50.044" y2="60.321"/>
		
			<line style="fill:none;stroke:#000000;stroke-linecap:round;stroke-linejoin:round;stroke-miterlimit:10;" x1="81.083" y1="91.359" x2="74.108" y2="84.385"/>
		
			<line style="fill:none;stroke:#000000;stroke-linecap:round;stroke-linejoin:round;stroke-miterlimit:10;" x1="56.821" y1="72.287" x2="50.025" y2="65.491"/>
		
			<line style="fill:none;stroke:#000000;stroke-linecap:round;stroke-linejoin:round;stroke-miterlimit:10;" x1="75.781" y1="91.247" x2="68.816" y2="84.281"/>
		
			<line style="fill:none;stroke:#000000;stroke-linecap:round;stroke-linejoin:round;stroke-miterlimit:10;" x1="56.831" y1="77.494" x2="50.006" y2="70.67"/>
		
			<line style="fill:none;stroke:#000000;stroke-linecap:round;stroke-linejoin:round;stroke-miterlimit:10;" x1="70.47" y1="91.134" x2="63.505" y2="84.168"/>
		
			<line style="fill:none;stroke:#000000;stroke-linecap:round;stroke-linejoin:round;stroke-miterlimit:10;" x1="56.85" y1="82.711" x2="49.997" y2="75.859"/>
		
			<line style="fill:none;stroke:#000000;stroke-linecap:round;stroke-linejoin:round;stroke-miterlimit:10;" x1="65.159" y1="91.021" x2="58.213" y2="84.074"/>
		
			<line style="fill:none;stroke:#000000;stroke-linecap:round;stroke-linejoin:round;stroke-miterlimit:10;" x1="59.876" y1="90.927" x2="50.016" y2="81.066"/>
		
			<line style="fill:none;stroke:#000000;stroke-linecap:round;stroke-linejoin:round;stroke-miterlimit:10;" x1="54.594" y1="90.852" x2="50.044" y2="86.293"/>
		<path style="fill:none;stroke:#000000;stroke-width:2;stroke-linecap:round;stroke-linejoin:round;stroke-miterlimit:10;" d="
			M49.922,90.805c0.294-27.141-0.356-54.316-0.062-81.458C34.18,7.929,19.472,7.918,4.041,11.04
			C2.558,37.858,2.659,64.763,4.344,91.569C19.155,91.462,35.111,90.912,49.922,90.805z"/>
		<path style="fill:#E84C3D;" d="M10.78,84.673c-1.198-22.549-1.265-45.325-0.2-67.874c6.599-1.036,13.4-1.543,20.644-1.543
			c3.714,0,7.599,0.132,11.757,0.4c-0.067,11.549,0.009,23.168,0.083,34.465c0.073,11.134,0.148,22.585,0.086,33.934
			c-5.365,0.079-10.829,0.196-16.164,0.309C21.631,84.478,16.146,84.595,10.78,84.673z"/>
		<path style="fill:#E84C3D;" d="M89.22,84.673c1.198-22.549,1.265-45.325,0.2-67.874c-6.599-1.036-13.4-1.543-20.644-1.543
			c-3.714,0-7.599,0.132-11.757,0.4c0.067,11.549-0.009,23.168-0.083,34.465c-0.073,11.134-0.148,22.585-0.086,33.934
			c5.365,0.079,10.829,0.196,16.164,0.309C78.369,84.478,83.854,84.595,89.22,84.673z"/>
		<path style="fill:none;stroke:#000000;stroke-width:2;stroke-linecap:round;stroke-linejoin:round;stroke-miterlimit:10;" d="
			M10.78,84.673c-1.198-22.549-1.265-45.325-0.2-67.874c6.599-1.036,13.4-1.543,20.644-1.543c3.714,0,7.599,0.132,11.757,0.4
			c-0.067,11.549,0.009,23.168,0.083,34.465c0.073,11.134,0.148,22.585,0.086,33.934c-5.365,0.079-10.829,0.196-16.164,0.309
			C21.631,84.478,16.146,84.595,10.78,84.673z"/>
		<path style="fill:none;stroke:#000000;stroke-width:2;stroke-linecap:round;stroke-linejoin:round;stroke-miterlimit:10;" d="
			M50.078,90.805c-0.294-27.141,0.356-54.316,0.062-81.458c15.679-1.419,30.387-1.43,45.818,1.693
			c1.483,26.818,1.382,53.723-0.302,80.529C80.845,91.462,64.889,90.912,50.078,90.805z"/>
		<path style="fill:none;stroke:#000000;stroke-width:2;stroke-linecap:round;stroke-linejoin:round;stroke-miterlimit:10;" d="
			M89.22,84.673c1.198-22.549,1.265-45.325,0.2-67.874c-6.599-1.036-13.4-1.543-20.644-1.543c-3.714,0-7.599,0.132-11.757,0.4
			c0.067,11.549-0.009,23.168-0.083,34.465c-0.073,11.134-0.148,22.585-0.086,33.934c5.365,0.079,10.829,0.196,16.164,0.309
			C78.369,84.478,83.854,84.595,89.22,84.673z"/>
		<path style="fill:none;stroke:#000000;stroke-width:2;stroke-linecap:round;stroke-linejoin:round;stroke-miterlimit:10;" d="
			M53.705,42.727c0.05,4.825,0.1,9.65,0.15,14.475"/>
		<path style="fill:none;stroke:#000000;stroke-width:2;stroke-linecap:round;stroke-linejoin:round;stroke-miterlimit:10;" d="
			M46.512,42.727c0.05,4.825,0.1,9.65,0.15,14.475"/>
		<path style="fill:none;stroke:#000000;stroke-width:2;stroke-linecap:round;stroke-linejoin:round;stroke-miterlimit:10;" d="
			M18.448,45.432c2.615-3.916,5.229-7.833,7.844-11.749"/>
		<path style="fill:none;stroke:#000000;stroke-width:2;stroke-linecap:round;stroke-linejoin:round;stroke-miterlimit:10;" d="
			M26.023,39.937c2.844-4.36,5.688-8.72,8.532-13.08"/>
		<path style="fill:none;stroke:#000000;stroke-width:2;stroke-linecap:round;stroke-linejoin:round;stroke-miterlimit:10;" d="
			M18.448,73.073c2.615-3.916,5.229-7.833,7.844-11.749"/>
		<path style="fill:none;stroke:#000000;stroke-width:2;stroke-linecap:round;stroke-linejoin:round;stroke-miterlimit:10;" d="
			M26.023,67.577c2.844-4.36,5.688-8.72,8.532-13.08"/>
		<path style="fill:none;stroke:#000000;stroke-width:2;stroke-linecap:round;stroke-linejoin:round;stroke-miterlimit:10;" d="
			M65.445,45.432c2.615-3.916,5.229-7.833,7.844-11.749"/>
		<path style="fill:none;stroke:#000000;stroke-width:2;stroke-linecap:round;stroke-linejoin:round;stroke-miterlimit:10;" d="
			M73.019,39.937c2.844-4.36,5.688-8.72,8.532-13.08"/>
		<path style="fill:none;stroke:#000000;stroke-width:2;stroke-linecap:round;stroke-linejoin:round;stroke-miterlimit:10;" d="
			M65.445,73.073c2.615-3.916,5.229-7.833,7.844-11.749"/>
		<path style="fill:none;stroke:#000000;stroke-width:2;stroke-linecap:round;stroke-linejoin:round;stroke-miterlimit:10;" d="
			M73.019,67.577c2.844-4.36,5.688-8.72,8.532-13.08"/>
		<g>
			<path style="fill:none;stroke:#000000;stroke-linecap:round;stroke-linejoin:round;stroke-miterlimit:10;" d="M13.245,22.223
				c0.029,0.413,0.059,0.826,0.088,1.238"/>
			<path style="fill:none;stroke:#000000;stroke-linecap:round;stroke-linejoin:round;stroke-miterlimit:10;" d="M13.783,25.772
				c-0.43,8.811-0.86,17.622-1.289,26.434"/>
			<path style="fill:none;stroke:#000000;stroke-linecap:round;stroke-linejoin:round;stroke-miterlimit:10;" d="M15.583,21.241
				c0.397,6.036,0.322,12.104-0.225,18.128"/>
		</g>
		<g>
			<path style="fill:none;stroke:#000000;stroke-linecap:round;stroke-linejoin:round;stroke-miterlimit:10;" d="M60.909,20.48
				c0.029,0.413,0.059,0.826,0.088,1.238"/>
			<path style="fill:none;stroke:#000000;stroke-linecap:round;stroke-linejoin:round;stroke-miterlimit:10;" d="M61.446,24.029
				c-0.43,8.811-0.86,17.622-1.289,26.434"/>
			<path style="fill:none;stroke:#000000;stroke-linecap:round;stroke-linejoin:round;stroke-miterlimit:10;" d="M63.246,19.498
				c0.397,6.036,0.322,12.104-0.225,18.128"/>
		</g>
		<g>
			<path style="fill:none;stroke:#000000;stroke-linecap:round;stroke-linejoin:round;stroke-miterlimit:10;" d="M38.323,81.36
				c-0.338,0-0.676,0-1.013,0"/>
			<path style="fill:none;stroke:#000000;stroke-linecap:round;stroke-linejoin:round;stroke-miterlimit:10;" d="M23.052,81.056
				c4.034,0.101,8.067,0.203,12.101,0.304"/>
			<path style="fill:none;stroke:#000000;stroke-linecap:round;stroke-linejoin:round;stroke-miterlimit:10;" d="M27.494,79.166
				c4.409,0.347,8.844,0.359,13.254,0.035"/>
		</g>
		<g>
			<path style="fill:none;stroke:#000000;stroke-linecap:round;stroke-linejoin:round;stroke-miterlimit:10;" d="M83.708,82.153
				c-0.338,0-0.676,0-1.013,0"/>
			<path style="fill:none;stroke:#000000;stroke-linecap:round;stroke-linejoin:round;stroke-miterlimit:10;" d="M68.438,81.849
				c4.034,0.101,8.067,0.203,12.101,0.304"/>
			<path style="fill:none;stroke:#000000;stroke-linecap:round;stroke-linejoin:round;stroke-miterlimit:10;" d="M72.88,79.959
				c4.409,0.347,8.844,0.359,13.254,0.035"/>
		</g>
		<path style="fill:none;stroke:#000000;stroke-linecap:round;stroke-linejoin:round;stroke-miterlimit:10;" d="M39.7,22.928
			c0.05,8.752,0.099,17.504,0.149,26.256"/>
		<path style="fill:none;stroke:#000000;stroke-linecap:round;stroke-linejoin:round;stroke-miterlimit:10;" d="M37.442,31.216
			c-0.112,4.218-0.224,8.436-0.336,12.654"/>
		<path style="fill:none;stroke:#000000;stroke-linecap:round;stroke-linejoin:round;stroke-miterlimit:10;" d="M87.042,26.65
			c0.356,10.416,0.153,20.851-0.608,31.246"/>
		<path style="fill:none;stroke:#000000;stroke-linecap:round;stroke-linejoin:round;stroke-miterlimit:10;" d="M84.578,35.579
			c0.464,2.984,0.57,6.024,0.318,9.034"/>
	</g>
</g>
<g id="Layer_1">
</g>
</svg>
